<?xml version="1.0" encoding="UTF-8"?>
<svg version="1.1" xmlns="http://www.w3.org/2000/svg" width="512" height="512">
<path d="M0 0 C1.134375 -0.00515625 2.26875 -0.0103125 3.4375 -0.015625 C7 0.25 7 0.25 10.74452209 1.24964905 C14.75600505 2.28012863 18.49591409 2.50744592 22.65014648 2.52124023 C23.72749054 2.52908035 23.72749054 2.52908035 24.82659912 2.53707886 C26.37119324 2.54724372 27.91582088 2.55308599 29.46044731 2.55496025 C31.91267902 2.55865643 34.36451791 2.57547018 36.81666565 2.59571838 C43.78338287 2.65082458 50.75015595 2.68177777 57.71704102 2.70629883 C61.99282465 2.7222478 66.2683259 2.75253753 70.54396248 2.79106331 C72.16369677 2.80264289 73.78348169 2.80864304 75.40325737 2.80874443 C86.62681193 2.80970201 97.43968513 2.98854899 106 11.25 C110.89306421 17.41500133 113.50830177 24.17032274 113.24609375 32.14453125 C112.20193957 41.07785032 108.07990098 46.9118992 101.25 52.5 C93.72688363 56.55090882 85.36262274 57.86668816 76.98828125 59.07421875 C75.97581833 59.22534622 74.96335541 59.37647369 73.92021179 59.53218079 C71.79718673 59.84736011 69.67362384 60.1589362 67.54956055 60.46704102 C64.30955514 60.93792799 61.07175416 61.4222068 57.83398438 61.90820312 C55.7605337 62.21433536 53.68696958 62.5197005 51.61328125 62.82421875 C50.65271317 62.96792404 49.69214508 63.11162933 48.70246887 63.25968933 C43.7429784 63.97213985 39.01023152 64.40739173 34 64.25 C33.67 65.24 33.34 66.23 33 67.25 C50.90920907 73.72541197 68.8820106 80.01172971 86.875 86.25 C87.97174042 86.63034393 89.06848083 87.01068787 90.19845581 87.40255737 C93.35864511 88.49817825 96.51908911 89.59305987 99.6796875 90.6875 C100.63181625 91.0173439 101.58394501 91.34718781 102.56492615 91.68702698 C104.29947126 92.2870472 106.03576757 92.88204177 107.77420044 93.47070312 C109.64532834 94.12582237 111.48700133 94.86422473 113.31933594 95.62109375 C116.85488349 96.45056283 118.11410425 95.69714269 121.2109375 93.875 C122.19570068 93.30918213 123.18046387 92.74336426 124.19506836 92.16040039 C125.2444458 91.52996826 126.29382324 90.89953613 127.375 90.25 C128.4791626 89.60861084 129.5833252 88.96722168 130.72094727 88.30639648 C133.02659241 86.96402052 135.32682881 85.61565055 137.62060547 84.25341797 C140.75953439 82.39255605 143.9095418 80.55288044 147.06640625 78.72265625 C151.0198671 76.42861203 154.96742678 74.12493907 158.91015625 71.8125 C166.28803257 67.48955355 173.69550046 63.21833311 181.10644531 58.95239258 C186.20040389 56.01995971 191.2919039 53.08370637 196.37084961 50.12535095 C198.15749551 49.08486776 199.94506526 48.04598976 201.73291016 47.00756836 C203.97790462 45.70293306 206.22117064 44.39531732 208.46240234 43.08422852 C226.39618769 32.67899452 226.39618769 32.67899452 237.0625 34.875 C245.03732298 37.24675374 250.41256494 41.82446132 254.578125 48.94921875 C257.31361857 55.29947168 257.08640804 63.09836927 255.34375 69.7578125 C250.96765562 79.37767515 241.6465982 84.64633544 232.9375 89.8125 C231.18995139 90.86529156 229.44478296 91.9219527 227.69975281 92.97891235 C226.51885959 93.69400614 225.33730858 94.40801479 224.15510559 95.12094116 C218.56824507 98.49403931 213.05808688 101.98079228 207.5625 105.5 C205.76562755 106.64844149 203.96875259 107.79687905 202.171875 108.9453125 C200.87733398 109.77337402 200.87733398 109.77337402 199.55664062 110.61816406 C193.16045174 114.70068187 186.73610916 118.73890094 180.31787109 122.78662109 C177.20376896 124.75269737 174.09332528 126.72452763 170.98266602 128.69604492 C168.62139372 130.18978133 166.25631823 131.67733976 163.890625 133.1640625 C160.4898109 135.30230716 157.10868033 137.4686313 153.734375 139.6484375 C143.19524674 146.40059217 132.88526229 152.24615928 121 156.25 C119.9800293 156.59683838 119.9800293 156.59683838 118.93945312 156.95068359 C97.46738584 164.03243348 74.21398888 166.36210666 51.703125 166.453125 C50.55358337 166.45882507 49.40404175 166.46452515 48.21966553 166.47039795 C45.7859385 166.47978951 43.35219909 166.48635848 40.91845703 166.49023438 C37.35553546 166.49971906 33.7932499 166.53070276 30.23046875 166.5625 C-6.59121248 166.73772653 -43.23194902 162.46993052 -79.7989502 158.58325195 C-89.16585255 157.58867207 -98.53400064 156.60590165 -107.90234375 155.625 C-108.89812817 155.5204953 -109.89391258 155.4159906 -110.91987228 155.30831909 C-128.93013307 153.42146646 -146.95351364 151.75014724 -165 150.25 C-164.97537689 151.21030121 -164.97537689 151.21030121 -164.95025635 152.19000244 C-164.90501304 153.95449148 -164.86046396 155.71899842 -164.81652832 157.48352051 C-164.76743424 159.34053771 -164.70673489 161.19725665 -164.63964844 163.05371094 C-164.6296582 163.85583008 -164.61966797 164.65794922 -164.609375 165.484375 C-164.5779541 166.70979004 -164.5779541 166.70979004 -164.54589844 167.95996094 C-165.18382243 171.17701851 -166.44850434 172.22203514 -169 174.25 C-171.96644592 174.75120544 -171.96644592 174.75120544 -175.46508789 174.75170898 C-176.77647232 174.76108994 -178.08785675 174.77047089 -179.4389801 174.78013611 C-180.8668788 174.7696589 -182.2947712 174.75829004 -183.72265625 174.74609375 C-185.18948946 174.74624875 -186.65632308 174.7477379 -188.12315369 174.75050354 C-191.19402214 174.7518869 -194.26442316 174.73933938 -197.33520508 174.71655273 C-201.27199596 174.68814259 -205.2080118 174.69091273 -209.14486027 174.70364285 C-212.17234422 174.71059576 -215.19964885 174.70281573 -218.22710991 174.69038582 C-219.6787796 174.68586927 -221.13046853 174.68553631 -222.58213997 174.68945122 C-224.60956111 174.69235992 -226.6369787 174.67370901 -228.66430664 174.65405273 C-229.8180629 174.64864975 -230.97181915 174.64324677 -232.16053772 174.63768005 C-235 174.25 -235 174.25 -236.65365696 173.09822178 C-238.57381996 170.46227614 -238.37756848 168.53465632 -238.38095093 165.29077148 C-238.3894104 164.04568817 -238.39786987 162.80060486 -238.40658569 161.51779175 C-238.40075261 160.13555778 -238.39460809 158.7533251 -238.38818359 157.37109375 C-238.39224807 155.91740524 -238.39758925 154.46371983 -238.40411377 153.01004028 C-238.41780809 149.05965244 -238.41248009 145.10949924 -238.40297651 141.15910721 C-238.39539083 137.02850961 -238.40242248 132.89793235 -238.40713501 128.76733398 C-238.41259575 121.83020412 -238.40539262 114.89317002 -238.39111328 107.95605469 C-238.37478612 99.93131175 -238.3800744 91.90679745 -238.3965925 83.88206005 C-238.41019831 76.99706405 -238.41213147 70.11213695 -238.40427649 63.22713184 C-238.39959498 59.11288008 -238.39898819 54.99873586 -238.40888596 50.88449097 C-238.41754025 47.01683706 -238.41156215 43.14947847 -238.39420319 39.28185654 C-238.39023007 37.86084357 -238.39138648 36.43980582 -238.39799118 35.01880264 C-238.40616336 33.08228685 -238.39410802 31.14571686 -238.38095093 29.20922852 C-238.37981985 28.12448746 -238.37868877 27.0397464 -238.37752342 25.9221344 C-238 23.25 -238 23.25 -236.66369057 21.44004822 C-233.29181109 19.02812184 -230.14103458 19.11459881 -226.13916016 19.08886719 C-224.93425934 19.07925964 -223.72935852 19.0696521 -222.48794556 19.05975342 C-221.18481415 19.05550354 -219.88168274 19.05125366 -218.5390625 19.046875 C-217.18769326 19.04112069 -215.83632404 19.03536299 -214.48495483 19.02960205 C-211.6520754 19.01910236 -208.81922427 19.01325292 -205.98632812 19.00976562 C-202.36253998 19.00428227 -198.73912782 18.98025378 -195.11545753 18.95179367 C-192.32385171 18.93313811 -189.53233595 18.92796016 -186.74067307 18.92642975 C-184.75705362 18.92194395 -182.77348244 18.90331245 -180.78994751 18.88446045 C-179.57874237 18.88746155 -178.36753723 18.89046265 -177.11962891 18.89355469 C-176.05612213 18.88990906 -174.99261536 18.88626343 -173.8968811 18.88250732 C-170.56832905 19.30476093 -168.68816668 20.27369794 -166 22.25 C-164.79970092 24.65059817 -164.88540257 26.14360649 -164.90234375 28.8203125 C-164.90717773 30.16416016 -164.90717773 30.16416016 -164.91210938 31.53515625 C-164.92467773 32.94087891 -164.92467773 32.94087891 -164.9375 34.375 C-164.94201172 35.31988281 -164.94652344 36.26476562 -164.95117188 37.23828125 C-164.96297643 39.57558387 -164.97944241 41.91276061 -165 44.25 C-130.9088264 49.24267048 -103.57040799 39.53032666 -72.5625 26.625 C-71.62175755 26.23353035 -70.68101509 25.8420607 -69.71176529 25.43872833 C-60.09526768 21.42511584 -50.51707309 17.32793436 -40.97094727 13.14990234 C-34.94376555 10.51670836 -28.90719835 7.90850346 -22.83959961 5.36962891 C-22.1672078 5.08360495 -21.494816 4.79758099 -20.80204868 4.50288963 C-13.9897126 1.67797544 -7.44310687 -0.0338323 0 0 Z M-21 25.25 C-25.75811171 31.81811386 -26.79754954 38.30868526 -26 46.25 C-23.9948343 54.3793766 -19.97207729 60.02771145 -12.96875 64.56640625 C-6.24152548 68.06407552 0.97951861 68.34323715 8.33203125 66.7421875 C16.3304855 64.08113389 21.17291573 58.53823219 25 51.25 C27.17872812 44.71381564 27.02203161 36.78110399 24.4375 30.375 C20.85454191 23.54733511 15.63467634 18.74307055 8.45703125 15.90625 C-3.29941134 12.76621446 -12.96844689 16.57734731 -21 25.25 Z M35 18.25 C36.37640745 21.71039792 36.37640745 21.71039792 37.81640625 25.14453125 C40.71673526 32.60035085 40.71886309 40.34908349 41 48.25 C49.94386374 47.65524541 58.76275692 46.53839859 67.61987305 45.203125 C69.82534814 44.87307729 72.03261434 44.55752692 74.24023438 44.2421875 C75.66679843 44.02952789 77.09323582 43.81601641 78.51953125 43.6015625 C79.78901611 43.41416504 81.05850098 43.22676758 82.36645508 43.03369141 C88.00807149 41.81689448 93.4952303 40.10275805 97 35.25 C98.13028081 31.18098907 98.26787933 28.98314342 96.8125 25 C94.31755758 21.21457011 92.27405026 19.67468342 88 18.25 C86.26654193 18.1621494 84.52986731 18.13235186 82.79418945 18.13647461 C81.73331619 18.13655014 80.67244293 18.13662567 79.579422 18.13670349 C77.86368233 18.14444542 77.86368233 18.14444542 76.11328125 18.15234375 C74.35506294 18.15446617 74.35506294 18.15446617 72.56132507 18.15663147 C68.81169093 18.16223612 65.06211615 18.17478944 61.3125 18.1875 C58.77278732 18.1925144 56.2330737 18.19707741 53.69335938 18.20117188 C47.46221927 18.21220706 41.23111388 18.22894975 35 18.25 Z M-47.54174805 31.78857422 C-48.54944496 32.1934053 -48.54944496 32.1934053 -49.57749939 32.60641479 C-51.03935235 33.19420489 -52.50056564 33.78358776 -53.96121788 34.37435532 C-56.27654884 35.31068485 -58.59356771 36.2427158 -60.91108704 37.1736145 C-66.67155383 39.48850984 -72.42903647 41.81079151 -78.18658447 44.13293457 C-83.04345362 46.09150521 -87.90145834 48.04720836 -92.76099586 49.99914932 C-95.03702225 50.9147245 -97.31133724 51.83446074 -99.58561707 52.75436401 C-100.9940882 53.32066124 -102.40263824 53.8867623 -103.8112793 54.45263672 C-105.03324509 54.94561249 -106.25521088 55.43858826 -107.51420593 55.94650269 C-110.98898784 57.24588205 -114.42206615 58.28222858 -118 59.25 C-117.45472656 59.90742188 -117.45472656 59.90742188 -116.8984375 60.578125 C-106.54930415 73.63395476 -101.79410993 87.97747566 -103.43359375 104.6484375 C-105.53118631 117.98623297 -112.01524111 128.38867927 -121 138.25 C-118.00708549 139.74645725 -114.8186956 139.80148489 -111.52905273 140.14208984 C-110.75581161 140.22519913 -109.9825705 140.30830841 -109.18589783 140.39393616 C-106.60221646 140.67039249 -104.01795577 140.94092281 -101.43359375 141.2109375 C-99.60651556 141.40395017 -97.77945389 141.59711916 -95.95240784 141.79043579 C-92.0879367 142.1982944 -88.22315308 142.60303294 -84.3581543 143.00585938 C-80.48036221 143.41033858 -76.60310255 143.81937132 -72.72631836 144.23339844 C-19.93022643 149.917143 -19.93022643 149.917143 33.10839844 151.64111328 C36.43204165 151.62471863 39.75451233 151.64132695 43.078125 151.66015625 C70.92140021 151.84722719 70.92140021 151.84722719 98 146.25 C99.44975404 144.6462912 99.44975404 144.6462912 99.76953125 142.50390625 C99.97143066 141.69969238 100.17333008 140.89547852 100.38134766 140.06689453 C100.68758057 138.67253174 100.68758057 138.67253174 101 137.25 C101.60448634 134.98732003 102.21282114 132.72566602 102.82421875 130.46484375 C103.44852972 128.03988851 104.06956508 125.61408784 104.6875 123.1875 C105.00783203 121.94033203 105.32816406 120.69316406 105.65820312 119.40820312 C106.44166985 116.35619097 107.22219312 113.30345853 108 110.25 C94.74625797 105.1660055 81.35541538 100.50506052 67.9375 95.875 C64.79980497 94.79006409 61.66231239 93.70454774 58.52505493 92.61834717 C56.45127398 91.90159821 54.37671294 91.18710216 52.30136108 90.47491455 C47.03552289 88.66488815 41.78892692 86.8160148 36.56298828 84.89355469 C35.52412979 84.51677582 34.4852713 84.13999695 33.41493225 83.75180054 C31.44675039 83.0365171 29.48287713 82.30921926 27.5243988 81.56777954 C22.23714448 79.6612121 18.61829146 78.84620113 13 80.25 C12.27619141 80.42998535 11.55238281 80.6099707 10.80664062 80.79541016 C10.21044922 80.9454248 9.61425781 81.09543945 9 81.25 C-4.8083905 82.21658734 -16.1207028 80.9638164 -27.2578125 71.90625 C-34.81193345 64.72475385 -39.72062786 55.34933906 -40.1328125 44.875 C-40.13023437 43.67875 -40.12765625 42.4825 -40.125 41.25 C-40.12886719 39.455625 -40.12886719 39.455625 -40.1328125 37.625 C-40.01757938 34.69672307 -39.67823563 32.09213024 -39 29.25 C-42.134474 29.25 -44.64520195 30.61999267 -47.54174805 31.78857422 Z M-224 34.25 C-224 75.83 -224 117.41 -224 160.25 C-209.48 160.25 -194.96 160.25 -180 160.25 C-180 154.97 -180 149.69 -180 144.25 C-183.55612363 141.08358854 -185.96908252 139.39824885 -190 137.25 C-199.75311331 129.44750935 -205.21876954 117.71084471 -207.75 105.6875 C-208.91066841 89.72830935 -206.15375837 74.97076731 -195.6015625 62.390625 C-191.76067118 58.39609802 -188.46594129 55.34158683 -183.375 53.125 C-182.26125 52.17625 -181.1475 51.2275 -180 50.25 C-180 44.97 -180 39.69 -180 34.25 C-194.52 34.25 -209.04 34.25 -224 34.25 Z M224.0625 51.75 C223.18803223 52.21889648 223.18803223 52.21889648 222.29589844 52.69726562 C220.17850798 53.85064962 218.08894243 55.04585444 216 56.25 C214.72842041 56.97896484 214.72842041 56.97896484 213.43115234 57.72265625 C208.42942352 60.60048432 203.44816149 63.51187117 198.4765625 66.44140625 C192.04826453 70.22898974 185.59077351 73.96433843 179.125 77.6875 C177.52132568 78.61175781 177.52132568 78.61175781 175.88525391 79.5546875 C173.70487801 80.81125279 171.5243759 82.06759909 169.34375 83.32373047 C164.73222575 85.98034016 160.1214786 88.63829557 155.51123047 91.29711914 C153.33335118 92.55312898 151.15530494 93.80884939 148.97705078 95.06420898 C141.97168057 99.10394615 134.98157172 103.16927676 128 107.25 C128.57409032 110.82364359 129.49945036 113.53384304 131.28515625 116.67578125 C131.73310547 117.47177734 132.18105469 118.26777344 132.64257812 119.08789062 C133.11115234 119.90451172 133.57972656 120.72113281 134.0625 121.5625 C134.53494141 122.39845703 135.00738281 123.23441406 135.49414062 124.09570312 C136.65667756 126.15069265 137.82542091 128.20187737 139 130.25 C148.70203689 124.75024256 158.10414247 118.81385372 167.51220703 112.83056641 C171.50278773 110.29523574 175.50165044 107.77305368 179.5 105.25 C184.19267858 102.28716403 188.88476822 99.32341184 193.57421875 96.35546875 C195.11192677 95.38272967 196.6496875 94.4100739 198.1875 93.4375 C198.9496582 92.95531006 199.71181641 92.47312012 200.49707031 91.97631836 C205.08274349 89.07938393 209.6794818 86.20097791 214.28515625 83.3359375 C215.35805908 82.66796143 216.43096191 81.99998535 217.53637695 81.31176758 C219.62869763 80.01008756 221.72222487 78.71034433 223.81713867 77.4128418 C233.42407954 71.94975696 233.42407954 71.94975696 241 64.25 C241.43711094 59.73318695 241.60690301 57.36670154 239.4375 53.375 C234.34175199 48.93255302 229.8675442 48.58225387 224.0625 51.75 Z M-184.75 72.12890625 C-190.79120915 79.60490257 -194.46999863 89.1471116 -194.26953125 98.82421875 C-193.0390668 109.89839877 -188.26199107 119.74495291 -179.8671875 127.125 C-170.53551212 133.81437304 -160.4201788 136.63762804 -149 135.25 C-136.58501799 132.14229058 -127.88236047 124.88096603 -121 114.25 C-116.6876593 106.12481752 -116.10235977 96.58258895 -118.2109375 87.7265625 C-121.4858857 77.44776467 -127.4855445 68.58692862 -137 63.25 C-153.76602399 54.76999448 -172.14256145 58.59279477 -184.75 72.12890625 Z M119 125.25 C117.68 130.53 116.36 135.81 115 141.25 C121.08928161 140.61182549 121.08928161 140.61182549 126 137.25 C124.02 133.29 122.04 129.33 120 125.25 C119.67 125.25 119.34 125.25 119 125.25 Z " fill="#000000" transform="translate(247,328.75)"/>
<path d="M0 0 C1.12855637 0.71277244 2.23681107 1.45969793 3.3125 2.25 C4.199375 2.8275 5.08625 3.405 6 4 C10.75647883 8.62792535 14.1658845 14.1233392 14.48046875 20.83203125 C14.49240768 22.24215199 14.49872151 23.6523293 14.5 25.0625 C14.51224609 25.76181641 14.52449219 26.46113281 14.53710938 27.18164062 C14.54959968 31.63235184 13.8033127 35.08850179 12.3125 39.25 C20.72270529 52.66477316 32.29159193 69.43131976 48.37374878 73.81139374 C60.49819931 76.34059957 73.11404445 76.12482074 85.4375 75.875 C86.29327385 75.8578532 87.1490477 75.84070641 88.03075409 75.82304001 C98.81058232 75.58067258 109.55961544 75.04515826 120.3125 74.25 C120.44114944 73.4720256 120.56979889 72.69405121 120.7023468 71.89250183 C121.48614088 68.49798175 122.91143654 67.13446561 125.35546875 64.67578125 C126.59586914 63.42764648 126.59586914 63.42764648 127.86132812 62.15429688 C129.1674707 60.87135742 129.1674707 60.87135742 130.5 59.5625 C131.35142578 58.69560547 132.20285156 57.82871094 133.08007812 56.93554688 C134.33014648 55.69321289 134.33014648 55.69321289 135.60546875 54.42578125 C136.74278442 53.29523315 136.74278442 53.29523315 137.90307617 52.1418457 C141.81269646 49.07206684 145.20029431 48.25 150.125 48.25 C154.59367844 48.93748899 157.74609757 51.23473732 161.33203125 53.875 C165.22026132 56.57452068 168.69934975 56.63442919 173.3125 56.25 C177.62499607 54.54444315 180.87849078 52.22417324 183.3125 48.25 C184.13469906 45.18869937 184.13469906 45.18869937 184.6875 41.875 C185.90521087 36.2240605 186.96819393 33.07712677 191.3125 29.25 C197.31952663 26.27172629 203.6269454 26.88170128 210.1875 26.875 C211.44175781 26.85050781 212.69601562 26.82601562 213.98828125 26.80078125 C220.91867443 26.77878 225.83879139 26.78259994 231.3125 31.25 C234.15984249 34.854231 234.88304319 38.27847381 235.6875 42.75 C236.87095774 48.23356075 237.72555383 51.00557466 242.3125 54.25 C242.910625 54.683125 243.50875 55.11625 244.125 55.5625 C248.23389244 56.8538662 252.25167421 57.09514674 256.24609375 55.45703125 C258.76573109 54.0427832 261.0396405 52.49557355 263.1875 50.5625 C266.62832732 48.43728312 270.30788521 47.82435981 274.3125 48.25 C280.89177271 50.54095703 285.37091702 54.75001077 290.125 59.6875 C290.77919922 60.34298828 291.43339844 60.99847656 292.10742188 61.67382812 C299.89009094 69.59959018 299.89009094 69.59959018 300.7109375 74.75 C300.64777192 81.48766232 299.40634457 84.67756239 295.125 89.9375 C292.63934233 94.48025368 292.52587631 98.17707989 293.3125 103.25 C294.60546724 107.14342945 296.48514349 109.66479662 299.875 112.0625 C302.96547934 113.13012014 305.65953054 113.6452727 308.875 114.125 C313.82094332 114.92468377 316.20658553 116.14217764 319.3125 120.25 C322.59325207 125.17112811 321.76249674 130.99938405 321.79296875 136.76367188 C321.81232019 138.97941178 321.87433098 141.19138633 321.9375 143.40625 C322.11491036 155.28567803 322.11491036 155.28567803 318.45703125 159.68359375 C315.07071286 162.86204017 311.62178491 163.82007994 307.109375 164.66015625 C302.19618489 165.62815231 298.92751688 166.52543715 295.3125 170.25 C292.62484256 174.79022132 292.32145503 179.1066936 293.3125 184.25 C294.85400294 187.0520107 294.85400294 187.0520107 296.8125 189.75 C300.02796149 194.34537614 301.05673538 197.38396551 300.8515625 202.9609375 C299.70799908 207.81693868 296.61409771 211.1984724 293.15234375 214.640625 C292.35892578 215.43210938 291.56550781 216.22359375 290.74804688 217.0390625 C289.51151367 218.25722656 289.51151367 218.25722656 288.25 219.5 C287.42177734 220.32757813 286.59355469 221.15515625 285.74023438 222.0078125 C278.29272195 229.40078659 278.29272195 229.40078659 272.0625 229.5625 C266.94534653 229.52241786 264.31420241 228.58475201 260.3125 225.25 C256.40713806 222.29459097 253.38727491 221.72267492 248.59375 221.8984375 C244.70856188 222.49718224 242.48476711 223.90252234 239.3125 226.25 C236.62534525 229.97566866 235.80376641 233.1922487 235.0625 237.6875 C233.89662946 243.13439782 232.59647693 245.97867933 228.12890625 249.296875 C222.67072785 252.16095141 216.42595679 251.43393968 210.4375 251.4375 C209.36113281 251.44974609 208.28476562 251.46199219 207.17578125 251.47460938 C199.25909437 251.48925183 193.23636931 251.00931739 187.3125 245.25 C185.96101921 242.83156068 185.37707719 240.64339367 184.9296875 237.91796875 C183.92972465 231.85455766 182.80725566 228.53071968 178.3125 224.25 C174.06393279 221.70961961 170.14995423 221.57177584 165.3125 222.25 C161.9632414 223.5779287 159.17895212 225.50161787 156.44921875 227.859375 C153.78483578 229.59341583 152.09755427 229.68307415 148.9375 229.6875 C148.02226562 229.70683594 147.10703125 229.72617188 146.1640625 229.74609375 C138.98431664 228.49701468 133.99105458 222.26362122 129.0625 217.3125 C128.34320313 216.60931641 127.62390625 215.90613281 126.8828125 215.18164062 C126.19445312 214.49392578 125.50609375 213.80621094 124.796875 213.09765625 C124.17522461 212.47898682 123.55357422 211.86031738 122.91308594 211.22290039 C121.11960178 209.01223147 120.31515591 206.8978922 119.3125 204.25 C108.05525776 203.18857989 96.79982788 202.46989963 85.5 202.0625 C84.67479858 202.03253937 83.84959717 202.00257874 82.99938965 201.97171021 C63.97199288 201.36060419 47.0611902 200.96645409 32.15312195 214.36665344 C24.5820917 221.87585249 18.07987934 230.29968018 12.3125 239.25 C12.63484619 240.16749023 12.95719238 241.08498047 13.28930664 242.03027344 C15.68251266 249.56107778 15.60895086 258.51334693 12.3125 265.75 C8.47187565 272.25201474 2.86761409 277.52315048 -4.4296875 279.8125 C-13.03714234 281.48038052 -21.07254433 280.71075393 -28.6875 276.25 C-34.22518149 272.14722638 -38.04294664 266.97332108 -39.6875 260.25 C-40.7663772 250.97776296 -40.39178032 242.90348163 -34.6875 235.25 C-28.69530277 228.70038908 -21.82594064 225.51127664 -13 225.0625 C-9.67988636 225.04380714 -7.12471058 225.74783106 -3.97607422 226.75097656 C-0.76724463 227.40182998 0.69446542 227.58648568 3.59832764 226.00549316 C5.98419937 223.93582934 8.10853127 221.75083692 10.2421875 219.421875 C11.03980499 218.60253479 11.83742249 217.78319458 12.65921021 216.93902588 C15.19841668 214.31953432 17.69316822 211.66219174 20.1875 209 C22.71144869 206.3611953 25.24378131 203.73077307 27.78005981 201.1038208 C29.35402964 199.46765764 30.91922401 197.82299727 32.47457886 196.16912842 C33.18276764 195.42205627 33.89095642 194.67498413 34.62060547 193.90527344 C35.238862 193.24638123 35.85711853 192.58748901 36.49411011 191.90863037 C40.78622483 187.9936109 44.75197071 187.94712913 50.38574219 187.93115234 C51.60093788 187.91608391 51.60093788 187.91608391 52.84068298 187.90071106 C55.51357323 187.86986534 58.18636324 187.8528401 60.859375 187.8359375 C62.71454735 187.81722697 64.56971119 187.79765364 66.42486572 187.7772522 C71.30412779 187.72591289 76.18341746 187.68629676 81.06280518 187.64910889 C86.04324175 187.60908055 91.02356334 187.55798286 96.00390625 187.5078125 C105.77335675 187.41103189 115.54287215 187.32663389 125.3125 187.25 C127.45104804 182.15533232 127.78453908 178.60973204 126.3125 173.25 C124.14782384 169.43758526 121.36575769 166.91512208 117.3125 165.25 C115.52813297 164.93463604 113.7349809 164.6665907 111.9375 164.4375 C106.5633462 163.51908653 103.97505741 162.28820432 100.3125 158.25 C97.80050546 153.91110034 98.3125 151.71968033 98.3125 146.25 C80.4925 146.58 62.6725 146.91 44.3125 147.25 C42.9925 149.89 41.6725 152.53 40.3125 155.25 C36.64854639 161.08518538 30.72454252 164.11265249 24.3125 166.25 C15.27390402 167.07275906 7.7706362 166.76369355 0.3125 161.25 C-5.36622115 156.10903654 -9.25519892 150.7243162 -10 143.015625 C-10.31196835 133.92954667 -8.74747863 128.05853784 -3.9375 120.5 C2.19251801 114.36998199 9.10555886 111.4188288 17.75390625 111.18359375 C25.07782137 111.56182411 31.76472958 113.97344343 37.203125 118.99609375 C40.49461903 122.71100812 43.3125 126.13586324 43.3125 131.25 C61.4625 131.25 79.6125 131.25 98.3125 131.25 C98.3125 128.94 98.3125 126.63 98.3125 124.25 C100.43222264 120.31337223 102.53646744 117.6173572 106.3125 115.25 C109.56242038 114.39082565 112.81601718 113.80033693 116.12109375 113.19140625 C121.06093456 111.73424391 123.59880482 109.46328181 126.1875 105.0625 C127.84241493 99.45417717 127.14295382 94.74136146 125.3125 89.25 C123.84507607 89.37990578 123.84507607 89.37990578 122.3480072 89.51243591 C109.99620482 90.57103791 97.63976696 91.26673073 85.25 91.6875 C84.2738184 91.7208847 83.2976368 91.75426941 82.29187393 91.78866577 C39.97759855 93.06908429 39.97759855 93.06908429 23.08644104 77.97715759 C14.71237244 69.6755106 7.47502984 60.2918593 1.3125 50.25 C0.39718506 50.57379639 -0.51812988 50.89759277 -1.46118164 51.23120117 C-8.0679845 53.31748103 -17.14536567 53.68531468 -23.6875 51.0625 C-24.6775 50.464375 -25.6675 49.86625 -26.6875 49.25 C-27.27789062 48.9096875 -27.86828125 48.569375 -28.4765625 48.21875 C-34.18280947 44.62502851 -37.56801158 39.60846525 -39.6875 33.25 C-40.84010374 16.2632662 -40.84010374 16.2632662 -35.6875 9.25 C-35.11 8.363125 -34.5325 7.47625 -33.9375 6.5625 C-25.62494489 -1.98095942 -11.06158618 -5.42443168 0 0 Z M-22.6875 17.25 C-25.51355874 21.4890881 -25.34762246 25.27124503 -24.6875 30.25 C-22.63642412 33.64488422 -20.98265379 35.05323081 -17.6875 37.25 C-12.86107185 37.95351326 -8.9038455 37.98487541 -4.6875 35.4375 C-0.70601693 31.08275289 -0.25535088 28.39071498 -0.36328125 22.6953125 C-0.81981769 19.25203768 -2.15590645 17.56459982 -4.6875 15.25 C-10.60887701 11.30241533 -17.83404762 11.94153646 -22.6875 17.25 Z M200.3125 42.25 C199.755625 44.9415625 199.755625 44.9415625 199.1875 47.6875 C196.82301128 56.98125428 192.80708064 63.13022241 184.5234375 68.09765625 C177.15335916 71.9389515 168.47823402 72.68453353 160.45703125 70.45703125 C156.27346041 68.84416273 152.83377597 67.04301208 149.3125 64.25 C145.40964233 65.83667578 142.97729018 68.38350481 140.0625 71.375 C138.72445312 72.74011719 138.72445312 72.74011719 137.359375 74.1328125 C136.68390625 74.83148438 136.0084375 75.53015625 135.3125 76.25 C136.7941926 80.07050783 138.50840758 83.66106916 140.41015625 87.28515625 C143.70021137 94.44921566 143.12460963 102.66844613 140.6875 110 C137.34241443 118.15364609 133.0398945 122.34359031 125.16796875 126.20703125 C121.3356796 127.60678666 117.29526608 128.36494087 113.3125 129.25 C113.3125 135.85 113.3125 142.45 113.3125 149.25 C115.54 149.62125 115.54 149.62125 117.8125 150 C126.90693312 151.87276056 133.10008975 155.38519871 138.3125 163.25 C142.36805398 171.14576881 144.00761018 179.37913061 141.51171875 188.0234375 C139.90989696 192.24136207 138.12755295 195.70900216 135.3125 199.25 C136.92260527 203.32376031 139.85072271 206.01507069 142.9375 209 C143.453125 209.50660156 143.96875 210.01320312 144.5 210.53515625 C145.76633339 211.77803902 147.0388144 213.01465276 148.3125 214.25 C149.07433594 213.74339844 149.07433594 213.74339844 149.8515625 213.2265625 C150.53992188 212.78054687 151.22828125 212.33453125 151.9375 211.875 C152.61039063 211.43414062 153.28328125 210.99328125 153.9765625 210.5390625 C161.37893493 206.45414126 169.05427189 206.31588611 177.3125 207.25 C184.69002715 209.60845862 191.3938902 213.38917818 195.3125 220.25 C197.64863176 225.50440639 199.18460494 230.6105247 200.3125 236.25 C206.9125 236.25 213.5125 236.25 220.3125 236.25 C220.621875 233.836875 220.621875 233.836875 220.9375 231.375 C222.48371556 223.08941731 225.80598963 216.629745 232.8125 211.75 C240.80310374 206.7703484 249.09257066 206.14581685 258.3125 207.25 C261.7467003 208.55393477 264.76220838 210.07277872 267.921875 211.9375 C270.29625214 213.49062941 270.29625214 213.49062941 273.3125 213.25 C275.47994966 211.30016577 277.49099724 209.3512891 279.5 207.25 C280.05880859 206.67765625 280.61761719 206.1053125 281.19335938 205.515625 C282.57323093 204.10037212 283.94376734 202.67602845 285.3125 201.25 C284.97476563 200.74210938 284.63703125 200.23421875 284.2890625 199.7109375 C283.62003906 198.67839844 283.62003906 198.67839844 282.9375 197.625 C282.49664062 196.95210937 282.05578125 196.27921875 281.6015625 195.5859375 C277.47779597 188.11317269 277.22483682 179.57748726 278.3125 171.25 C279.49718804 167.51658072 281.11718998 164.47914788 283.3125 161.25 C283.89 160.321875 284.4675 159.39375 285.0625 158.4375 C291.16998644 152.49966596 298.06680975 150.52750131 306.3125 149.25 C306.3125 142.65 306.3125 136.05 306.3125 129.25 C303.59 128.693125 303.59 128.693125 300.8125 128.125 C291.98437265 125.89200308 286.90942517 121.57548626 281.5390625 114.375 C277.35622345 107.12829796 277.21693628 98.3917034 278.3125 90.25 C279.53789826 86.56469445 281.15155745 83.46522058 283.3125 80.25 C283.9725 79.26 284.6325 78.27 285.3125 77.25 C281.0225 72.96 276.7325 68.67 272.3125 64.25 C270.30779058 65.25235471 268.30301816 66.25490759 266.3125 67.28515625 C265.6525 67.62417969 264.9925 67.96320313 264.3125 68.3125 C263.6525 68.65410156 262.9925 68.99570313 262.3125 69.34765625 C255.14368214 72.58202525 246.3680102 72.3337684 239.0625 69.6875 C231.01213766 65.97890611 226.11507826 60.87625213 222.22265625 52.97265625 C221.3125 50.25 221.3125 50.25 220.3125 42.25 C213.7125 42.25 207.1125 42.25 200.3125 42.25 Z M9.3125 129.25 C6.38214027 132.48090944 5.07007008 135.00470242 4.875 139.3125 C5.44115911 144.40793195 6.57257719 146.80834967 10.5 150.0625 C14.1782945 151.61555768 17.4173053 151.92211203 21.3125 151.25 C25.3363261 149.35196882 26.97991305 147.79045379 29.3125 144 C30.53116047 139.43002325 30.41802223 136.48769665 28.3125 132.25 C25.85273953 129.18476003 23.11061766 127.52169963 19.375 126.25 C15.27796192 126.25 12.86192221 127.21236873 9.3125 129.25 Z M-23.0625 245.375 C-25.33221401 249.39064786 -25.36034089 252.73704283 -24.6875 257.25 C-22.95878428 261.43531174 -20.85710522 263.48950002 -16.6875 265.25 C-11.79745324 265.79333853 -9.69246129 265.77109104 -5.3125 263.5 C-2.29213329 260.91111425 -0.99345132 259.02129709 -0.31640625 255.1015625 C-0.19412209 251.00144666 -0.28824107 248.12322605 -2.875 244.8125 C-9.72547579 238.57095539 -16.24400234 239.27423894 -23.0625 245.375 Z " fill="#000000" transform="translate(166.6875,10.75)"/>
<path d="M0 0 C10.9760223 10.32432097 18.28854884 23.56792171 18.96484375 38.79296875 C19.45055853 55.67556061 15.20438296 70.57681609 4 83.5625 C-6.94129914 94.85245966 -21.33552991 101.69869585 -37.08569336 102.00561523 C-53.65270027 101.96605942 -69.18043432 97.69456568 -81.25 85.625 C-92.16682713 72.6539312 -99.16455484 57.93027841 -98.6015625 40.60546875 C-96.57407012 23.41683891 -89.86521464 8.73413621 -76.5625 -2.625 C-53.18155337 -20.44936363 -22.01118762 -19.05886737 0 0 Z M-70.8125 12.5 C-78.86577626 21.41366903 -83.6721024 33.24893817 -83.46484375 45.29296875 C-82.27305872 58.22925348 -76.70742227 68.83009418 -67.25 77.625 C-56.25078105 85.88791571 -44.69667472 87.82175405 -31.25 86.625 C-20.86309013 84.34964969 -10.76904842 78.07792882 -4.25 69.625 C2.55662954 58.11332699 5.52581509 47.23512207 3.28515625 33.84765625 C1.00045534 25.29016703 -3.58584316 17.47645479 -10.25 11.625 C-10.71535156 11.14546875 -11.18070312 10.6659375 -11.66015625 10.171875 C-18.744723 3.27878303 -28.82440321 0.00289466 -38.58203125 -0.43359375 C-50.4519082 -0.17290831 -62.1090568 4.28920453 -70.8125 12.5 Z " fill="#000000" transform="translate(416.25,106.375)"/>
<path d="M0 0 C2.86830829 2.01391859 4.61592935 3.45434983 5.48046875 6.93359375 C5.75945833 10.92239074 5.2667016 12.63132426 2.875 15.9375 C-0.35208593 18.25258338 -2.03760154 19 -6 19 C-9.97472063 17.47126129 -11.61853665 16.57219503 -14 13 C-14.34061873 9.9830912 -14.57212107 7.90592185 -14 5 C-9.52139324 -0.53932942 -6.92988354 -1.64437915 0 0 Z " fill="#000000" transform="translate(96,417)"/>
<path d="M0 0 C2.8650219 2.6446356 3.87399508 4.13596627 4.4375 8 C3.83788844 12.11162216 2.55442184 14.73343405 -0.6875 17.375 C-4.26671448 18.34235527 -7.44732113 17.9994189 -11 17 C-13.99379675 14.92737148 -14.8116114 13.57772504 -15.9375 10.125 C-16.01682631 6.15868456 -15.24713555 4.26197096 -13 1 C-8.24163751 -2.46062726 -5.32067711 -2.36474538 0 0 Z " fill="#000000" transform="translate(253,362)"/>
</svg>
