<?xml version="1.0" encoding="UTF-8"?>
<svg version="1.1" xmlns="http://www.w3.org/2000/svg" width="512" height="512">
<path d="M0 0 C4.41218108 3.04492228 8.89198603 4.2318152 14 5.625 C45.28708702 14.63982581 72.79274709 31.27026258 96 54 C96.86753906 54.81726563 97.73507812 55.63453125 98.62890625 56.4765625 C132.11632157 88.65382855 152.47676367 136.52496935 154.28417969 182.68359375 C154.56777648 189.72167336 155.18602612 194.92147913 159 201 C161.79605572 209.26189367 160.76453256 219.47445909 157.45703125 227.3984375 C152.47769662 236.28915296 145.15607391 242.41444896 135.875 246.3125 C124.54374443 248.32288405 113.96381659 247.78067525 104.30859375 241.15234375 C97.10537935 235.2373346 91.71587756 227.30954849 90 218 C89.00255427 206.99539385 91.23347928 197.41462876 98.31640625 188.77734375 C105.55906053 181.13138621 114.47436087 176.87511515 125.0625 176.5625 C130.70783592 176.7469881 135.72478644 178.03930115 141 180 C140.67 179.34 140.34 178.68 140 178 C139.68815855 175.89507021 139.38093158 173.78931962 139.10083008 171.67993164 C132.77622337 124.49405236 109.11824058 80.19535817 71.16796875 50.89819336 C69.45094871 49.5911072 67.7272089 48.29358032 66 47 C65.15695312 46.36191406 64.31390625 45.72382813 63.4453125 45.06640625 C49.2872601 34.74580577 33.24732229 27.37715411 17 21 C17.34933594 22.01320312 17.69867188 23.02640625 18.05859375 24.0703125 C18.51847229 25.42179229 18.97809409 26.77335947 19.4375 28.125 C19.66759766 28.79015625 19.89769531 29.4553125 20.13476562 30.140625 C23.34812343 39.64098722 25.75158176 53.18977277 21.375 62.6875 C18.61846385 67.12150121 14.99148977 70.33617008 10 72 C8.58179454 72.09644005 7.15955609 72.13912602 5.73809814 72.14717102 C4.86901825 72.15432632 3.99993835 72.16148163 3.10452271 72.16885376 C2.15382904 72.17154266 1.20313538 72.17423157 0.22363281 72.17700195 C-1.28171524 72.18685875 -1.28171524 72.18685875 -2.81747437 72.19691467 C-6.14394198 72.21665105 -9.47036445 72.22831107 -12.796875 72.23828125 C-14.50072231 72.24439454 -14.50072231 72.24439454 -16.23899078 72.25063133 C-22.25112222 72.27149351 -28.26323082 72.28579462 -34.27539062 72.29516602 C-40.48401153 72.30623072 -46.69227406 72.34063132 -52.90076828 72.38033772 C-57.67576767 72.40648726 -62.45068146 72.4148564 -67.22574615 72.41844749 C-69.51425853 72.42331771 -71.80276697 72.434944 -74.09120941 72.45348549 C-77.29644645 72.47784078 -80.50075338 72.47691813 -83.70605469 72.4699707 C-84.64865143 72.48278076 -85.59124817 72.49559082 -86.56240845 72.50878906 C-92.57341747 72.46137734 -96.06799754 71.48881675 -101 68 C-107.16260426 61.504282 -107.51336324 55.0637459 -107.328125 46.43359375 C-106.8941011 38.13380614 -104.84162432 29.37768773 -101 22 C-108.1768302 23.92870695 -114.75810717 26.50595195 -121.4375 29.75 C-122.82424927 30.42023193 -122.82424927 30.42023193 -124.23901367 31.10400391 C-130.81034785 34.32448494 -137.0496275 37.72050574 -143 42 C-143.59586914 42.42506836 -144.19173828 42.85013672 -144.80566406 43.28808594 C-154.10794293 49.96136034 -162.75641998 57.06173776 -171 65 C-171.94359375 65.86625 -171.94359375 65.86625 -172.90625 66.75 C-201.09152143 93.3398787 -216.38047606 131.68995598 -223 169 C-223.375698 171.06521415 -223.75198436 173.13032137 -224.12890625 175.1953125 C-224.41946854 176.79683914 -224.70990912 178.3983879 -225 180 C-224.35587158 179.76933838 -223.71174316 179.53867676 -223.0480957 179.30102539 C-213.2500549 175.88581538 -204.18076168 175.77291677 -194.53515625 179.7421875 C-185.45144884 184.24905004 -179.47606095 190.89165259 -175.625 200.25 C-172.32418356 210.29113908 -173.30920413 219.58945272 -178 229 C-183.11967731 237.42733399 -190.39576514 243.55172822 -199.83203125 246.58984375 C-209.09179083 248.34169016 -218.72932366 247.63207549 -227 243 C-235.38830565 236.8830264 -242.14579023 229.45100052 -244 219 C-244.73095471 209.89117981 -244.00547122 202.28440835 -240 194 C-239.67 193.67 -239.34 193.34 -239 193 C-238.83119346 191.3571642 -238.72338806 189.70800437 -238.640625 188.05859375 C-235.69204565 137.27576687 -217.06435455 92.75605587 -182 56 C-181.20078125 55.14792969 -180.4015625 54.29585938 -179.578125 53.41796875 C-156.47336418 29.44489176 -125.68670582 13.02940993 -93.75 4.4375 C-87.8997652 2.85106383 -83.71480959 0.79763507 -79.16015625 -3.23046875 C-55.46316843 -22.64228699 -22.91483855 -15.99545593 0 0 Z M-77 12 C-77.60328125 12.47566406 -78.2065625 12.95132813 -78.828125 13.44140625 C-86.81533592 20.33127513 -93.17070679 33.49561937 -94 44 C-94.90211478 51.25013761 -94.90211478 51.25013761 -92.66796875 57.7890625 C-88.63382627 60.71783105 -84.0446193 60.15482226 -79.29345703 60.16113281 C-78.40372192 60.16609772 -77.51398682 60.17106262 -76.59729004 60.17617798 C-73.65078969 60.19079585 -70.70434317 60.19760071 -67.7578125 60.203125 C-65.71141559 60.20887641 -63.6650187 60.21463414 -61.61862183 60.22039795 C-57.32631173 60.23090663 -53.03402037 60.23675029 -48.74169922 60.24023438 C-43.24140846 60.24572125 -37.74136498 60.26975406 -32.24115181 60.29820633 C-28.01353227 60.31682794 -23.78597237 60.32203804 -19.55831528 60.32357025 C-17.53052289 60.32659798 -15.50273158 60.33463053 -13.4749794 60.34775543 C-10.63823864 60.36480711 -7.80210322 60.36293788 -4.96533203 60.35644531 C-4.1277536 60.3656601 -3.29017517 60.37487488 -2.42721558 60.3843689 C2.64366289 60.34800649 6.23723152 59.76276848 10 56 C11.23943213 41.96104762 7.50062376 29.49315211 -1.0390625 18.3359375 C-11.4659222 6.1405645 -23.31741262 -0.03550835 -39.1953125 -1.80859375 C-53.61772486 -2.53415659 -66.29687519 2.5206821 -77 12 Z M-227 199 C-230.9018404 204.71843495 -232.15979425 210.14478755 -231 217 C-228.81871562 224.11014811 -225.41220911 228.13052933 -219.0859375 231.94140625 C-213.66737925 234.69127383 -207.65827855 235.02562452 -201.8125 233.38671875 C-195.31103048 230.50423129 -190.61172678 225.36360371 -187.5625 219 C-186.13105 211.36559998 -186.77272901 205.5888749 -191 199 C-196.27732008 193.09389285 -201.41321815 190.07412616 -209.375 189.625 C-216.72232506 189.81053851 -222.3993939 193.37703699 -227 199 Z M106.6328125 199.734375 C102.99703648 204.77923168 102.28651138 209.88931525 103 216 C104.38016699 222.5620667 107.7780775 226.89628544 113 231 C118.53502951 234.23747009 123.72837489 234.96270847 130 234 C137.11010308 231.83241335 141.13465357 228.40536264 144.94140625 222.0859375 C147.68418525 216.68134716 148.12579425 210.53646237 146.28125 204.7421875 C143.1983476 198.20345095 138.73430236 193.76106839 132.171875 190.7265625 C121.67348818 187.21451223 113.2450634 191.69595234 106.6328125 199.734375 Z " fill="#000000" transform="translate(298,107)"/>
<path d="M0 0 C14.31343511 12.33347867 22.03764159 28.90721795 23.62890625 47.58984375 C23.96899192 57.86920725 21.6609412 63.07281911 15.3125 70.875 C55.60946787 100.06270104 104.18754643 112.98098385 153.6875 105.6875 C183.05972109 100.84256604 211.83117674 89.39110953 235.3125 70.875 C234.69761719 70.09576172 234.69761719 70.09576172 234.0703125 69.30078125 C233.53148437 68.60339844 232.99265625 67.90601563 232.4375 67.1875 C231.90382813 66.50300781 231.37015625 65.81851563 230.8203125 65.11328125 C225.22666383 56.80975616 226.63609767 46.44193054 228.3125 37 C232.55482834 19.33684789 242.89319849 4.50931392 258.3125 -5.125 C273.37744464 -14.31633653 290.92619482 -16.39803386 308.0625 -13.0625 C325.44186194 -8.37248303 339.62168579 2.3653701 349 17.625 C356.25975322 30.51310122 360.18495209 46.8660738 356.6640625 61.5859375 C354.50126532 66.41063891 350.91430354 69.38725006 346.3125 71.875 C342.51258409 73.14163864 338.99391151 72.95479606 335.04003906 72.88989258 C333.28933206 72.87045362 331.53861961 72.85149984 329.78790283 72.83296204 C328.85844093 72.8218017 327.92897903 72.81064137 326.97135162 72.79914284 C320.9913874 72.73793912 315.01103997 72.73783975 309.03081131 72.72653675 C303.78780598 72.71315089 298.54662436 72.67862484 293.30419922 72.59741211 C288.22306118 72.51990509 283.14469082 72.50220692 278.06304169 72.5232296 C276.13827867 72.52079379 274.21341092 72.49744453 272.2891922 72.45160866 C259.40449811 72.16019474 251.82122937 73.97297927 242.33415222 82.97569275 C241.81945216 83.48027102 241.3047521 83.9848493 240.77445507 84.50471783 C237.6803815 87.40477539 234.0171498 89.49220958 230.375 91.625 C229.62758545 92.07125732 228.8801709 92.51751465 228.11010742 92.97729492 C209.57549283 103.89462305 190.20052011 111.7538767 169.3125 116.875 C168.44141602 117.08962891 167.57033203 117.30425781 166.67285156 117.52539062 C139.69148089 123.82804673 108.18267321 123.49561981 81.3125 116.875 C80.39500977 116.65005859 79.47751953 116.42511719 78.53222656 116.19335938 C50.67933556 109.15500265 19.97870286 96.31307664 -0.8087616 75.77966309 C-4.61659757 73.26028008 -7.88606337 73.33030802 -12.2980957 73.39257812 C-13.58201706 73.38670937 -13.58201706 73.38670937 -14.89187622 73.38072205 C-16.74593178 73.37475545 -18.60003425 73.37790191 -20.45406532 73.3891449 C-23.39321975 73.40642603 -26.33139216 73.39888775 -29.27055359 73.3848877 C-36.57129112 73.35525457 -43.87184064 73.36840829 -51.17260742 73.38006592 C-57.34156031 73.38828452 -63.51008402 73.380265 -69.67897606 73.35093689 C-72.56623234 73.34386524 -75.45272409 73.36049434 -78.33992004 73.37805176 C-80.12285771 73.37234068 -81.90579229 73.36552183 -83.6887207 73.35742188 C-84.88211815 73.37439369 -84.88211815 73.37439369 -86.09962463 73.39170837 C-92.44811545 73.323113 -97.92930408 71.59805967 -102.52734375 67.05859375 C-102.88957031 66.48238281 -103.25179687 65.90617187 -103.625 65.3125 C-104.00527344 64.73371094 -104.38554688 64.15492188 -104.77734375 63.55859375 C-109.3451458 55.10914018 -107.16276721 40.93616245 -104.7890625 32.0625 C-98.33129865 13.3762046 -86.34229506 -0.34119455 -68.6875 -9.125 C-45.36576362 -18.47063528 -20.0893136 -15.40830849 0 0 Z M-81.6875 16.875 C-89.16855715 26.5487808 -93.70530499 37.66888156 -94 49.9375 C-94.03738281 50.95972656 -94.07476562 51.98195313 -94.11328125 53.03515625 C-93.89169397 55.90551018 -93.89169397 55.90551018 -92.23608398 58.0201416 C-88.44084407 60.78231569 -85.06941624 60.43490936 -80.484375 60.39257812 C-79.55387329 60.3995874 -78.62337158 60.40659668 -77.66467285 60.41381836 C-74.58864507 60.43142461 -71.51353715 60.41976606 -68.4375 60.40625 C-66.30045393 60.40894415 -64.16340906 60.41282593 -62.02636719 60.41784668 C-57.54740733 60.4237453 -53.06876653 60.41516683 -48.58984375 60.39648438 C-42.84607548 60.37369487 -37.1030548 60.38681597 -31.35931396 60.41077423 C-26.94639443 60.42522221 -22.5336524 60.42063076 -18.12072754 60.41026306 C-16.00280672 60.40759302 -13.88486983 60.41087524 -11.76696777 60.42018127 C-8.80775205 60.43033018 -5.84975021 60.4148686 -2.890625 60.39257812 C-2.01361938 60.40067505 -1.13661377 60.40877197 -0.23303223 60.41711426 C4.66238761 60.36354253 4.66238761 60.36354253 8.85449219 57.98449707 C11.67014186 53.91071592 10.86827222 49.61607727 10.3125 44.875 C7.49406872 29.86447837 1.06318477 17.47927627 -11.3125 8.1875 C-34.36470672 -7.23947448 -63.04550725 -3.32579419 -81.6875 16.875 Z M253.3125 15.875 C244.13799496 26.97906364 240.30326659 39.16585251 239.8515625 53.39453125 C240.4937927 56.85060054 241.47616843 57.78391931 244.3125 59.875 C247.37618657 60.47607895 250.40175377 60.42132683 253.515625 60.39257812 C254.44612671 60.3995874 255.37662842 60.40659668 256.33532715 60.41381836 C259.41135493 60.43142461 262.48646285 60.41976606 265.5625 60.40625 C267.69954607 60.40894415 269.83659094 60.41282593 271.97363281 60.41784668 C276.45259267 60.4237453 280.93123347 60.41516683 285.41015625 60.39648438 C291.15392452 60.37369487 296.8969452 60.38681597 302.64068604 60.41077423 C307.05360557 60.42522221 311.4663476 60.42063076 315.87927246 60.41026306 C317.99719328 60.40759302 320.11513017 60.41087524 322.23303223 60.42018127 C325.19224795 60.43033018 328.15024979 60.4148686 331.109375 60.39257812 C331.98638062 60.40067505 332.86338623 60.40877197 333.76696777 60.41711426 C338.65658423 60.36015605 338.65658423 60.36015605 342.85668945 58.00476074 C346.20497533 53.10642571 344.69984404 46.38793448 343.83984375 40.80859375 C340.78260975 26.76728548 332.8997256 15.02032244 320.9375 7 C298.75731422 -6.20842524 271.157326 -3.41113887 253.3125 15.875 Z " fill="#000000" transform="translate(130.6875,376.125)"/>
<path d="M0 0 C1.03673859 -0.00335861 2.07347717 -0.00671722 3.14163208 -0.01017761 C6.5569988 -0.01964887 9.97231629 -0.02162887 13.38769531 -0.02270508 C15.77272563 -0.02592056 18.15775574 -0.02928485 20.54278564 -0.03279114 C25.5392706 -0.03877302 30.53573828 -0.04063203 35.53222656 -0.04003906 C41.91509902 -0.03993755 48.29785996 -0.05358279 54.68070602 -0.07081127 C59.60683698 -0.08196443 64.53294127 -0.08395724 69.45908356 -0.08342934 C71.81125523 -0.08460472 74.16342769 -0.08900154 76.51558685 -0.0967617 C79.81515672 -0.10662761 83.11448829 -0.10365744 86.4140625 -0.09765625 C87.85306412 -0.10608551 87.85306412 -0.10608551 89.32113647 -0.11468506 C102.80009798 -0.05280998 115.7568697 2.91419773 125.87988281 12.39526367 C135.49294273 23.00277807 139.59145736 34.1289471 139.64282227 48.33105469 C139.64939346 49.13034897 139.65596466 49.92964325 139.66273499 50.75315857 C139.68236151 53.38516353 139.69410891 56.01711161 139.70410156 58.64916992 C139.70817709 59.55417677 139.71225262 60.45918362 139.71645164 61.39161491 C139.73727059 66.18522789 139.75158835 70.97881262 139.76098633 75.77246094 C139.77202102 80.69241567 139.80639896 85.61191448 139.84615803 90.53170872 C139.87246313 94.34188098 139.88069058 98.15194702 139.88426781 101.96220207 C139.88910066 103.77406824 139.90061884 105.58593074 139.9193058 107.39770699 C140.07751059 123.75748147 137.80344726 138.40789157 126.21582031 150.89526367 C114.85566574 161.45821441 102.35505355 163.59765154 87.29394531 163.41088867 C85.9588009 163.40995858 84.62365304 163.41136798 83.28851318 163.41497803 C77.67593932 163.42752041 72.06397944 163.41051712 66.45166016 163.35473633 C63.66753396 163.3283378 60.88450471 163.32059022 58.10028076 163.33270264 C55.49252729 163.34294475 52.88447701 163.32550318 50.27716064 163.27667236 C42.54765365 163.30178114 42.54765365 163.30178114 36.359375 167.48022461 C35.37450384 168.68555671 34.40697527 169.90549594 33.46582031 171.14526367 C32.16973084 172.30962717 30.86079406 173.46022014 29.52832031 174.58276367 C25.29551145 178.23651776 21.37952658 182.15511783 17.46582031 186.14526367 C12.87273382 190.82805889 8.22120495 195.33827409 3.23364258 199.60229492 C2.08517608 200.60468524 0.96677506 201.64299666 -0.11254883 202.71948242 C-2.99000049 205.48380513 -4.21884218 206.14526367 -8.28417969 206.14526367 C-11.53417969 205.14526367 -11.53417969 205.14526367 -13.53417969 202.14526367 C-13.77562132 199.17641902 -13.90725065 196.29339567 -13.94824219 193.32104492 C-13.96760834 192.45964401 -13.98697449 191.5982431 -14.00692749 190.71073914 C-14.06669999 187.95984799 -14.11309916 185.20891494 -14.15917969 182.45776367 C-14.19736163 180.59251106 -14.23641349 178.72727605 -14.27636719 176.86206055 C-14.37239959 172.28993781 -14.45643918 167.71773253 -14.53417969 163.14526367 C-15.41098389 162.89349365 -16.28778809 162.64172363 -17.19116211 162.38232422 C-18.3497876 162.03983643 -19.50841309 161.69734863 -20.70214844 161.34448242 C-21.84707764 161.0102124 -22.99200684 160.67594238 -24.17163086 160.33154297 C-33.86394159 156.91217625 -42.07151763 149.32166596 -47.06933594 140.40698242 C-50.92422545 132.28136983 -52.83887289 124.6618533 -52.80883789 115.71655273 C-52.81394882 114.91536011 -52.81905975 114.11416748 -52.82432556 113.28869629 C-52.83812683 110.66268255 -52.83727152 108.03693418 -52.83496094 105.41088867 C-52.83885395 103.5677684 -52.84318986 101.72464901 -52.84794617 99.88153076 C-52.85538873 96.02507618 -52.85513203 92.16871316 -52.84985352 88.31225586 C-52.84407112 83.39904455 -52.86096973 78.48621173 -52.88419819 73.5730629 C-52.89901823 69.7672104 -52.89979588 65.96144723 -52.89668846 62.15557098 C-52.89719784 60.34569298 -52.90236263 58.53580946 -52.91250038 56.72595978 C-52.9966906 39.59068526 -51.0974635 24.99407666 -38.53417969 12.14526367 C-26.78738162 2.427458 -14.8246819 -0.00694451 0 0 Z M-32.84667969 25.83276367 C-39.95525998 36.63387379 -40.11974649 47.10854693 -40.03027344 59.58666992 C-40.03042875 61.36303262 -40.03192307 63.13939566 -40.03468323 64.91575623 C-40.03606063 68.62156326 -40.02361908 72.32698017 -40.00073242 76.03271484 C-39.972329 80.75888194 -39.97509968 85.48440295 -39.98782253 90.21061802 C-39.99480982 93.87315799 -39.98695611 97.53555122 -39.97456551 101.19807243 C-39.97008206 102.93981296 -39.96968672 104.6815694 -39.97363091 106.42331123 C-39.99072814 120.61136638 -39.00113602 131.18025108 -28.94042969 141.83276367 C-22.64701634 147.76994608 -15.02717439 150.50936365 -6.44433594 150.77416992 C-3.82999668 151.28206814 -3.12449354 152.00029144 -1.53417969 154.14526367 C-1.10180664 157.23974609 -1.10180664 157.23974609 -1.02246094 161.00073242 C-1.00450974 161.66236893 -0.98655853 162.32400543 -0.96806335 163.00569153 C-0.9139707 165.11465114 -0.88007038 167.22338466 -0.84667969 169.33276367 C-0.81350542 170.76443576 -0.77901564 172.19607801 -0.74316406 173.62768555 C-0.65824712 177.13332757 -0.59143047 180.63904841 -0.53417969 184.14526367 C3.81373954 180.50707948 7.93779443 176.76756655 11.90332031 172.70776367 C15.64653235 168.90811808 19.48695114 165.30252752 23.54785156 161.84448242 C26.43905208 159.28303186 29.11463838 156.51959085 31.80175781 153.74682617 C34.9132732 150.75217521 37.29237197 151.01649134 41.50097656 151.00341797 C43.40435791 150.99286629 43.40435791 150.99286629 45.34619141 150.98210144 C46.02703796 150.98028555 46.70788452 150.97846966 47.40936279 150.97659874 C49.5462825 150.9694221 51.68297404 150.95374264 53.81982422 150.93525696 C59.89661343 150.88287384 65.97328333 150.83491177 72.05029297 150.81933594 C75.76815739 150.80918259 79.4854552 150.77966596 83.20309448 150.73801613 C84.61265755 150.72579546 86.02230103 150.72056835 87.43191528 150.72281456 C100.22018564 150.73816417 108.90100613 148.57317624 118.26269531 139.65307617 C124.91633006 132.0792579 126.60622781 124.14472982 126.64282227 114.31665039 C126.65267906 113.1570002 126.65267906 113.1570002 126.66273499 111.97392273 C126.68238699 109.42426439 126.69411419 106.87466481 126.70410156 104.32495117 C126.70817709 103.44962864 126.71225262 102.57430611 126.71645164 101.67245865 C126.7372807 97.03676849 126.75159451 92.40110763 126.76098633 87.76538086 C126.77202738 83.00101328 126.80640967 78.23711572 126.84615803 73.47291374 C126.87242904 69.78892203 126.88068755 66.10504041 126.88426781 62.42096329 C126.88910888 60.66605592 126.90065128 58.91115264 126.9193058 57.15633774 C127.04239989 44.80675221 126.39897811 33.9302098 118.21972656 23.92651367 C110.34572633 15.9297562 100.52303045 12.84156921 89.47888184 12.73867798 C88.04155701 12.74778702 88.04155701 12.74778702 86.57519531 12.75708008 C85.53641235 12.75182312 84.49762939 12.74656616 83.42736816 12.7411499 C80.02336195 12.72804016 76.61983056 12.73665611 73.21582031 12.74682617 C70.83268139 12.74480285 68.44954307 12.74188926 66.06640625 12.73812866 C61.0835986 12.73371751 56.10095282 12.74009751 51.11816406 12.75415039 C44.74976718 12.7712413 38.38174968 12.76139365 32.0133667 12.743433 C27.09583711 12.73256257 22.17839661 12.73605649 17.26086426 12.74381638 C14.91345168 12.74580936 12.56603087 12.74339098 10.21862793 12.73637772 C6.93101756 12.72870962 3.64401103 12.74044273 0.35644531 12.75708008 C-0.60177124 12.75100739 -1.55998779 12.74493469 -2.54724121 12.73867798 C-14.37889263 12.84890587 -25.17626239 16.45140117 -32.84667969 25.83276367 Z " fill="#000000" transform="translate(212.5341796875,212.854736328125)"/>
<path d="M0 0 C6.94948752 0.86261121 12.02969026 2.75972661 16.796875 8.15234375 C20.57670963 13.44411224 21.26918498 17.60421202 21.109375 24.02734375 C21.10035156 24.72021484 21.09132813 25.41308594 21.08203125 26.12695312 C21.05863657 27.8230677 21.02277141 29.51900246 20.984375 31.21484375 C21.99757813 31.18003906 23.01078125 31.14523437 24.0546875 31.109375 C25.4062333 31.0812178 26.75779719 31.05391972 28.109375 31.02734375 C28.77453125 31.00220703 29.4396875 30.97707031 30.125 30.95117188 C34.8646605 30.88147099 37.96346261 31.73133904 41.984375 34.21484375 C45.37608921 37.6958136 46.2843416 40.61238777 46.484375 45.33984375 C46.27577158 51.83061941 44.92921887 58.02234457 43.54882812 64.34472656 C42.08447768 71.18606909 41.25931213 77.96428999 40.84423828 84.94750977 C40.45075104 90.03441924 39.450971 93.24465441 35.984375 97.21484375 C30.98745636 100.37353473 26.97102653 100.64497758 21.25390625 100.578125 C20.42283859 100.5786235 19.59177094 100.57912201 18.73551941 100.57963562 C16.98145146 100.57730301 15.22737965 100.56762264 13.47338867 100.55102539 C10.82244021 100.52756995 8.17250943 100.53045408 5.52148438 100.53710938 C-15.44265804 100.50132723 -15.44265804 100.50132723 -22.015625 97.21484375 C-22.263125 97.99859375 -22.510625 98.78234375 -22.765625 99.58984375 C-24.25977299 102.72755453 -24.80022424 103.07272398 -28.015625 104.21484375 C-30.60400658 104.40645521 -33.081082 104.495274 -35.66796875 104.48046875 C-36.40511612 104.4823822 -37.14226349 104.48429565 -37.90174866 104.48626709 C-39.45753318 104.48762525 -41.01332918 104.48395458 -42.5690918 104.47558594 C-44.94150466 104.46489611 -47.31315771 104.47548546 -49.68554688 104.48828125 C-51.20052249 104.48695929 -52.71549764 104.48439614 -54.23046875 104.48046875 C-54.9358226 104.48451721 -55.64117645 104.48856567 -56.36790466 104.49273682 C-60.33652421 104.45524984 -63.49027727 104.09712985 -67.015625 102.21484375 C-68.47888954 99.28831467 -68.15912663 96.69399536 -68.17675781 93.42602539 C-68.18172272 92.72829514 -68.18668762 92.03056488 -68.19180298 91.31169128 C-68.20642958 88.9994509 -68.21322687 86.68727908 -68.21875 84.375 C-68.22450039 82.77078753 -68.23025814 81.16657509 -68.23602295 79.56236267 C-68.2465339 76.19725219 -68.25237616 72.83216561 -68.25585938 69.46704102 C-68.26134885 65.15139495 -68.28538592 60.83606363 -68.31383133 56.5205164 C-68.33243706 53.20656912 -68.33766216 49.89269803 -68.33919525 46.57870293 C-68.34222625 44.98745436 -68.35026982 43.39620728 -68.36338043 41.80500984 C-68.3804008 39.58078022 -68.37857116 37.35732463 -68.37207031 35.13305664 C-68.37571594 33.86667862 -68.37936157 32.6003006 -68.38311768 31.29554749 C-68.015625 28.21484375 -68.015625 28.21484375 -66.7411499 26.30770874 C-63.56305473 24.29485517 -59.72959702 24.76863977 -56.078125 24.78125 C-55.20164307 24.77600815 -54.32516113 24.7707663 -53.42211914 24.7653656 C-51.56950947 24.75894381 -49.71685904 24.76028445 -47.86425781 24.76879883 C-45.02595659 24.77731276 -42.18966499 24.74854464 -39.3515625 24.71679688 C-37.55208394 24.71518491 -35.7526018 24.71576231 -33.953125 24.71875 C-32.67804077 24.70189903 -32.67804077 24.70189903 -31.37719727 24.68470764 C-25.53017208 24.75405805 -25.53017208 24.75405805 -22.95703125 27.05834961 C-22.015625 29.21484375 -22.015625 29.21484375 -22.015625 32.21484375 C-21.108125 31.69921875 -20.200625 31.18359375 -19.265625 30.65234375 C-18.49992187 30.21728516 -18.49992187 30.21728516 -17.71875 29.7734375 C-12.17530651 24.70042385 -10.06069639 16.39903181 -7.57226562 9.53515625 C-7.28416016 8.76429688 -6.99605469 7.9934375 -6.69921875 7.19921875 C-6.32108032 6.15846191 -6.32108032 6.15846191 -5.93530273 5.09667969 C-4.55958057 2.28168993 -3.21195918 0.34235999 0 0 Z M3.984375 16.21484375 C3.62085938 17.20484375 3.25734375 18.19484375 2.8828125 19.21484375 C-1.23235283 30.150771 -4.51515828 38.18892836 -15.6484375 43.3046875 C-18.015625 44.21484375 -18.015625 44.21484375 -22.015625 45.21484375 C-22.015625 57.75484375 -22.015625 70.29484375 -22.015625 83.21484375 C-13.95235616 86.23856956 -8.21198428 87.37178789 0.2265625 87.3125 C1.37912033 87.31037758 1.37912033 87.31037758 2.55496216 87.30821228 C4.98980739 87.30265058 7.42455794 87.29010535 9.859375 87.27734375 C11.51822783 87.27232379 13.17708212 87.26776176 14.8359375 87.26367188 C18.8854527 87.25269373 22.93489784 87.23545581 26.984375 87.21484375 C27.05954346 86.62171387 27.13471191 86.02858398 27.2121582 85.41748047 C28.55839405 74.90198447 29.89330257 64.49196319 32.43359375 54.1875 C33.05879954 50.81316235 33.07437348 47.63907158 32.984375 44.21484375 C31.95497803 44.18511475 31.95497803 44.18511475 30.90478516 44.15478516 C27.80591721 44.0597343 24.70774206 43.94997528 21.609375 43.83984375 C19.98902344 43.7934375 19.98902344 43.7934375 18.3359375 43.74609375 C16.7890625 43.68808594 16.7890625 43.68808594 15.2109375 43.62890625 C14.25783691 43.59748535 13.30473633 43.56606445 12.32275391 43.53369141 C9.984375 43.21484375 9.984375 43.21484375 7.984375 41.21484375 C7.7890625 39.01586914 7.7890625 39.01586914 7.859375 36.3125 C7.87484375 35.33990234 7.8903125 34.36730469 7.90625 33.36523438 C7.95823457 31.31054437 8.01031752 29.25585686 8.0625 27.20117188 C8.08570313 25.7403418 8.08570313 25.7403418 8.109375 24.25 C8.13257813 23.35676025 8.15578125 22.46352051 8.1796875 21.54321289 C8.15015732 18.94004236 8.15015732 18.94004236 5.984375 16.21484375 C5.324375 16.21484375 4.664375 16.21484375 3.984375 16.21484375 Z M-55.015625 38.21484375 C-55.015625 55.70484375 -55.015625 73.19484375 -55.015625 91.21484375 C-48.415625 91.21484375 -41.815625 91.21484375 -35.015625 91.21484375 C-35.015625 73.72484375 -35.015625 56.23484375 -35.015625 38.21484375 C-41.615625 38.21484375 -48.215625 38.21484375 -55.015625 38.21484375 Z " fill="#000000" transform="translate(267.015625,242.78515625)"/>
<path d="M0 0 C9.23829354 5.33361911 15.66013363 12.30037602 18.69921875 22.74609375 C20.80204024 33.90321273 18.90433179 44.09414776 12.546875 53.50390625 C5.91204955 61.58180624 -2.49645108 66.00991509 -12.828125 67.25390625 C-23.33566616 67.55713517 -31.77898079 64.51099668 -39.9765625 58.01171875 C-47.45634226 50.91066202 -50.89369002 42.02913171 -51.265625 31.87890625 C-50.97448271 21.47056928 -47.32586603 12.56669352 -39.828125 5.25390625 C-28.38011561 -3.20056661 -13.26734664 -6.38880618 0 0 Z M-32.640625 17.06640625 C-36.92091481 23.30339998 -38.93459996 28.74747951 -37.828125 36.25390625 C-35.98184068 42.90272775 -32.71609557 47.61892639 -26.828125 51.25390625 C-20.88761893 54.21872921 -15.25853148 55.11564028 -8.828125 53.25390625 C-2.29044085 50.29722387 2.43080336 45.98477405 5.484375 39.44140625 C7.11124167 31.89866077 6.53917489 26.40871062 2.8046875 19.55859375 C-0.40929555 15.0221105 -4.5784412 12.00380085 -9.828125 10.25390625 C-19.26918827 9.40071387 -25.84093989 10.26672114 -32.640625 17.06640625 Z " fill="#000000" transform="translate(271.828125,17.74609375)"/>
</svg>
