<?xml version="1.0" encoding="UTF-8"?>
<svg version="1.1" xmlns="http://www.w3.org/2000/svg" width="512" height="512">
<path d="M0 0 C1.10794922 -0.01260864 2.21589844 -0.02521729 3.35742188 -0.03820801 C4.54916016 -0.03011108 5.74089844 -0.02201416 6.96875 -0.01367188 C8.19658203 -0.01749878 9.42441406 -0.02132568 10.68945312 -0.02526855 C13.28516459 -0.02799029 15.88090336 -0.02061099 18.4765625 -0.00390625 C22.45374599 0.01749738 26.42912282 -0.0037015 30.40625 -0.02929688 C32.92708733 -0.02665365 35.44792353 -0.02152878 37.96875 -0.01367188 C39.16048828 -0.0217688 40.35222656 -0.02986572 41.58007812 -0.03820801 C43.24200195 -0.01929504 43.24200195 -0.01929504 44.9375 0 C45.91138672 0.00318237 46.88527344 0.00636475 47.88867188 0.00964355 C51.27982566 0.67725289 52.44432128 1.74092988 54.46875 4.51757812 C54.97668457 7.09765625 54.97668457 7.09765625 54.98632812 10.04882812 C54.99893677 11.15677734 55.01154541 12.26472656 55.02453613 13.40625 C55.01239075 15.19385742 55.01239075 15.19385742 55 17.01757812 C55.0038269 18.24541016 55.00765381 19.47324219 55.01159668 20.73828125 C55.01431842 23.33399272 55.00693911 25.92973149 54.99023438 28.52539062 C54.96883075 32.50257412 54.99002963 36.47795094 55.015625 40.45507812 C55.01298177 42.97591545 55.00785691 45.49675166 55 48.01757812 C55.00809692 49.20931641 55.01619385 50.40105469 55.02453613 51.62890625 C55.00562317 53.29083008 55.00562317 53.29083008 54.98632812 54.98632812 C54.98314575 55.96021484 54.97996338 56.93410156 54.97668457 57.9375 C54.32671634 61.23904494 53.05337403 62.43335467 50.46875 64.51757812 C48.46875 65.04882812 48.46875 65.04882812 46.46875 65.01757812 C45.47875 65.03304687 45.47875 65.03304687 44.46875 65.04882812 C41.49992516 64.26023403 40.37479869 62.91011194 38.46875 60.51757812 C37.92285156 57.30957031 37.92285156 57.30957031 37.859375 53.56445312 C37.84283875 52.90423157 37.82630249 52.24401001 37.80926514 51.56378174 C37.76086549 49.46495186 37.73943481 47.36684591 37.71875 45.26757812 C37.69058317 43.84045853 37.66065472 42.41337254 37.62890625 40.98632812 C37.55511237 37.49690204 37.50548721 34.0076134 37.46875 30.51757812 C36.88822184 31.09902808 36.30769367 31.68047804 35.70957375 32.27954769 C21.59999817 46.41118383 7.4876732 60.54006909 -6.62773705 74.66587734 C-13.45370412 81.49700614 -20.278729 88.32907139 -27.1015625 95.16333008 C-33.04662426 101.11834242 -38.99342709 107.07160954 -44.94234908 113.0227657 C-48.09373923 116.17546231 -51.24423575 119.32904067 -54.3926506 122.48470879 C-57.35350636 125.45233064 -60.31667694 128.41762081 -63.28167152 131.38110733 C-64.37179891 132.47151078 -65.46106379 133.56277729 -66.5494175 134.6549511 C-68.03093178 136.1414118 -69.5154657 137.62478854 -71.00082397 139.10740662 C-71.83228125 139.93978568 -72.66373852 140.77216475 -73.52039146 141.62976742 C-76.69545884 144.61054706 -78.54705838 144.6408297 -82.80712891 144.63110352 C-84.45861435 144.63099022 -84.45861435 144.63099022 -86.14346313 144.63087463 C-87.33619843 144.62571335 -88.52893372 144.62055206 -89.7578125 144.61523438 C-90.97576508 144.61381943 -92.19371765 144.61240448 -93.44857788 144.61094666 C-97.3511599 144.60533451 -101.25368523 144.59277991 -105.15625 144.58007812 C-107.79687417 144.57506469 -110.43749924 144.57050151 -113.078125 144.56640625 C-119.56251945 144.55536113 -126.04688068 144.53861114 -132.53125 144.51757812 C-132.73705688 146.13369995 -132.73705688 146.13369995 -132.94702148 147.7824707 C-133.59190656 151.90536946 -134.90001546 155.42703201 -136.59375 159.20507812 C-136.90538086 159.9027832 -137.21701172 160.60048828 -137.53808594 161.31933594 C-148.15222035 184.37471447 -167.65869377 201.80476628 -191.03125 211.33007812 C-198.0202818 213.85838804 -206.17132715 216.71872775 -213.68293762 216.43682861 C-219.52091085 216.39786176 -222.5623804 217.89614388 -226.85742188 221.83789062 C-228.76521879 223.75384591 -230.63919538 225.68287413 -232.5 227.64257812 C-233.51018048 228.67211709 -234.5224667 229.69959371 -235.53674316 230.72509766 C-238.18656653 233.41472666 -240.8086478 236.12982215 -243.4251709 238.85180664 C-246.61866413 242.16399092 -249.84385707 245.44526113 -253.06446075 248.73104858 C-255.56688112 251.28526563 -258.06429565 253.84380979 -260.54772949 256.41650391 C-261.88051941 257.79298096 -261.88051941 257.79298096 -263.24023438 259.19726562 C-264.02281616 260.00921387 -264.80539795 260.82116211 -265.61169434 261.65771484 C-267.53125 263.51757813 -267.53125 263.51757813 -269.53125 264.51757812 C-271.16510137 264.23833964 -272.78553603 263.87936023 -274.39550781 263.48510742 C-293.94560704 259.15419367 -318.23433866 256.06316319 -336.14149475 267.130867 C-363.21150797 286.07679302 -385.64615617 313.53210434 -407.04378128 338.45421886 C-407.89342012 339.43860172 -407.89342012 339.43860172 -408.76022339 340.44287109 C-409.25045424 341.0158493 -409.74068508 341.58882751 -410.24577141 342.1791687 C-412.5914438 344.62142643 -413.902491 344.54751692 -417.40625 344.83007812 C-420.36093653 344.77098439 -421.42183393 344.58322776 -424.03125 343.01757812 C-425.72281465 340.19830371 -426.279184 337.94237349 -426.10953045 334.64442539 C-425.3952338 332.0173266 -424.30424762 330.73748134 -422.46626282 328.73802185 C-421.51123839 327.69417485 -421.51123839 327.69417485 -420.53692055 326.62924004 C-417.36281972 323.28740115 -414.1475015 319.99461781 -410.88354492 316.74047852 C-409.78955383 315.64385895 -409.78955383 315.64385895 -408.67346191 314.52508545 C-406.28870449 312.13596565 -403.90035471 309.75047594 -401.51171875 307.36523438 C-399.84485001 305.69769142 -398.17812969 304.03000009 -396.5115509 302.36216736 C-393.03251615 298.88166363 -389.55169214 295.40296204 -386.06958008 291.92553711 C-381.59931929 287.46099983 -377.13359859 282.99195234 -372.66918468 278.52156925 C-369.23530732 275.08408734 -365.79906297 271.64897956 -362.36208534 268.2145977 C-360.71345869 266.56663924 -359.0655776 264.91793456 -357.41844749 263.2684803 C-355.12536423 260.97286943 -352.82912081 258.68046807 -350.53198242 256.38891602 C-349.8488649 255.70377426 -349.16574738 255.01863251 -348.46192932 254.31272888 C-347.83823456 253.69185394 -347.21453979 253.070979 -346.57194519 252.43128967 C-346.02980472 251.88952622 -345.48766424 251.34776278 -344.92909527 250.78958225 C-342.88099676 248.92586399 -341.86855484 248.51067408 -339.06965637 248.56796265 C-338.03064682 248.64592072 -336.99163727 248.72387878 -335.92114258 248.80419922 C-299.29946798 252.74435954 -299.29946798 252.74435954 -266.421875 240.62304688 C-258.34782805 233.38546215 -250.41057278 224.27622368 -245.53125 214.51757812 C-246.70171875 214.40671875 -247.8721875 214.29585937 -249.078125 214.18164062 C-269.14157579 211.64944609 -289.66422425 196.35168198 -301.82958984 180.86474609 C-308.5661487 171.80801269 -313.7496982 162.14722339 -317.53125 151.51757812 C-317.75570801 150.88754883 -317.98016602 150.25751953 -318.21142578 149.60839844 C-326.07531477 126.17968236 -322.93137859 99.26839838 -312.4453125 77.24023438 C-300.10816653 52.59757613 -278.58081558 36.05469077 -252.8515625 27.25976562 C-228.24096206 19.89273581 -200.99549056 23.64990478 -178.53125 35.51757812 C-155.60698696 48.74830709 -138.91756241 69.81729776 -131.7310791 95.33392334 C-129.72490189 102.95496839 -129.31976813 110.21791666 -129.4296875 118.08007812 C-129.44068481 119.59311523 -129.44068481 119.59311523 -129.4519043 121.13671875 C-129.47085331 123.59717521 -129.49744382 126.05728863 -129.53125 128.51757812 C-115.00520844 132.15533493 -97.4095558 134.22701474 -83.81262589 126.54681683 C-73.88468082 120.19743578 -65.44575648 111.66948682 -57.171875 103.35742188 C-56.27237531 102.45377105 -56.27237531 102.45377105 -55.3547039 101.53186464 C-47.874658 93.98039881 -40.59260843 86.2506301 -33.37004614 78.45351851 C-27.12739876 71.72352776 -20.75619795 65.12095161 -14.37367296 58.52391613 C-1.28315072 44.98783435 11.64529851 31.30670417 24.46875 17.51757812 C23.5809082 17.50823242 22.69306641 17.49888672 21.77832031 17.48925781 C18.47529081 17.44517132 15.17354993 17.38353067 11.87109375 17.31005859 C10.44348063 17.28188202 9.01571247 17.26065085 7.58789062 17.24658203 C5.53174668 17.2251042 3.47745998 17.17843838 1.421875 17.12695312 C0.18598633 17.10600586 -1.04990234 17.08505859 -2.32324219 17.06347656 C-6.06263723 16.42715333 -7.2542946 15.48999944 -9.53125 12.51757812 C-10.0625 10.51757812 -10.0625 10.51757812 -10.03125 8.51757812 C-10.04671875 7.52757812 -10.04671875 7.52757812 -10.0625 6.51757812 C-8.67664018 1.3002235 -4.95665502 0.01619688 0 0 Z M-283.53125 65.51757812 C-299.72182829 82.33718226 -305.10056035 103.68730948 -304.80078125 126.41601562 C-304.17897931 146.4055695 -293.80623902 165.36945256 -279.75390625 179.26367188 C-263.88332085 193.25961095 -243.621036 201.00173936 -222.375 200.46289062 C-200.02070775 199.04489447 -179.5681284 189.22194134 -164.74609375 172.45117188 C-149.3759098 154.07012796 -144.66205032 132.04946696 -146.53125 108.51757812 C-148.23894511 94.64255532 -155.44099038 80.1027876 -164.53125 69.51757812 C-165.02753906 68.87949219 -165.52382813 68.24140625 -166.03515625 67.58398438 C-177.57854449 53.31468759 -195.58184071 44.31550454 -213.53125 41.51757812 C-214.82482422 41.28941406 -214.82482422 41.28941406 -216.14453125 41.05664062 C-241.07553703 37.65179917 -265.90915332 48.34091533 -283.53125 65.51757812 Z " fill="#000000" transform="translate(441.53125,47.482421875)"/>
<path d="M0 0 C1.10794922 -0.01260864 2.21589844 -0.02521729 3.35742188 -0.03820801 C4.54916016 -0.03011108 5.74089844 -0.02201416 6.96875 -0.01367188 C8.19658203 -0.01749878 9.42441406 -0.02132568 10.68945312 -0.02526855 C13.28516459 -0.02799029 15.88090336 -0.02061099 18.4765625 -0.00390625 C22.45374599 0.01749738 26.42912282 -0.0037015 30.40625 -0.02929688 C32.92708733 -0.02665365 35.44792353 -0.02152878 37.96875 -0.01367188 C39.16048828 -0.0217688 40.35222656 -0.02986572 41.58007812 -0.03820801 C43.24200195 -0.01929504 43.24200195 -0.01929504 44.9375 0 C45.91138672 0.00318237 46.88527344 0.00636475 47.88867188 0.00964355 C51.26911948 0.67514519 52.31363325 1.86389929 54.46875 4.51757812 C54.97014666 7.01032257 54.97014666 7.01032257 54.97211456 9.87121582 C54.98254555 10.96353264 54.99297654 12.05584946 55.00372362 13.18126678 C54.99033929 14.98066082 54.99033929 14.98066082 54.97668457 16.81640625 C54.98292453 18.09107002 54.9891645 19.3657338 54.99559355 20.67902374 C55.01232159 24.21969772 55.00402509 27.75994151 54.99164867 31.30061722 C54.98261456 35.11800327 54.99655973 38.9353143 55.00756836 42.75268555 C55.02537578 50.23192199 55.02150376 57.71099807 55.0099178 65.19024086 C55.00089246 71.26754703 54.99965556 77.34480819 55.00401306 83.42211914 C55.00462599 84.286335 55.00523893 85.15055085 55.00587043 86.04095507 C55.0071493 87.79647002 55.00844616 89.55198496 55.0097608 91.30749989 C55.0211731 107.77765007 55.00804271 124.24771128 54.98655933 140.71784687 C54.96868775 154.85686436 54.97179168 168.9957505 54.99023438 183.13476562 C55.01162962 199.54507359 55.02007441 215.95530351 55.00778532 232.36562347 C55.00651109 234.11476134 55.00525361 235.86389922 55.00401306 237.61303711 C55.00339596 238.47369671 55.00277886 239.33435632 55.00214306 240.22109652 C54.99868611 246.29268037 55.00452591 252.36421481 55.01393127 258.43579102 C55.02513771 265.83279055 55.0221399 273.22962025 55.0008083 280.62660027 C54.99027947 284.40231552 54.98620691 288.17774739 54.99940491 291.95346069 C55.01348095 296.04213832 54.99670008 300.1300974 54.97668457 304.21875 C54.98560746 305.41834602 54.99453034 306.61794205 55.00372362 307.85388947 C54.98807714 309.49236469 54.98807714 309.49236469 54.97211456 311.16394043 C54.97146515 312.1080352 54.97081574 313.05212997 54.97014666 314.02483368 C54.31599022 317.27703888 53.03057894 318.47616461 50.46875 320.51757812 C47.88867188 321.0255127 47.88867188 321.0255127 44.9375 321.03515625 C43.82955078 321.04776489 42.72160156 321.06037354 41.58007812 321.07336426 C40.38833984 321.06526733 39.19660156 321.05717041 37.96875 321.04882812 C36.12700195 321.05456848 36.12700195 321.05456848 34.24804688 321.0604248 C31.65233541 321.06314654 29.05659664 321.05576724 26.4609375 321.0390625 C22.48375401 321.01765887 18.50837718 321.03885775 14.53125 321.06445312 C12.01041267 321.0618099 9.48957647 321.05668503 6.96875 321.04882812 C5.77701172 321.05692505 4.58527344 321.06502197 3.35742188 321.07336426 C1.69549805 321.05445129 1.69549805 321.05445129 0 321.03515625 C-0.97388672 321.03197388 -1.94777344 321.0287915 -2.95117188 321.0255127 C-6.33161948 320.36001106 -7.37613325 319.17125696 -9.53125 316.51757812 C-10.03264666 314.02483368 -10.03264666 314.02483368 -10.03461456 311.16394043 C-10.04504555 310.07162361 -10.05547654 308.97930679 -10.06622362 307.85388947 C-10.05730073 306.65429344 -10.04837785 305.45469742 -10.03918457 304.21875 C-10.04542453 302.94408623 -10.0516645 301.66942245 -10.05809355 300.35613251 C-10.07482159 296.81545853 -10.06652509 293.27521474 -10.05414867 289.73453903 C-10.04511456 285.91715298 -10.05905973 282.09984195 -10.07006836 278.2824707 C-10.08787578 270.80323426 -10.08400376 263.32415818 -10.0724178 255.84491539 C-10.06339246 249.76760922 -10.06215556 243.69034806 -10.06651306 237.61303711 C-10.06712599 236.74882125 -10.06773893 235.8846054 -10.06837043 234.99420118 C-10.0696493 233.23868623 -10.07094616 231.48317129 -10.0722608 229.72765636 C-10.0836731 213.25750618 -10.07054271 196.78744497 -10.04905933 180.31730938 C-10.03118775 166.17829189 -10.03429168 152.03940575 -10.05273438 137.90039062 C-10.07412962 121.49008266 -10.08257441 105.07985274 -10.07028532 88.66953278 C-10.06901109 86.92039491 -10.06775361 85.17125703 -10.06651306 83.42211914 C-10.06589596 82.56145954 -10.06527886 81.70079993 -10.06464306 80.81405973 C-10.06118611 74.74247588 -10.06702591 68.67094144 -10.07643127 62.59936523 C-10.08763771 55.2023657 -10.0846399 47.805536 -10.0633083 40.40855598 C-10.05277947 36.63284073 -10.04870691 32.85740886 -10.06190491 29.08169556 C-10.07598095 24.99301793 -10.05920008 20.90505885 -10.03918457 16.81640625 C-10.04810746 15.61681023 -10.05703034 14.4172142 -10.06622362 13.18126678 C-10.05579263 12.08894997 -10.04536164 10.99663315 -10.03461456 9.87121582 C-10.03396515 8.92712105 -10.03331574 7.98302628 -10.03264666 7.01032257 C-8.91044135 1.43116479 -5.23818562 0.01711684 0 0 Z M6.46875 16.51757812 C6.46875 111.55757813 6.46875 206.59757813 6.46875 304.51757812 C17.02875 304.51757812 27.58875 304.51757812 38.46875 304.51757812 C38.46875 209.47757812 38.46875 114.43757812 38.46875 16.51757812 C27.90875 16.51757812 17.34875 16.51757812 6.46875 16.51757812 Z " fill="#000000" transform="translate(441.53125,143.482421875)"/>
<path d="M0 0 C1.10794922 -0.01260864 2.21589844 -0.02521729 3.35742188 -0.03820801 C4.54916016 -0.03011108 5.74089844 -0.02201416 6.96875 -0.01367188 C8.19658203 -0.01749878 9.42441406 -0.02132568 10.68945312 -0.02526855 C13.28516459 -0.02799029 15.88090336 -0.02061099 18.4765625 -0.00390625 C22.45374599 0.01749738 26.42912282 -0.0037015 30.40625 -0.02929688 C32.92708733 -0.02665365 35.44792353 -0.02152878 37.96875 -0.01367188 C39.16048828 -0.0217688 40.35222656 -0.02986572 41.58007812 -0.03820801 C43.24200195 -0.01929504 43.24200195 -0.01929504 44.9375 0 C45.91138672 0.00318237 46.88527344 0.00636475 47.88867188 0.00964355 C51.42188979 0.70522076 52.34717154 1.58549229 54.46875 4.51757812 C55.0753694 7.80173795 55.00795775 11.05511562 54.97668457 14.38671875 C54.98292453 15.40003517 54.9891645 16.41335159 54.99559355 17.45737457 C55.01158681 20.86309367 54.99889413 24.26810334 54.98632812 27.67382812 C54.99174641 30.11125101 54.9988674 32.54867061 55.00756836 34.98608398 C55.02394058 40.92527057 55.02150802 46.86427196 55.0099178 52.80345345 C55.0008887 57.62980942 54.99965719 62.45610871 55.00401306 67.2824707 C55.00462599 67.96906344 55.00523893 68.65565618 55.00587043 69.36305475 C55.00714932 70.75780171 55.00844617 72.15254865 55.0097608 73.54729557 C55.02117032 86.62960681 55.00804711 99.71180599 54.98655933 112.79409885 C54.96868797 124.02229391 54.97179198 135.25032356 54.99023438 146.47851562 C55.01163457 159.51361567 55.02007165 172.54861745 55.00778532 185.5837326 C55.00651111 186.97338357 55.00525362 188.36303455 55.00401306 189.75268555 C55.00339596 190.43644209 55.00277886 191.12019864 55.00214306 191.82467508 C54.99868759 196.64591738 55.00452271 201.46709742 55.01393127 206.28833008 C55.02631322 212.77589673 55.01751314 219.26322414 54.99435425 225.75076294 C54.98905272 228.13566568 54.99060544 230.52059466 54.99940491 232.90548706 C55.01028657 236.1534964 54.99668528 239.40049321 54.97668457 242.6484375 C54.98560746 243.59901283 54.99453034 244.54958817 55.00372362 245.52896881 C54.92747948 251.88360005 54.92747948 251.88360005 52.59825897 255.1026535 C49.88113726 256.90800979 48.19013657 257.0245276 44.9375 257.03515625 C43.82955078 257.04776489 42.72160156 257.06037354 41.58007812 257.07336426 C40.38833984 257.06526733 39.19660156 257.05717041 37.96875 257.04882812 C36.12700195 257.05456848 36.12700195 257.05456848 34.24804688 257.0604248 C31.65233541 257.06314654 29.05659664 257.05576724 26.4609375 257.0390625 C22.48375401 257.01765887 18.50837718 257.03885775 14.53125 257.06445312 C12.01041267 257.0618099 9.48957647 257.05668503 6.96875 257.04882812 C5.77701172 257.05692505 4.58527344 257.06502197 3.35742188 257.07336426 C1.69549805 257.05445129 1.69549805 257.05445129 0 257.03515625 C-0.97388672 257.03197388 -1.94777344 257.0287915 -2.95117188 257.0255127 C-6.48438979 256.32993549 -7.40967154 255.44966396 -9.53125 252.51757812 C-10.1378694 249.2334183 -10.07045775 245.98004063 -10.03918457 242.6484375 C-10.04542453 241.63512108 -10.0516645 240.62180466 -10.05809355 239.57778168 C-10.07408681 236.17206258 -10.06139413 232.76705291 -10.04882812 229.36132812 C-10.05424641 226.92390524 -10.0613674 224.48648564 -10.07006836 222.04907227 C-10.08644058 216.10988568 -10.08400802 210.17088429 -10.0724178 204.2317028 C-10.0633887 199.40534683 -10.06215719 194.57904754 -10.06651306 189.75268555 C-10.06712599 189.06609281 -10.06773893 188.37950007 -10.06837043 187.6721015 C-10.06964932 186.27735454 -10.07094617 184.8826076 -10.0722608 183.48786068 C-10.08367032 170.40554944 -10.07054711 157.32335026 -10.04905933 144.2410574 C-10.03118797 133.01286234 -10.03429198 121.78483269 -10.05273438 110.55664062 C-10.07413457 97.52154058 -10.08257165 84.4865388 -10.07028532 71.45142365 C-10.06901111 70.06177268 -10.06775362 68.6721217 -10.06651306 67.2824707 C-10.06589596 66.59871416 -10.06527886 65.91495761 -10.06464306 65.21048117 C-10.06118759 60.38923887 -10.06702271 55.56805883 -10.07643127 50.74682617 C-10.08881322 44.25925952 -10.08001314 37.77193211 -10.05685425 31.28439331 C-10.05155272 28.89949057 -10.05310544 26.51456159 -10.06190491 24.12966919 C-10.07278657 20.88165985 -10.05918528 17.63466304 -10.03918457 14.38671875 C-10.04810746 13.43614342 -10.05703034 12.48556808 -10.06622362 11.50618744 C-9.98997948 5.1515562 -9.98997948 5.1515562 -7.66075897 1.93250275 C-4.94363726 0.12714646 -3.25263657 0.01062865 0 0 Z M6.46875 16.51757812 C6.46875 90.43757813 6.46875 164.35757813 6.46875 240.51757812 C17.02875 240.51757812 27.58875 240.51757812 38.46875 240.51757812 C38.46875 166.59757812 38.46875 92.67757812 38.46875 16.51757812 C27.90875 16.51757812 17.34875 16.51757812 6.46875 16.51757812 Z " fill="#000000" transform="translate(361.53125,207.482421875)"/>
<path d="M0 0 C1.10794922 -0.01260864 2.21589844 -0.02521729 3.35742188 -0.03820801 C4.54916016 -0.03011108 5.74089844 -0.02201416 6.96875 -0.01367188 C8.19658203 -0.01749878 9.42441406 -0.02132568 10.68945312 -0.02526855 C13.28516459 -0.02799029 15.88090336 -0.02061099 18.4765625 -0.00390625 C22.45374599 0.01749738 26.42912282 -0.0037015 30.40625 -0.02929688 C32.92708733 -0.02665365 35.44792353 -0.02152878 37.96875 -0.01367188 C39.16048828 -0.0217688 40.35222656 -0.02986572 41.58007812 -0.03820801 C43.24200195 -0.01929504 43.24200195 -0.01929504 44.9375 0 C45.91138672 0.00318237 46.88527344 0.00636475 47.88867188 0.00964355 C51.34333658 0.68975615 52.33672803 1.72251088 54.46875 4.51757812 C54.86173743 7.23413943 55.009748 9.54581538 54.97668457 12.26074219 C54.98292453 13.04537968 54.9891645 13.83001717 54.99559355 14.63843155 C55.01156156 17.27032682 54.99890481 19.90130082 54.98632812 22.53320312 C54.99174756 24.41891013 54.99886922 26.30461289 55.00756836 28.19030762 C55.02582583 33.31424817 55.01872415 38.43786708 55.00605202 43.56181335 C54.99593692 48.91979856 55.00531355 54.27775592 55.01159668 59.63574219 C55.01887743 68.63416497 55.00927414 77.63245651 54.99023438 86.63085938 C54.96846486 97.03968448 54.97551592 107.4481962 54.99754 117.8570137 C55.01568179 126.78789582 55.01825828 135.71868351 55.00778532 144.64957809 C55.00154369 149.98620492 55.00073318 155.32268436 55.01393127 160.65930176 C55.02547137 165.6760986 55.01749768 170.69249073 54.99435425 175.70924377 C54.98905731 177.55232572 54.99059771 179.39544162 54.99940491 181.23851013 C55.01030536 183.7509406 54.99666444 186.26206712 54.97668457 188.77441406 C54.98560746 189.50709629 54.99453034 190.23977852 55.00372362 190.99466324 C54.95084561 194.41295218 54.69800579 196.21702524 52.59825897 198.96977997 C49.88176153 200.94422093 48.2791995 201.02423657 44.9375 201.03515625 C43.82955078 201.04776489 42.72160156 201.06037354 41.58007812 201.07336426 C40.38833984 201.06526733 39.19660156 201.05717041 37.96875 201.04882812 C36.12700195 201.05456848 36.12700195 201.05456848 34.24804688 201.0604248 C31.65233541 201.06314654 29.05659664 201.05576724 26.4609375 201.0390625 C22.48375401 201.01765887 18.50837718 201.03885775 14.53125 201.06445312 C12.01041267 201.0618099 9.48957647 201.05668503 6.96875 201.04882812 C5.77701172 201.05692505 4.58527344 201.06502197 3.35742188 201.07336426 C1.69549805 201.05445129 1.69549805 201.05445129 0 201.03515625 C-1.46083008 201.03038269 -1.46083008 201.03038269 -2.95117188 201.0255127 C-6.40583658 200.3454001 -7.39922803 199.31264537 -9.53125 196.51757812 C-9.92423743 193.80101682 -10.072248 191.48934087 -10.03918457 188.77441406 C-10.04542453 187.98977657 -10.0516645 187.20513908 -10.05809355 186.3967247 C-10.07406156 183.76482943 -10.06140481 181.13385543 -10.04882812 178.50195312 C-10.05424756 176.61624612 -10.06136922 174.73054336 -10.07006836 172.84484863 C-10.08832583 167.72090808 -10.08122415 162.59728917 -10.06855202 157.4733429 C-10.05843692 152.11535769 -10.06781355 146.75740033 -10.07409668 141.39941406 C-10.08137743 132.40099128 -10.07177414 123.40269974 -10.05273438 114.40429688 C-10.03096486 103.99547177 -10.03801592 93.58696005 -10.06004 83.17814255 C-10.07818179 74.24726043 -10.08075828 65.31647274 -10.07028532 56.38557816 C-10.06404369 51.04895133 -10.06323318 45.71247189 -10.07643127 40.37585449 C-10.08797137 35.35905765 -10.07999768 30.34266552 -10.05685425 25.32591248 C-10.05155731 23.48283053 -10.05309771 21.63971463 -10.06190491 19.79664612 C-10.07280536 17.28421565 -10.05916444 14.77308913 -10.03918457 12.26074219 C-10.04810746 11.52805996 -10.05703034 10.79537773 -10.06622362 10.04049301 C-10.01334561 6.62220407 -9.76050579 4.81813101 -7.66075897 2.06537628 C-4.94426153 0.09093532 -3.3416995 0.01091968 0 0 Z M6.46875 16.51757812 C6.46875 71.95757812 6.46875 127.39757812 6.46875 184.51757812 C17.02875 184.51757812 27.58875 184.51757812 38.46875 184.51757812 C38.46875 129.07757813 38.46875 73.63757813 38.46875 16.51757812 C27.90875 16.51757812 17.34875 16.51757812 6.46875 16.51757812 Z " fill="#000000" transform="translate(281.53125,263.482421875)"/>
<path d="M0 0 C1.10794922 -0.01260864 2.21589844 -0.02521729 3.35742188 -0.03820801 C4.54916016 -0.03011108 5.74089844 -0.02201416 6.96875 -0.01367188 C8.19658203 -0.01749878 9.42441406 -0.02132568 10.68945312 -0.02526855 C13.28516459 -0.02799029 15.88090336 -0.02061099 18.4765625 -0.00390625 C22.45374599 0.01749738 26.42912282 -0.0037015 30.40625 -0.02929688 C32.92708733 -0.02665365 35.44792353 -0.02152878 37.96875 -0.01367188 C39.16048828 -0.0217688 40.35222656 -0.02986572 41.58007812 -0.03820801 C43.24200195 -0.01929504 43.24200195 -0.01929504 44.9375 0 C45.91138672 0.00318237 46.88527344 0.00636475 47.88867188 0.00964355 C51.26799839 0.67492448 52.31294037 1.86634442 54.46875 4.51757812 C54.97211456 6.99761963 54.97211456 6.99761963 54.97668457 9.83105469 C54.98796387 10.90778442 54.99924316 11.98451416 55.01086426 13.09387207 C55.00276733 14.27010132 54.99467041 15.44633057 54.98632812 16.65820312 C54.9933374 17.90081909 55.00034668 19.14343506 55.00756836 20.42370605 C55.02215873 23.82892998 55.01873748 27.23318195 55.00605202 30.63835144 C54.99592116 34.2025991 55.00531792 37.76680538 55.01159668 41.33105469 C55.01887288 47.31648206 55.00928627 53.30171198 54.99023438 59.28710938 C54.96846546 66.2059677 54.97551687 73.12435455 54.99754 80.04320145 C55.01569495 85.98473775 55.01825193 91.92613215 55.00778532 97.86768723 C55.00155082 101.41581704 55.00071329 104.96372527 55.01393127 108.51184082 C55.02763678 112.46706453 55.00863835 116.42176061 54.98632812 120.37695312 C54.99442505 121.55318237 55.00252197 122.72941162 55.01086426 123.94128418 C54.99394531 125.55637878 54.99394531 125.55637878 54.97668457 127.20410156 C54.97517647 128.13913513 54.97366837 129.0741687 54.97211456 130.03753662 C54.31418018 133.27913267 53.02145621 134.4801524 50.46875 136.51757812 C47.88867187 137.0255127 47.88867187 137.0255127 44.9375 137.03515625 C43.82955078 137.04776489 42.72160156 137.06037354 41.58007812 137.07336426 C40.38833984 137.06526733 39.19660156 137.05717041 37.96875 137.04882812 C36.12700195 137.05456848 36.12700195 137.05456848 34.24804688 137.0604248 C31.65233541 137.06314654 29.05659664 137.05576724 26.4609375 137.0390625 C22.48375401 137.01765887 18.50837718 137.03885775 14.53125 137.06445312 C12.01041267 137.0618099 9.48957647 137.05668503 6.96875 137.04882812 C5.77701172 137.05692505 4.58527344 137.06502197 3.35742188 137.07336426 C1.69549805 137.05445129 1.69549805 137.05445129 0 137.03515625 C-1.46083008 137.03038269 -1.46083008 137.03038269 -2.95117188 137.0255127 C-6.33049839 136.36023177 -7.37544037 135.16881183 -9.53125 132.51757812 C-10.03461456 130.03753662 -10.03461456 130.03753662 -10.03918457 127.20410156 C-10.05046387 126.12737183 -10.06174316 125.05064209 -10.07336426 123.94128418 C-10.06526733 122.76505493 -10.05717041 121.58882568 -10.04882812 120.37695312 C-10.0558374 119.13433716 -10.06284668 117.89172119 -10.07006836 116.6114502 C-10.08465873 113.20622627 -10.08123748 109.8019743 -10.06855202 106.39680481 C-10.05842116 102.83255715 -10.06781792 99.26835087 -10.07409668 95.70410156 C-10.08137288 89.71867419 -10.07178627 83.73344427 -10.05273438 77.74804688 C-10.03096546 70.82918855 -10.03801687 63.9108017 -10.06004 56.9919548 C-10.07819495 51.0504185 -10.08075193 45.1090241 -10.07028532 39.16746902 C-10.06405082 35.61933921 -10.06321329 32.07143098 -10.07643127 28.52331543 C-10.09013678 24.56809172 -10.07113835 20.61339564 -10.04882812 16.65820312 C-10.05692505 15.48197388 -10.06502197 14.30574463 -10.07336426 13.09387207 C-10.06208496 12.01714233 -10.05080566 10.9404126 -10.03918457 9.83105469 C-10.03767647 8.89602112 -10.03616837 7.96098755 -10.03461456 6.99761963 C-8.90423471 1.42831825 -5.23002794 0.01709018 0 0 Z M6.46875 16.51757812 C6.46875 50.83757812 6.46875 85.15757812 6.46875 120.51757812 C17.02875 120.51757812 27.58875 120.51757812 38.46875 120.51757812 C38.46875 86.19757813 38.46875 51.87757813 38.46875 16.51757812 C27.90875 16.51757812 17.34875 16.51757812 6.46875 16.51757812 Z " fill="#000000" transform="translate(201.53125,327.482421875)"/>
<path d="M0 0 C1.10794922 -0.01260864 2.21589844 -0.02521729 3.35742188 -0.03820801 C4.54916016 -0.03011108 5.74089844 -0.02201416 6.96875 -0.01367188 C8.19658203 -0.01749878 9.42441406 -0.02132568 10.68945312 -0.02526855 C13.28516459 -0.02799029 15.88090336 -0.02061099 18.4765625 -0.00390625 C22.45374599 0.01749738 26.42912282 -0.0037015 30.40625 -0.02929688 C32.92708733 -0.02665365 35.44792353 -0.02152878 37.96875 -0.01367188 C39.16048828 -0.0217688 40.35222656 -0.02986572 41.58007812 -0.03820801 C43.24200195 -0.01929504 43.24200195 -0.01929504 44.9375 0 C45.91138672 0.00318237 46.88527344 0.00636475 47.88867188 0.00964355 C50.46875 0.51757812 50.46875 0.51757812 52.78210449 1.97473145 C55.31477936 5.79308204 55.0277799 9.23091955 54.98632812 13.72070312 C54.9933374 14.65120483 55.00034668 15.58170654 55.00756836 16.54040527 C55.02517461 19.61643306 55.01351606 22.69154097 55 25.76757812 C55.00269415 27.90462419 55.00657593 30.04166907 55.01159668 32.17871094 C55.0174953 36.6576708 55.00891683 41.13631159 54.99023438 45.61523438 C54.96744487 51.35900265 54.98056597 57.10202332 55.00452423 62.84576416 C55.01897221 67.2586837 55.01438076 71.67142573 55.00401306 76.08435059 C55.00134302 78.20227141 55.00462524 80.32020829 55.01393127 82.43811035 C55.02408018 85.39732607 55.0086186 88.35532792 54.98632812 91.31445312 C54.99442505 92.19145874 55.00252197 93.06846436 55.01086426 93.9720459 C54.95829161 97.73568455 54.8964925 99.87269834 52.78210449 103.0604248 C49.95109814 104.84364062 48.27375995 105.02425434 44.9375 105.03515625 C43.82955078 105.04776489 42.72160156 105.06037354 41.58007812 105.07336426 C40.38833984 105.06526733 39.19660156 105.05717041 37.96875 105.04882812 C36.12700195 105.05456848 36.12700195 105.05456848 34.24804688 105.0604248 C31.65233541 105.06314654 29.05659664 105.05576724 26.4609375 105.0390625 C22.48375401 105.01765887 18.50837718 105.03885775 14.53125 105.06445312 C12.01041267 105.0618099 9.48957647 105.05668503 6.96875 105.04882812 C5.18114258 105.06097351 5.18114258 105.06097351 3.35742188 105.07336426 C2.24947266 105.06075562 1.14152344 105.04814697 0 105.03515625 C-0.97388672 105.03197388 -1.94777344 105.0287915 -2.95117188 105.0255127 C-5.53125 104.51757812 -5.53125 104.51757812 -7.84460449 103.0604248 C-10.37727936 99.24207421 -10.0902799 95.8042367 -10.04882812 91.31445312 C-10.0558374 90.38395142 -10.06284668 89.45344971 -10.07006836 88.49475098 C-10.08767461 85.41872319 -10.07601606 82.34361528 -10.0625 79.26757812 C-10.06519415 77.13053206 -10.06907593 74.99348718 -10.07409668 72.85644531 C-10.0799953 68.37748545 -10.07141683 63.89884466 -10.05273438 59.41992188 C-10.02994487 53.6761536 -10.04306597 47.93313293 -10.06702423 42.18939209 C-10.08147221 37.77647255 -10.07688076 33.36373052 -10.06651306 28.95080566 C-10.06384302 26.83288484 -10.06712524 24.71494796 -10.07643127 22.5970459 C-10.08658018 19.63783018 -10.0711186 16.67982833 -10.04882812 13.72070312 C-10.05692505 12.84369751 -10.06502197 11.96669189 -10.07336426 11.06311035 C-10.02079161 7.2994717 -9.9589925 5.16245791 -7.84460449 1.97473145 C-5.01359814 0.19151563 -3.33625995 0.01090191 0 0 Z M6.46875 16.51757812 C6.46875 40.27757812 6.46875 64.03757812 6.46875 88.51757812 C17.02875 88.51757812 27.58875 88.51757812 38.46875 88.51757812 C38.46875 64.75757813 38.46875 40.99757813 38.46875 16.51757812 C27.90875 16.51757812 17.34875 16.51757812 6.46875 16.51757812 Z " fill="#000000" transform="translate(121.53125,359.482421875)"/>
<path d="M0 0 C1.10794922 -0.01260864 2.21589844 -0.02521729 3.35742188 -0.03820801 C4.54916016 -0.03011108 5.74089844 -0.02201416 6.96875 -0.01367188 C8.19658203 -0.01749878 9.42441406 -0.02132568 10.68945312 -0.02526855 C13.28516459 -0.02799029 15.88090336 -0.02061099 18.4765625 -0.00390625 C22.45374599 0.01749738 26.42912282 -0.0037015 30.40625 -0.02929688 C32.92708733 -0.02665365 35.44792353 -0.02152878 37.96875 -0.01367188 C39.16048828 -0.0217688 40.35222656 -0.02986572 41.58007812 -0.03820801 C43.24200195 -0.01929504 43.24200195 -0.01929504 44.9375 0 C45.91138672 0.00318237 46.88527344 0.00636475 47.88867188 0.00964355 C51.27982566 0.67725289 52.44432128 1.74092988 54.46875 4.51757812 C54.97668457 7.09765625 54.97668457 7.09765625 54.98632812 10.04882812 C54.99893677 11.15677734 55.01154541 12.26472656 55.02453613 13.40625 C55.01643921 14.59798828 55.00834229 15.78972656 55 17.01757812 C55.00574036 18.85932617 55.00574036 18.85932617 55.01159668 20.73828125 C55.01431842 23.33399272 55.00693911 25.92973149 54.99023438 28.52539062 C54.96883075 32.50257412 54.99002963 36.47795094 55.015625 40.45507812 C55.01298177 42.97591545 55.00785691 45.49675166 55 48.01757812 C55.00809692 49.20931641 55.01619385 50.40105469 55.02453613 51.62890625 C55.01192749 52.73685547 54.99931885 53.84480469 54.98632812 54.98632812 C54.98314575 55.96021484 54.97996338 56.93410156 54.97668457 57.9375 C54.30907524 61.32865378 53.24539824 62.4931494 50.46875 64.51757812 C47.88867188 65.0255127 47.88867188 65.0255127 44.9375 65.03515625 C43.82955078 65.04776489 42.72160156 65.06037354 41.58007812 65.07336426 C40.38833984 65.06526733 39.19660156 65.05717041 37.96875 65.04882812 C36.12700195 65.05456848 36.12700195 65.05456848 34.24804688 65.0604248 C31.65233541 65.06314654 29.05659664 65.05576724 26.4609375 65.0390625 C22.48375401 65.01765887 18.50837718 65.03885775 14.53125 65.06445312 C12.01041267 65.0618099 9.48957647 65.05668503 6.96875 65.04882812 C5.18114258 65.06097351 5.18114258 65.06097351 3.35742188 65.07336426 C2.24947266 65.06075562 1.14152344 65.04814697 0 65.03515625 C-0.97388672 65.03197388 -1.94777344 65.0287915 -2.95117188 65.0255127 C-6.34232566 64.35790336 -7.50682128 63.29422637 -9.53125 60.51757812 C-10.03918457 57.9375 -10.03918457 57.9375 -10.04882812 54.98632812 C-10.06143677 53.87837891 -10.07404541 52.77042969 -10.08703613 51.62890625 C-10.07893921 50.43716797 -10.07084229 49.24542969 -10.0625 48.01757812 C-10.0663269 46.78974609 -10.07015381 45.56191406 -10.07409668 44.296875 C-10.07681842 41.70116353 -10.06943911 39.10542476 -10.05273438 36.50976562 C-10.03133075 32.53258213 -10.05252963 28.55720531 -10.078125 24.58007812 C-10.07548177 22.0592408 -10.07035691 19.53840459 -10.0625 17.01757812 C-10.07059692 15.82583984 -10.07869385 14.63410156 -10.08703613 13.40625 C-10.07442749 12.29830078 -10.06181885 11.19035156 -10.04882812 10.04882812 C-10.04564575 9.07494141 -10.04246338 8.10105469 -10.03918457 7.09765625 C-8.91711969 1.39807362 -5.396739 0.01763494 0 0 Z M6.46875 16.51757812 C6.46875 27.07757813 6.46875 37.63757813 6.46875 48.51757812 C17.02875 48.51757812 27.58875 48.51757812 38.46875 48.51757812 C38.46875 37.95757812 38.46875 27.39757812 38.46875 16.51757812 C27.90875 16.51757812 17.34875 16.51757812 6.46875 16.51757812 Z " fill="#000000" transform="translate(41.53125,399.482421875)"/>
<path d="M0 0 C0.66 -0.0103125 1.32 -0.020625 2 -0.03125 C4.98174986 0.76077731 6.16411059 2.04673186 8 4.5 C8.390625 7.515625 8.390625 7.515625 8.25 10.75 C8.21390625 11.82765625 8.1778125 12.9053125 8.140625 14.015625 C8.09421875 14.83546875 8.0478125 15.6553125 8 16.5 C8.81984375 16.45359375 9.6396875 16.4071875 10.484375 16.359375 C11.56203125 16.32328125 12.6396875 16.2871875 13.75 16.25 C15.35101563 16.18039063 15.35101563 16.18039063 16.984375 16.109375 C20 16.5 20 16.5 22.359375 18.265625 C24.09023982 20.62289805 24.54492653 21.62470206 24.5 24.5 C24.5103125 25.16 24.520625 25.82 24.53125 26.5 C23.69936936 29.63178594 22.68491008 30.64526574 20 32.5 C16.69289939 33.08579882 13.41509529 33.10574604 10.0625 33.125 C2.25483637 33.00945195 2.25483637 33.00945195 -5 35.5 C-6.39935013 38.29870027 -6.25265405 40.40498792 -6 43.5 C-3.59634154 46.9337978 -0.65359258 47.2010053 3.3125 47.9375 C11.76352785 49.76449604 17.09990698 53.40076885 22 60.5 C25.22307561 66.94615122 25.12671819 75.035914 23.3828125 81.9453125 C21.02324135 87.27000846 16.78686321 91.27447694 12 94.5 C9.75 95.19140625 9.75 95.19140625 8 95.5 C8.04640625 96.39203125 8.0928125 97.2840625 8.140625 98.203125 C8.19476563 99.95882812 8.19476563 99.95882812 8.25 101.75 C8.29640625 102.91015625 8.3428125 104.0703125 8.390625 105.265625 C8 108.5 8 108.5 6.234375 110.890625 C3.87988376 112.58651729 2.85547686 113.04461683 0 113 C-0.66 113.0103125 -1.32 113.020625 -2 113.03125 C-4.98174986 112.23922269 -6.16411059 110.95326814 -8 108.5 C-8.390625 105.484375 -8.390625 105.484375 -8.25 102.25 C-8.21390625 101.17234375 -8.1778125 100.0946875 -8.140625 98.984375 C-8.09421875 98.16453125 -8.0478125 97.3446875 -8 96.5 C-8.81984375 96.54640625 -9.6396875 96.5928125 -10.484375 96.640625 C-11.56203125 96.67671875 -12.6396875 96.7128125 -13.75 96.75 C-14.81734375 96.79640625 -15.8846875 96.8428125 -16.984375 96.890625 C-20 96.5 -20 96.5 -22.359375 94.734375 C-24.09023982 92.37710195 -24.54492653 91.37529794 -24.5 88.5 C-24.51546875 87.51 -24.51546875 87.51 -24.53125 86.5 C-23.69936936 83.36821406 -22.68491008 82.35473426 -20 80.5 C-16.69289939 79.91420118 -13.41509529 79.89425396 -10.0625 79.875 C-2.25483637 79.99054805 -2.25483637 79.99054805 5 77.5 C6.39935013 74.70129973 6.25265405 72.59501208 6 69.5 C3.59634154 66.0662022 0.65359258 65.7989947 -3.3125 65.0625 C-11.76352785 63.23550396 -17.09990698 59.59923115 -22 52.5 C-25.22307561 46.05384878 -25.12671819 37.964086 -23.3828125 31.0546875 C-21.02324135 25.72999154 -16.78686321 21.72552306 -12 18.5 C-9.75 17.80859375 -9.75 17.80859375 -8 17.5 C-8.04640625 16.60796875 -8.0928125 15.7159375 -8.140625 14.796875 C-8.17671875 13.62640625 -8.2128125 12.4559375 -8.25 11.25 C-8.29640625 10.08984375 -8.3428125 8.9296875 -8.390625 7.734375 C-8 4.5 -8 4.5 -6.234375 2.109375 C-3.87988376 0.41348271 -2.85547686 -0.04461683 0 0 Z " fill="#000000" transform="translate(216,111.5)"/>
</svg>
