<?xml version="1.0" encoding="UTF-8"?>
<svg version="1.1" xmlns="http://www.w3.org/2000/svg" width="512" height="512">
<path d="M0 0 C5.43715831 2.50945768 8.92074345 6.95526055 12 12 C12 12.66 12 13.32 12 14 C12.66 14 13.32 14 14 14 C14.20625 13.319375 14.4125 12.63875 14.625 11.9375 C17.03733265 6.78388025 20.57340988 2.10029136 26 0 C30.80323322 -0.68164696 34.8259599 -0.54186466 39.25 1.5 C80.08154095 38.61958269 81.06269182 142.74184845 89.98204041 194.41130066 C90.11110999 195.15768358 90.24017958 195.90406651 90.37316036 196.67306709 C90.71885202 198.67234878 91.06385975 200.67174869 91.40881348 202.67115784 C91.90344385 205.45631344 92.4306335 208.22932627 93 211 C94.38059026 200.88958015 95.28043885 190.7850023 95.9296875 180.6015625 C96.00729309 179.39361023 96.08489868 178.18565796 96.16485596 176.94110107 C96.48405373 171.92228823 96.79843456 166.90325919 97.09912109 161.88330078 C101.17214338 94.51498207 101.17214338 94.51498207 116.5625 79.5 C122.35858146 75.93318064 127.25724985 75.32681077 134 76 C139.57409977 77.82230185 142.51892821 81.49435744 146 86 C146.70125 85.2575 147.4025 84.515 148.125 83.75 C154.25934884 77.88236198 159.15239643 75.6596355 167.50390625 75.79296875 C172.45399007 76.20353908 175.61431414 78.35700618 179 81.8125 C186.93651784 91.86132103 189.94889465 105.66467216 193.57739258 117.69799805 C198.66574493 134.19282662 204.73645447 145.54949299 220 154 C221 155 221 155 221.1875 157.9375 C221 161 221 161 219 163 C212.45367534 163.93518924 208.21519412 161.63483226 203 158 C190.12327178 148.00896563 184.89887985 131.48638799 180.46582031 116.49243164 C180.16772461 115.4843042 179.86962891 114.47617676 179.5625 113.4375 C179.11922363 111.9378772 179.11922363 111.9378772 178.66699219 110.40795898 C175.09777243 98.25814458 175.09777243 98.25814458 168 88 C165.12762267 87.41557037 165.12762267 87.41557037 162 88 C157.69416118 91.30448095 155.55196782 94.82677393 154 100 C153.99262204 114.76882726 160.90736205 134.25472996 170.9375 145.09375 C174.22057672 148.12033635 177.6145351 150.38335037 181.5 152.5625 C183.4921875 153.7421875 183.4921875 153.7421875 185 155 C185.625 158.1875 185.625 158.1875 185 161 C183 163 183 163 179.9375 163.4375 C172.58673094 162.62074788 166.75946557 158.53827961 161.7578125 153.2109375 C155.89417354 145.83578272 151.67989817 137.62078286 148 129 C146.32154651 146.85313233 144.84529197 164.70370963 143.68475342 182.5982666 C138.59182336 260.86484092 138.59182336 260.86484092 123 276 C117.86118335 280.09325655 112.24007393 280.80221843 105.78125 280.58203125 C101.87554147 279.76468494 100.27645958 278.17681369 98.046875 274.95703125 C96.66686862 272.37724321 95.69293362 269.84102786 95 267 C92.84757262 269.07555497 90.96918834 271.04401665 89.25 273.5 C84.64623421 278.61529532 79.68884189 280.26480509 72.875 280.6875 C68.83875077 280.51995758 66.38419063 280.23209682 63.5625 277.25 C58.06349287 268.79497445 55.12698468 258.96524688 52.75 249.25 C52.45681885 248.05544189 52.1636377 246.86088379 51.86157227 245.63012695 C45.733599 220.09539285 41.58732118 194.07693342 37.04343987 168.22563362 C36.59067106 165.65045689 36.13727292 163.07539164 35.68373108 160.50035095 C35.37774053 158.76236606 35.07178667 157.0243747 34.76586914 155.28637695 C34.61362161 154.42142703 34.46137407 153.55647711 34.30451298 152.66531658 C33.41212184 147.59014948 32.52706641 142.51376985 31.64751911 137.43636227 C28.63854871 120.08926397 25.44308847 102.79996015 21.81640625 85.5703125 C21.65379744 84.79501064 21.49118862 84.01970879 21.32365227 83.22091293 C19.47675745 74.44984357 17.50481939 65.72848278 15.2280283 57.05784798 C14.50751423 54.27370879 14 51.89179117 14 49 C13.34 49 12.68 49 12 49 C11.89695557 49.61278809 11.79391113 50.22557617 11.68774414 50.85693359 C10.61265809 57.0207603 9.32114976 63.11125931 7.9138031 69.2073822 C1.08577672 98.79959019 -4.119001 128.67714453 -9.40068054 158.57627869 C-9.96935934 161.79544212 -10.53871776 165.01448413 -11.10871887 168.2334137 C-11.32219357 169.43908446 -11.32219357 169.43908446 -11.53998089 170.66911221 C-11.82820278 172.29693385 -12.11645726 173.92474972 -12.40474415 175.55255985 C-13.2443941 180.29703812 -14.07840249 185.04246499 -14.90821266 189.7886734 C-29.21894287 271.54641702 -29.21894287 271.54641702 -41 280 C-47.2381815 281.21198955 -53.71136098 280.61422502 -59.25 277.41796875 C-61.95941759 275.22261477 -63.85312073 272.59823443 -65.7734375 269.70703125 C-66.90411758 267.85402293 -66.90411758 267.85402293 -69 267 C-69.20625 267.845625 -69.4125 268.69125 -69.625 269.5625 C-71.36973549 273.92433872 -73.02473329 277.33198446 -77 280 C-83.23269211 281.30431338 -89.67742847 280.73449295 -95.1953125 277.4375 C-111.48775868 264.45996711 -112.62894639 238.40509349 -114.83920288 219.27102661 C-116.51038113 204.14181793 -117.45617279 188.9527408 -118.46551514 173.76812744 C-118.89020877 167.39544756 -119.32514564 161.02346152 -119.76102829 154.65153885 C-119.91015108 152.4560248 -120.0559979 150.26031285 -120.20132446 148.06454468 C-120.6295343 141.68142508 -121.09863988 135.33600149 -122 129 C-122.49628906 130.05058594 -122.99257812 131.10117188 -123.50390625 132.18359375 C-129.44784241 144.55488066 -136.34110213 157.8779133 -150 163 C-153.75 163.3125 -153.75 163.3125 -157 163 C-159 161 -159 161 -159.625 158.1875 C-159 155 -159 155 -157.4921875 153.7421875 C-156.09987308 152.91771896 -154.69645945 152.11183705 -153.28515625 151.3203125 C-140.50708395 143.93742628 -135.93475449 131.66142169 -131.5 118.3125 C-131.13712891 117.24338379 -130.77425781 116.17426758 -130.40039062 115.07275391 C-128.07890027 107.72402828 -126.99454818 101.63979098 -130.12109375 94.40625 C-130.77271484 93.46265625 -130.77271484 93.46265625 -131.4375 92.5 C-131.86933594 91.8503125 -132.30117187 91.200625 -132.74609375 90.53125 C-134.64055051 88.21777009 -135.89988953 88.01305789 -138.875 87.625 C-142.12374474 87.67797077 -142.12374474 87.67797077 -144.01953125 90.125 C-149.3641069 97.88359503 -151.90537884 107.49327611 -154.50976562 116.46044922 C-159.52169038 133.70520385 -165.50413019 151.2793144 -181.6875 161.1875 C-185.53649844 163.07105243 -188.69283404 163.61530942 -193 163 C-195 161 -195 161 -195.625 158.1875 C-195 155 -195 155 -193.4921875 153.7421875 C-192.09987308 152.91771896 -190.69645945 152.11183705 -189.28515625 151.3203125 C-174.95933478 143.04317121 -170.54724995 127.84159307 -165.9375 113 C-156.49413804 82.81602161 -156.49413804 82.81602161 -147 77 C-141.27155171 75.09051724 -135.22437495 75.08814285 -129.6875 77.625 C-125.86606408 79.77988679 -123.56370077 82.47491144 -121 86 C-120.278125 85.2575 -119.55625 84.515 -118.8125 83.75 C-113.87349522 78.92075088 -110.35802102 75.89764898 -103.3125 75.6875 C-97.17141121 75.78582893 -92.80370427 77.30234601 -88.34765625 81.58984375 C-68.91895028 104.97350259 -71.6384372 149.56758618 -69.875 177.8125 C-69.62340043 181.79503083 -69.36847224 185.77732916 -69.11038208 189.75944519 C-68.95203338 192.20770996 -68.79713158 194.65620089 -68.64620972 197.10493469 C-68.57588531 198.20186142 -68.50556091 199.29878815 -68.43310547 200.42895508 C-68.34341995 201.8668615 -68.34341995 201.8668615 -68.25192261 203.33381653 C-68.00514334 205.94556625 -67.56276771 208.43943777 -67 211 C-66.84459244 210.11687134 -66.68918488 209.23374268 -66.52906799 208.32385254 C-62.04963509 182.87717975 -57.54427234 157.43517849 -53 132 C-52.8750264 131.30012718 -52.7500528 130.60025436 -52.62129211 129.87917328 C-32.77398207 18.76426362 -32.77398207 18.76426362 -15.125 3.125 C-9.97011017 -0.38032508 -6.16770231 -0.65674608 0 0 Z M-8.52734375 12.36328125 C-34.88848078 48.80152883 -37.92430043 109.46515146 -45.4375 152.640625 C-45.58853054 153.50773983 -45.73956108 154.37485466 -45.8951683 155.2682457 C-47.41923993 164.02022924 -48.93846275 172.77296816 -50.43468285 181.52976036 C-51.1420195 185.66385564 -51.85576048 189.79683432 -52.5703125 193.9296875 C-52.70833408 194.73224094 -52.84635567 195.53479439 -52.98855972 196.36166763 C-54.49851423 205.10758643 -56.12381718 213.80678282 -58.05761719 222.46972656 C-58.22571081 223.22839838 -58.39380444 223.9870702 -58.56699181 224.76873207 C-59.36227869 228.3422071 -60.1793136 231.90815819 -61.03665161 235.46725464 C-63.38690988 245.77186502 -62.91169552 252.77303986 -57.421875 261.9765625 C-55.22290187 265.10587041 -53.26303426 266.96060359 -50 269 C-47.42097459 269.07180413 -47.42097459 269.07180413 -45 268 C-28.65783166 242.9978792 -27.72710735 198.84549287 -22.62109375 169.9453125 C-22.47103001 169.09638742 -22.32096626 168.24746235 -22.16635513 167.37281227 C-20.6433069 158.75514913 -19.12375763 150.13691113 -17.6198597 141.51588345 C-7.45434537 83.27585577 -7.45434537 83.27585577 -0.79150391 57.47314453 C-0.22482774 55.27746601 0.32769631 53.07851452 0.87890625 50.87890625 C2.33807756 45.10869188 3.79413207 39.39061447 5.828125 33.7890625 C7.37091356 28.80071284 6.84497339 26.80632036 4.6953125 22.2109375 C4.17710937 21.27507812 3.65890625 20.33921875 3.125 19.375 C2.35542969 17.96347656 2.35542969 17.96347656 1.5703125 16.5234375 C0.17164511 14.27582771 -0.88776419 12.58152329 -3 11 C-6.8438522 10.55606533 -6.8438522 10.55606533 -8.52734375 12.36328125 Z M27.4375 12.43359375 C25.8920494 14.58798549 24.41417306 16.75682894 23 19 C22.54496094 19.70898438 22.08992187 20.41796875 21.62109375 21.1484375 C19.92541448 24.24878838 18.79593063 26.7296344 19.36865234 30.29492188 C19.62598145 31.11541016 19.88331055 31.93589844 20.1484375 32.78125 C20.43678467 33.7503833 20.72513184 34.7195166 21.0222168 35.71801758 C21.50621948 37.34259888 21.50621948 37.34259888 22 39 C22.67175454 41.51200621 23.33370687 44.02459065 23.98046875 46.54296875 C24.14563051 47.18543234 24.31079227 47.82789593 24.48095894 48.48982811 C28.27929354 63.32532955 31.79378296 78.18706822 34.765625 93.2109375 C34.93202421 94.04627077 35.09842342 94.88160404 35.26986504 95.74225044 C39.94816324 119.27633183 44.00201402 142.92405437 48.10510254 166.56365967 C53.58038587 198.2797833 53.58038587 198.2797833 59.859375 229.84375 C60.00114733 230.51016951 60.14291965 231.17658901 60.28898811 231.86320305 C64.24322869 251.09292338 64.24322869 251.09292338 72 269 C75.00892508 268.92835893 77.22150183 268.63920806 79.59375 266.69140625 C84.96323719 260.76031454 88.0620068 253.93202153 89 246 C88.65302649 243.03555224 88.65302649 243.03555224 87.87841797 239.96630859 C87.60530792 238.75802399 87.33219788 237.54973938 87.05081177 236.30484009 C86.89950932 235.65354755 86.74820686 235.00225502 86.59231949 234.33122635 C83.1225663 219.30378219 80.33532975 204.16840763 77.6953125 188.9765625 C77.41764164 187.38462193 77.41764164 187.38462193 77.13436127 185.76052094 C75.59737233 176.9462382 74.07371672 168.12966657 72.55407715 159.31237793 C68.3985883 135.20555212 64.18688087 111.13053714 59.16015625 87.1875 C58.97600788 86.30840595 58.79185951 85.4293119 58.60213089 84.52357864 C52.42516834 44.29599215 52.42516834 44.29599215 33 11 C29.13781244 10.54929452 29.13781244 10.54929452 27.4375 12.43359375 Z M-108.625 89.4375 C-109.45556498 90.59812663 -110.24516546 91.78875387 -111 93 C-111.41894531 93.65355469 -111.83789062 94.30710937 -112.26953125 94.98046875 C-115.2409718 100.43639136 -115.08913591 104.22154146 -113.77929688 110.18334961 C-109.59132697 130.69416838 -108.75700404 151.72623858 -107.41760254 172.56707764 C-106.31782233 189.66201284 -105.082126 206.71310088 -103.08984375 223.73046875 C-102.94261368 225.03244705 -102.79538361 226.33442535 -102.64369202 227.67585754 C-99.98058491 249.99289837 -99.98058491 249.99289837 -87.87890625 268.06640625 C-85.96833122 269.18573163 -85.96833122 269.18573163 -83.4453125 269.02734375 C-80.75515736 268.18752612 -80.75515736 268.18752612 -79.48828125 265.375 C-79.10027344 264.26125 -78.71226562 263.1475 -78.3125 262 C-77.91675781 260.906875 -77.52101562 259.81375 -77.11328125 258.6875 C-76.74589844 257.470625 -76.37851563 256.25375 -76 255 C-75.78625732 254.33371582 -75.57251465 253.66743164 -75.35229492 252.98095703 C-73.49264466 246.30973499 -74.50046287 240.60463626 -75.6875 233.875 C-77.5117172 222.39203277 -78.71790472 210.96818608 -79.5625 199.375 C-79.62248169 198.5630014 -79.68246338 197.75100281 -79.7442627 196.91439819 C-80.38285204 188.22242833 -80.96838781 179.52720898 -81.53233337 170.83010864 C-82.1452488 127.84374201 -82.1452488 127.84374201 -97 89 C-101.56550676 85.95632883 -104.4859714 85.5941163 -108.625 89.4375 Z M121 91 C106.62469842 114.41343157 108.60851122 151.14176398 107 177.4375 C106.09080266 192.27966302 105.10470453 207.08454725 103.46875 221.8671875 C103.34604736 222.97642075 103.22334473 224.08565399 103.09692383 225.22850037 C102.45527481 230.78031696 101.64781582 236.21837543 100.5 241.6875 C99.03995683 251.11249415 102.89665956 261.15681308 108 269 C112.26040998 269 114.62368202 267.8698732 117.5625 264.9375 C133.98967488 244.48512333 131.31893763 204.78545034 132.9375 180.05078125 C133.02000504 178.80211777 133.10251007 177.55345428 133.18751526 176.26695251 C133.60086298 169.98735355 134.00103638 163.70738574 134.37866211 157.42553711 C135.44725269 140.39137817 137.45422481 123.6230043 140.38198853 106.80584717 C141.14063279 102.21642123 140.46987749 99.87262962 138.25 95.75 C137.71890625 94.73421875 137.1878125 93.7184375 136.640625 92.671875 C135.22828965 90.371786 134.10463619 88.66477836 132 87 C126.8382952 86.21452318 124.73258651 87.53360429 121 91 Z " fill="#000000" transform="translate(243,116)"/>
</svg>
