<?xml version="1.0" encoding="UTF-8"?>
<svg version="1.1" xmlns="http://www.w3.org/2000/svg" width="512" height="512">
<path d="M0 0 C2.19481659 1.46608353 2.19481659 1.46608353 4 4 C4.39272117 7.07154001 4.54030283 9.78377782 4.50793457 12.85516357 C4.51417453 13.75948537 4.5204145 14.66380717 4.52684355 15.59553266 C4.5428269 18.63263679 4.53014812 21.66894427 4.51757812 24.70605469 C4.52299701 26.88083363 4.53011835 29.0556089 4.53881836 31.2303772 C4.55708659 37.14380321 4.54996848 43.05695072 4.53730202 48.97038174 C4.52718737 55.15663348 4.53656391 61.3428611 4.54284668 67.52911377 C4.55012973 77.92309862 4.54052036 88.31696989 4.52148438 98.7109375 C4.49973733 110.72381936 4.50674869 122.73638445 4.52879 134.74926448 C4.54695253 145.06108574 4.54949742 155.37282524 4.53903532 165.68465734 C4.53280218 171.84412541 4.5319595 178.00346586 4.54518127 184.16292572 C4.55675061 189.95781006 4.54869376 195.75234496 4.52560425 201.54719162 C4.52032203 203.67240443 4.52182257 205.79764673 4.53065491 207.92284775 C4.54161355 210.82792734 4.52784222 213.73189291 4.50793457 216.63690186 C4.51685746 217.47466117 4.52578034 218.31242048 4.53497362 219.17556643 C4.44747618 225.77521216 2.65688654 231.10868229 -1.859375 236.0234375 C-11.16518782 242.67594006 -20.9710641 242.49138402 -32 243 C-31.22398437 243.42821045 -30.44796875 243.8564209 -29.6484375 244.29760742 C-26.7325788 245.90798434 -23.81784149 247.52035642 -20.90380859 249.1340332 C-19.6493603 249.82817842 -18.39448732 250.52155678 -17.13916016 251.21411133 C2.53511864 262.07023728 2.53511864 262.07023728 4 265 C4.69109948 272.14136126 4.69109948 272.14136126 1.9375 275.5625 C-1.76415873 277.37395002 -4.16374267 277.12609177 -8 276 C-11.78923095 274.29963132 -15.38266733 272.28656093 -19 270.25 C-20.56004761 269.38894653 -20.56004761 269.38894653 -22.15161133 268.51049805 C-30.67357271 263.79175785 -39.15291525 258.99182384 -47.59960938 254.13964844 C-48.49873047 253.62563477 -49.39785156 253.11162109 -50.32421875 252.58203125 C-51.10885498 252.13061768 -51.89349121 251.6792041 -52.7019043 251.21411133 C-55.39138425 249.74161995 -55.39138425 249.74161995 -60 248 C-65.94 253.94 -71.88 259.88 -78 266 C-71.96217118 278.44532063 -65.34267345 290.51725009 -58.5859375 302.58203125 C-57.98740967 303.65533691 -57.38888184 304.72864258 -56.7722168 305.83447266 C-55.59401055 307.93898047 -54.40539953 310.03769801 -53.20629883 312.13037109 C-52.6573999 313.10184082 -52.10850098 314.07331055 -51.54296875 315.07421875 C-51.0533667 315.92975342 -50.56376465 316.78528809 -50.05932617 317.66674805 C-48.39994902 321.32166103 -48.6713068 323.24839567 -50 327 C-51.0625 328.9375 -51.0625 328.9375 -53 330 C-58.49519231 330.61057692 -58.49519231 330.61057692 -61 330 C-64.21290632 327.18453304 -66.18115322 324.24717704 -68.21484375 320.51171875 C-68.81216309 319.4230249 -69.40948242 318.33433105 -70.02490234 317.21264648 C-70.33659363 316.63747284 -70.64828491 316.06229919 -70.96942139 315.46969604 C-71.94913243 313.66608513 -72.94084038 311.86957132 -73.93603516 310.07446289 C-77.21821024 304.14379267 -80.43524013 298.18826457 -83.55859375 292.171875 C-84.11877197 291.11911377 -84.6789502 290.06635254 -85.25610352 288.98168945 C-86.31200434 286.99616277 -87.34376819 284.9975541 -88.34741211 282.98510742 C-90.85672024 278.06989759 -90.85672024 278.06989759 -95.24316406 275.0534668 C-97.61278775 274.54241838 -97.61278775 274.54241838 -99.96142578 274.28393555 C-102.69305479 273.90347033 -104.05029512 272.84658603 -106 270.9375 C-106.64195312 270.32003906 -107.28390625 269.70257813 -107.9453125 269.06640625 C-108.62335938 268.38449219 -109.30140625 267.70257813 -110 267 C-110.80179687 266.24589844 -111.60359375 265.49179687 -112.4296875 264.71484375 C-119.46927667 257.97887903 -119.46927667 257.97887903 -121 253 C-121 252.01 -121 251.02 -121 250 C-122.03817871 250.0314209 -123.07635742 250.0628418 -124.14599609 250.09521484 C-128.04085589 250.20477433 -131.93558308 250.27303924 -135.83154297 250.32958984 C-137.50951121 250.35954781 -139.18732576 250.40033042 -140.86474609 250.45263672 C-157.63100697 250.96191564 -157.63100697 250.96191564 -165.46728516 245.49462891 C-166.225979 244.7547876 -166.225979 244.7547876 -167 244 C-167 243.34 -167 242.68 -167 242 C-168.01428275 242.00113916 -168.01428275 242.00113916 -169.04905605 242.00230134 C-209.12336051 242.04705518 -249.19766174 242.08137196 -289.27198613 242.10213066 C-294.08350512 242.10463208 -298.89502405 242.10722072 -303.70654297 242.10986328 C-305.14337626 242.11065021 -305.14337626 242.11065021 -306.60923648 242.11145304 C-322.12027006 242.12015621 -337.63128881 242.13592571 -353.1423136 242.15430559 C-369.05744595 242.17300707 -384.97257054 242.18411725 -400.88771343 242.18817699 C-410.70859548 242.19092153 -420.52943563 242.19959076 -430.35030478 242.21583293 C-437.08437183 242.22640287 -443.81841722 242.2296006 -450.55249196 242.22700275 C-454.43797304 242.22572148 -458.32338089 242.22768903 -462.20884895 242.23841095 C-466.42313468 242.24995521 -470.63726455 242.2459745 -474.8515625 242.24050903 C-476.07725417 242.24633472 -477.30294584 242.2521604 -478.56577969 242.25816262 C-486.24238005 242.2312082 -493.85286913 242.1862875 -500.25 237.375 C-501.18585938 236.70597656 -501.18585938 236.70597656 -502.140625 236.0234375 C-508.85197669 228.71990772 -508.58173706 220.95492282 -508.49609375 211.54296875 C-508.49624896 210.14911321 -508.49774151 208.75525723 -508.50050354 207.36140442 C-508.5018811 204.45566482 -508.48943096 201.55042275 -508.46655273 198.64477539 C-508.43803627 194.92107738 -508.4409494 191.19819657 -508.45364285 187.47443676 C-508.46059273 184.60308337 -508.45282103 181.7319192 -508.44038582 178.86058998 C-508.43587385 177.4870711 -508.43553231 176.11353192 -508.43945122 174.74001122 C-508.44235966 172.82558205 -508.4237099 170.91115663 -508.40405273 168.99682617 C-508.39864975 167.90842941 -508.39324677 166.82003265 -508.38768005 165.69865417 C-508 163 -508 163 -506.60951233 161.15010071 C-504.48557282 159.6324085 -503.0925763 159.59907424 -500.5 159.625 C-499.7265625 159.61726562 -498.953125 159.60953125 -498.15625 159.6015625 C-495.41911659 160.10733715 -494.68562951 160.80218614 -493 163 C-492.61473083 165.45309448 -492.61473083 165.45309448 -492.59936523 168.40185547 C-492.58602646 169.50665253 -492.57268768 170.61144958 -492.5589447 171.74972534 C-492.55882889 172.94348785 -492.55871307 174.13725037 -492.55859375 175.3671875 C-492.54538589 176.59406281 -492.53217804 177.82093811 -492.51856995 179.08499146 C-492.47758501 183.01501716 -492.45598203 186.94480858 -492.4375 190.875 C-492.41371709 194.79797841 -492.38557898 198.72073587 -492.34571838 202.64358521 C-492.32136292 205.08643917 -492.30650316 207.52941017 -492.30210876 209.97238159 C-492.29192215 211.08348297 -492.28173553 212.19458435 -492.27124023 213.33935547 C-492.26696518 214.31403778 -492.26269012 215.28872009 -492.25828552 216.29293823 C-491.97654791 219.24579879 -491.38886469 221.37934687 -490 224 C-486.96587366 225.01137545 -484.94691717 225.12432472 -481.77385426 225.12304783 C-480.68454509 225.12503888 -479.59523592 225.12702993 -478.47291738 225.12908131 C-477.27157098 225.12616847 -476.07022459 225.12325563 -474.83247375 225.12025452 C-473.5599257 225.12110894 -472.28737764 225.12196337 -470.97626752 225.12284368 C-467.4371448 225.12508532 -463.89805221 225.12107185 -460.35893333 225.11606562 C-456.5450445 225.11175659 -452.73115743 225.11320787 -448.91726685 225.1139679 C-442.30713306 225.11449284 -435.69700913 225.11134909 -429.08687782 225.10573006 C-419.5296783 225.09761111 -409.97248356 225.09499943 -400.41528096 225.09374207 C-384.91023343 225.09155217 -369.40519116 225.08489377 -353.90014648 225.07543945 C-338.83634467 225.06626373 -323.77254428 225.05918368 -308.70874023 225.05493164 C-307.31648905 225.05453756 -307.31648905 225.05453756 -305.89611159 225.05413551 C-301.23987734 225.05283049 -296.58364308 225.05156678 -291.92740881 225.05032361 C-253.28493553 225.03995293 -214.64246811 225.0223363 -176 225 C-178.72285807 217.76485511 -181.44781547 210.53050328 -184.1741333 203.29666138 C-185.09850963 200.84326462 -186.02243105 198.38969641 -186.94586182 195.9359436 C-192.54808131 181.05070752 -198.17242076 166.18009216 -204.14187622 151.43753052 C-206.89972766 144.55401437 -208.74858576 137.22960118 -206.31298828 129.9453125 C-203.65860868 124.79407504 -199.50005646 120.83335215 -194 119 C-183.80438426 117.46447271 -175.00482901 121.52152417 -165.75 125.1875 C-164.04110358 125.84984374 -162.3315286 126.51043896 -160.62133789 127.16943359 C-157.84141963 128.24202167 -155.06259355 129.31710663 -152.28651428 130.39959717 C-144.9689306 133.25274389 -137.62599952 136.03374761 -130.27119827 138.78943062 C-125.89424649 140.43074877 -121.52057422 142.08079832 -117.1463623 143.72940063 C-114.68312259 144.65628751 -112.21885326 145.58044292 -109.75354004 146.50180054 C-106.26806782 147.80642044 -102.78787675 149.12429027 -99.30859375 150.4453125 C-98.26853683 150.83130112 -97.22847992 151.21728973 -96.15690613 151.61497498 C-88.14877429 154.6781597 -80.92525207 158.03922299 -76.88916016 166.00732422 C-74.82590744 172.9516822 -75.50210812 180.39098238 -75.6875 187.5625 C-75.71261873 189.25582638 -75.73542558 190.94918873 -75.75585938 192.64257812 C-75.81056257 196.76261695 -75.89663305 200.88090655 -76 205 C-75.05165283 205.13792969 -74.10330566 205.27585937 -73.1262207 205.41796875 C-69.77441998 206.04199787 -68.62276848 206.70798261 -66.1875 209 C-65.51976562 209.62519531 -64.85203125 210.25039063 -64.1640625 210.89453125 C-63.44992187 211.58933594 -62.73578125 212.28414062 -62 213 C-61.18273437 213.76699219 -60.36546875 214.53398437 -59.5234375 215.32421875 C-52.89666006 221.68802883 -52.89666006 221.68802883 -52 226 C-47.07022981 225.88174635 -42.14066104 225.75749758 -37.21118164 225.62768555 C-35.53414013 225.58436833 -33.85705542 225.54269093 -32.17993164 225.50268555 C-29.76956159 225.44490515 -27.3594083 225.3812332 -24.94921875 225.31640625 C-23.82407112 225.29133751 -23.82407112 225.29133751 -22.67619324 225.26576233 C-19.54322008 225.17655767 -16.9929064 224.99763547 -14 224 C-12.38440559 220.76881118 -12.85735581 217.23235465 -12.86196899 213.68232727 C-12.85914771 212.81167718 -12.85632643 211.94102708 -12.85341966 211.04399365 C-12.84504705 208.10915422 -12.84373313 205.17435238 -12.84228516 202.23950195 C-12.83761884 200.14221591 -12.83247558 198.04493089 -12.82688904 195.94764709 C-12.81559227 191.42195543 -12.80716567 186.89627042 -12.80076981 182.37056923 C-12.79010732 175.21480976 -12.76986673 168.05909786 -12.74765015 160.90336609 C-12.68566837 140.55189189 -12.63171577 120.20042013 -12.59863281 99.84887695 C-12.58029245 88.61598251 -12.55136253 77.38316736 -12.5106281 66.1503312 C-12.48954595 60.20383637 -12.47409913 54.25744154 -12.47182083 48.31090736 C-12.46967466 42.71553973 -12.45380818 37.12038018 -12.42743111 31.52507591 C-12.42023513 29.47201561 -12.41813858 27.4189301 -12.42153358 25.36585999 C-12.42543036 22.56119074 -12.41096673 19.7571854 -12.39199829 16.95259094 C-12.39752799 16.14168214 -12.40305768 15.33077333 -12.40875494 14.49529153 C-12.34806315 9.29004935 -11.46040967 5.61638167 -9 1 C-5.90826248 -0.54586876 -3.40570448 -0.29359521 0 0 Z M-173 141 C-167.95411445 147.10361414 -162.50367537 152.78165196 -156.94042969 158.40966797 C-155.88787408 159.47896728 -154.84073837 160.55362613 -153.79882812 161.63330078 C-152.28139982 163.20519359 -150.7484356 164.76026348 -149.2109375 166.3125 C-148.30649902 167.23675781 -147.40206055 168.16101563 -146.47021484 169.11328125 C-144.23074797 171.26358351 -144.23074797 171.26358351 -141.85449219 170.81005859 C-141.24250977 170.54273926 -140.63052734 170.27541992 -140 170 C-131.40983096 169.18521432 -123.98742175 169.52609921 -117 175 C-111.46536575 181.34788663 -109.59597282 187.02945638 -109.73046875 195.34375 C-110.3923366 201.86650565 -113.10853309 206.51801727 -117.875 210.9375 C-124.15171955 215.92195376 -130.15019152 216.77769 -138 216 C-144.28616646 214.57839345 -149.58466646 211.58549513 -153.2578125 206.1328125 C-156.64473936 199.66686122 -156.5844698 193.15735968 -156 186 C-155.7775209 185.34408875 -155.55504181 184.68817749 -155.32582092 184.01239014 C-154.77139971 181.98255104 -154.77139971 181.98255104 -155.98069763 180.41802979 C-156.49810013 179.91173035 -157.01550262 179.40543091 -157.54858398 178.88378906 C-158.12926132 178.30348938 -158.70993866 177.7231897 -159.30821228 177.12530518 C-159.94771317 176.51161072 -160.58721405 175.89791626 -161.24609375 175.265625 C-161.891194 174.62759949 -162.53629425 173.98957397 -163.20094299 173.33221436 C-165.26838348 171.29280998 -167.35251044 169.27144473 -169.4375 167.25 C-170.84032498 165.87224568 -172.24203294 164.49335302 -173.64257812 163.11328125 C-177.0822194 159.72883194 -180.53692853 156.36046428 -184 153 C-185.37803324 157.13409972 -183.82009583 159.76390061 -182.2734375 163.62890625 C-181.82447365 164.78387352 -181.82447365 164.78387352 -181.36643982 165.96217346 C-180.37808831 168.49915278 -179.37675924 171.0307882 -178.375 173.5625 C-177.34013911 176.20383867 -176.30801251 178.8462361 -175.27589417 181.48864746 C-174.56973979 183.29550238 -173.86240006 185.10189445 -173.15391541 186.90783691 C-170.80165365 192.91136813 -168.50450606 198.93324604 -166.24609375 204.97265625 C-165.66040528 206.5325031 -165.07463245 208.09231827 -164.48876953 209.65209961 C-163.65539495 211.87168289 -162.82467464 214.09205412 -162.00286865 216.31594849 C-161.24588164 218.36228612 -160.47765607 220.40407917 -159.70703125 222.4453125 C-159.2788208 223.59531738 -158.85061035 224.74532227 -158.40942383 225.93017578 C-156.87528933 229.27162861 -155.72694662 231.51108228 -153 234 C-149.94401037 234.69341277 -147.43131004 235.04726592 -144.34375 235.19140625 C-143.49219833 235.24087402 -142.64064667 235.2903418 -141.76329041 235.34130859 C-120.86012196 236.51635351 -120.86012196 236.51635351 -101.96704102 228.91357422 C-93.11694028 220.68787495 -91.12633523 212.53156452 -90.60176086 200.87528992 C-90.45340293 194.42714999 -90.60923402 187.9956348 -91.00390625 181.55859375 C-91.07631027 180.33159256 -91.07631027 180.33159256 -91.150177 179.07980347 C-91.40874956 174.93509066 -91.40874956 174.93509066 -93.30966187 171.36807251 C-95.07918486 169.93591186 -96.58764343 169.1506441 -98.70336914 168.32397461 C-99.45412216 168.02664932 -100.20487518 167.72932404 -100.9783783 167.42298889 C-101.80149002 167.10680099 -102.62460175 166.7906131 -103.47265625 166.46484375 C-104.34632339 166.12259262 -105.21999054 165.78034149 -106.12013245 165.42771912 C-109.07612275 164.27461019 -112.03732905 163.13582947 -115 162 C-116.06095886 161.59211243 -117.12191772 161.18422485 -118.21502686 160.76397705 C-125.09460046 158.1231367 -131.9835599 155.50779372 -138.87817383 152.90649414 C-142.48616097 151.54412572 -146.09172441 150.17546719 -149.69726562 148.80664062 C-152.00506448 147.93451506 -154.31300196 147.06275625 -156.62109375 146.19140625 C-157.69185654 145.78418839 -158.76261932 145.37697052 -159.86582947 144.95741272 C-160.86199783 144.58289474 -161.8581662 144.20837677 -162.88452148 143.82250977 C-163.75463364 143.49356216 -164.62474579 143.16461456 -165.52122498 142.82569885 C-168.00046874 141.99984386 -170.4291634 141.455254 -173 141 Z M-139.4375 186.5625 C-141.58879747 189.91852406 -141.48947291 192.08421671 -141 196 C-140.09764165 198.48105194 -140.09764165 198.48105194 -138 200 C-134.63239813 201.1716367 -134.63239813 201.1716367 -131 201 C-127.49050337 199.09266488 -126.28889051 197.84861588 -125 194.0625 C-125 190.42758706 -125.80038586 188.85135167 -128 186 C-131.91790131 184.04104935 -135.78225905 184.21939682 -139.4375 186.5625 Z M-80.61376953 224.38671875 C-81.70859409 225.48186113 -82.79790282 226.58253455 -83.8828125 227.6875 C-84.45707977 228.26459717 -85.03134705 228.84169434 -85.62301636 229.4362793 C-87.4617411 231.28622702 -89.29340305 233.14299749 -91.125 235 C-92.3680316 236.25305865 -93.61151546 237.50566884 -94.85546875 238.7578125 C-97.90892412 241.83335632 -100.95606145 244.91503802 -104 248 C-102.59321502 250.9409769 -101.23826794 252.98948284 -98.875 255.25 C-97.92625 256.1575 -96.9775 257.065 -96 258 C-91.99482604 256.39626852 -89.3228902 253.57886014 -86.359375 250.5546875 C-85.56880707 249.75987473 -85.56880707 249.75987473 -84.76226807 248.94900513 C-83.08674325 247.26232175 -81.41832278 245.56880436 -79.75 243.875 C-78.61244149 242.72740612 -77.47442564 241.58026539 -76.3359375 240.43359375 C-73.55196535 237.62761863 -70.7743424 234.81549536 -68 232 C-69.38562836 229.11723885 -70.7193933 227.00780064 -73 224.75 C-73.515625 224.22921875 -74.03125 223.7084375 -74.5625 223.171875 C-77.33340865 220.91298208 -78.04662022 222.04257046 -80.61376953 224.38671875 Z " fill="#000000" transform="translate(508,182)"/>
<path d="M0 0 C0.97438522 -0.00860046 1.94877045 -0.01720093 2.9526825 -0.02606201 C4.55410599 -0.03245193 4.55410599 -0.03245193 6.18788147 -0.03897095 C7.87602211 -0.05123718 7.87602211 -0.05123718 9.5982666 -0.06375122 C13.32873499 -0.08859943 17.05916544 -0.10511686 20.78968811 -0.11953735 C22.69773822 -0.12752287 22.69773822 -0.12752287 24.64433479 -0.13566971 C29.98790288 -0.15689407 35.33145766 -0.17602547 40.6750555 -0.1872921 C48.33177921 -0.20354317 55.98799649 -0.23676053 63.64452928 -0.29369295 C69.67855419 -0.33703204 75.71234808 -0.35303362 81.74653816 -0.35942459 C84.31385981 -0.36615827 86.88117346 -0.38143469 89.44839287 -0.4053154 C93.03512915 -0.43678521 96.62057576 -0.43703077 100.20741272 -0.42959595 C101.27300415 -0.44600128 102.33859558 -0.46240662 103.43647766 -0.47930908 C110.59470319 -0.41837452 110.59470319 -0.41837452 113.95718384 2.46380615 C115.73827952 6.13486018 115.34156737 8.26869733 114.26234436 12.15390015 C112.67163057 14.25049847 111.81476184 15.05134433 109.20487404 15.53586769 C108.01305802 15.54083291 108.01305802 15.54083291 106.79716492 15.54589844 C105.88312393 15.55699142 104.96908295 15.56808441 104.02734375 15.57951355 C102.52645958 15.57500435 102.52645958 15.57500435 100.99525452 15.57040405 C99.41193581 15.58328209 99.41193581 15.58328209 97.79663086 15.59642029 C94.29815579 15.62156703 90.7999642 15.62586763 87.30140686 15.63046265 C84.8738569 15.64476731 82.44631509 15.66052334 80.01878357 15.67767334 C73.61905033 15.7196075 67.21936757 15.74454736 60.8195343 15.76516724 C50.58218938 15.80092048 40.34496935 15.86198566 30.10775375 15.92365646 C26.52871986 15.94275025 22.9497192 15.95448007 19.37065125 15.96508789 C17.17650787 15.97530106 14.98236516 15.98565906 12.78822327 15.9961853 C11.79168228 15.99722763 10.7951413 15.99826996 9.7684021 15.99934387 C8.84872147 16.00479721 7.92904083 16.01025055 6.98149109 16.01586914 C6.18619303 16.01842524 5.39089497 16.02098133 4.57149696 16.02361488 C2.0608734 16.16526739 -0.28586365 16.60754396 -2.73765564 17.15390015 C-5.81292229 32.53023339 -4.36440798 48.47749829 -4.73765564 64.15390015 C153.99234436 64.15390015 312.72234436 64.15390015 476.26234436 64.15390015 C475.93234436 48.64390015 475.60234436 33.13390015 475.26234436 17.15390015 C471.36284373 16.37400002 468.37336528 16.02830975 464.47331142 16.0264082 C463.30933565 16.02340055 462.14535987 16.0203929 460.9461121 16.01729411 C459.67160995 16.01904448 458.3971078 16.02079485 457.08398438 16.02259827 C455.71308554 16.02089559 454.3421872 16.01874566 452.97128969 16.01618701 C449.99135839 16.01159341 447.01144785 16.01016848 444.03151321 16.01115227 C439.1830692 16.01274597 434.33464577 16.00754106 429.48620605 16.00152588 C422.44777368 15.99341539 415.40934492 15.98847 408.37090874 15.98523521 C397.25035959 15.97973875 386.1298411 15.96284239 375.00930786 15.94389343 C371.20533281 15.93753692 367.40135767 15.93122849 363.59738255 15.92491627 C362.17146675 15.92254062 362.17146675 15.92254062 360.71674458 15.92011699 C349.89755543 15.90218281 339.07836412 15.8859541 328.25917053 15.87094116 C327.27016318 15.86956529 326.28115582 15.86818942 325.26217855 15.86677185 C309.22174804 15.8448241 293.18132542 15.834081 277.14088254 15.82657041 C260.67864877 15.81850688 244.21648283 15.79524329 227.75428778 15.75861675 C217.59600512 15.73656349 207.4378618 15.72693569 197.2795564 15.73311708 C190.32312327 15.73628526 183.36680942 15.72500416 176.4104132 15.70222267 C172.39369433 15.68952272 168.37724109 15.68342362 164.36051178 15.69463921 C160.68598613 15.70476783 157.01197743 15.69664222 153.33751316 15.67377625 C151.37329132 15.66637735 149.40902604 15.67874796 147.44483322 15.6917364 C146.28346519 15.68090551 145.12209716 15.67007462 143.92553616 15.65891552 C142.9212282 15.65793871 141.91692025 15.6569619 140.88217872 15.65595549 C137.51481228 15.01064587 136.32772876 13.84714499 134.26234436 11.15390015 C133.76234436 7.65390015 133.76234436 7.65390015 134.26234436 4.15390015 C136.34050384 1.4336371 137.52572052 0.29268396 140.92361093 -0.34749651 C141.947557 -0.34814592 142.97150307 -0.34879533 144.02647781 -0.34946442 C145.80233037 -0.3651109 145.80233037 -0.3651109 147.61405873 -0.38107347 C148.91598188 -0.37215059 150.21790503 -0.3632277 151.5592804 -0.35403442 C152.95534502 -0.35864217 154.3514048 -0.36499425 155.7474544 -0.3729434 C159.58823717 -0.38967832 163.42862359 -0.38137163 167.26940799 -0.36899853 C171.40997965 -0.35996693 175.55048204 -0.37390857 179.69104004 -0.38491821 C187.80528606 -0.40273018 195.91938431 -0.39885102 204.03363618 -0.38726765 C210.6291183 -0.37824162 217.22455895 -0.37700573 223.82004547 -0.38136292 C224.75804119 -0.38197585 225.69603691 -0.38258878 226.66245674 -0.38322029 C228.56790776 -0.38449917 230.47335878 -0.38579602 232.37880978 -0.38711065 C250.25925105 -0.39852493 268.13961038 -0.38539076 286.02003822 -0.36390918 C301.36077642 -0.3460491 316.70139352 -0.34913167 332.04212952 -0.36758423 C349.85148862 -0.3889961 367.66077577 -0.39741391 385.47014594 -0.38513517 C387.36989068 -0.38386097 389.26963543 -0.38260349 391.16938019 -0.38136292 C392.10410792 -0.38074581 393.03883565 -0.38012871 394.00188847 -0.37949291 C400.58705892 -0.37604009 407.17218373 -0.38186714 413.75734711 -0.39128113 C421.78627129 -0.40250652 429.81503906 -0.39945021 437.84394535 -0.37815815 C441.94014075 -0.36765318 446.0360755 -0.36351621 450.13226891 -0.37675476 C453.88413427 -0.38869686 457.63549807 -0.3820866 461.3873181 -0.36084455 C463.38343145 -0.354278 465.37957975 -0.36729872 467.37565637 -0.38107347 C475.35801116 -0.31135768 481.39880965 0.33435255 487.32093811 6.1890564 C487.77597717 6.85807983 488.23101624 7.52710327 488.69984436 8.21640015 C489.1729303 8.88800171 489.64601624 9.55960327 490.13343811 10.2515564 C492.2775492 13.86464325 492.39120101 16.85147887 492.40278625 20.96127319 C492.41135147 22.77841324 492.41135147 22.77841324 492.42008972 24.63226318 C492.42133504 25.97671499 492.42246014 27.3211669 492.42347717 28.6656189 C492.42810584 30.07989634 492.43313056 31.49417253 492.43852234 32.90844727 C492.45164042 36.75132322 492.4580897 40.59418172 492.462533 44.43707657 C492.46546361 46.83669521 492.46956832 49.23630906 492.47403717 51.63592529 C492.48770819 59.14039113 492.49737778 66.64484604 492.50123906 74.14932346 C492.5057243 82.81910964 492.52329532 91.4887385 492.55223966 100.15847683 C492.57382781 106.85662124 492.58394174 113.55472128 492.58528018 120.25290012 C492.58632993 124.25539254 492.59227393 128.257737 492.61009979 132.26019287 C492.62653192 136.02275736 492.62875989 139.78506188 492.61996078 143.54764938 C492.61918789 144.92997304 492.62356626 146.3123104 492.63341904 147.69459915 C492.64606226 149.57853309 492.63849793 151.46257065 492.62983704 153.3465271 C492.6313036 154.40177078 492.63277016 155.45701447 492.63428116 156.54423523 C492.26234436 159.15390015 492.26234436 159.15390015 490.91906357 160.96217346 C488.383495 162.78608225 486.35953799 163.0300124 483.26234436 163.15390015 C480.9350288 162.01610143 479.09393722 160.98549301 477.26234436 159.15390015 C477.26234436 133.08390015 477.26234436 107.01390015 477.26234436 80.15390015 C318.20234436 80.15390015 159.14234436 80.15390015 -4.73765564 80.15390015 C-4.73765564 159.02390015 -4.73765564 237.89390015 -4.73765564 319.15390015 C-7.73765564 322.15390015 -7.73765564 322.15390015 -9.89390564 322.55233765 C-10.66734314 322.54460327 -11.44078064 322.5368689 -12.23765564 322.52890015 C-13.01109314 322.53663452 -13.78453064 322.5443689 -14.58140564 322.55233765 C-17.30947854 322.04823722 -18.04902491 321.33428486 -19.73765564 319.15390015 C-20.1148538 316.8412531 -20.1148538 316.8412531 -20.11797237 314.05942249 C-20.12641231 312.99943068 -20.13485226 311.93943887 -20.14354795 310.8473261 C-20.13753791 309.6786733 -20.13152786 308.5100205 -20.12533569 307.30595398 C-20.13072123 306.06763531 -20.13610677 304.82931665 -20.1416555 303.55347317 C-20.15351688 300.10945091 -20.15184954 296.66591044 -20.14448869 293.22190678 C-20.13977178 289.51009227 -20.15225397 285.79833041 -20.1625061 282.08653259 C-20.17973066 274.81105233 -20.18052628 267.53565829 -20.1752932 260.26016293 C-20.17125577 254.3459152 -20.17268998 248.43169301 -20.17804146 242.51744652 C-20.17878988 241.67645295 -20.1795383 240.83545939 -20.1803094 239.96898117 C-20.18184086 238.26058362 -20.1833792 236.55218607 -20.18492437 234.84378853 C-20.19866353 218.80941967 -20.1932026 202.77509955 -20.18173916 186.7407318 C-20.17181317 172.07372993 -20.18473394 157.40685434 -20.20867335 142.73987196 C-20.2330633 127.68343998 -20.24267199 112.62706681 -20.23602062 97.57061547 C-20.23252715 89.11624145 -20.23476847 80.66196446 -20.25227165 72.20760536 C-20.26699267 65.00759907 -20.26763085 57.80775808 -20.25020074 50.60775504 C-20.24168597 46.93483129 -20.23955232 43.26220282 -20.25485229 39.58929443 C-20.27124368 35.60496653 -20.25655672 31.62109457 -20.23886108 27.63676453 C-20.24846609 26.47926534 -20.2580711 25.32176614 -20.26796716 24.12919122 C-20.1983922 16.52231811 -19.27202777 10.72897522 -13.70249939 5.0953064 C-13.03347595 4.64026733 -12.36445251 4.18522827 -11.67515564 3.71640015 C-11.00355408 3.24331421 -10.33195251 2.77022827 -9.63999939 2.2828064 C-6.38333215 0.3502051 -3.70201052 0.02434172 0 0 Z " fill="#000000" transform="translate(19.737655639648438,-0.153900146484375)"/>
<path d="M0 0 C1.09054688 -0.02449219 2.18109375 -0.04898438 3.3046875 -0.07421875 C11.58259891 -0.10392417 18.68700864 1.05950684 25.3125 6.3046875 C30.96366763 13.3403912 32.85854594 19.32352647 31.875 28.375 C31.09289109 30.92024462 30.11381071 33.0006128 28.875 35.375 C29.27332031 35.8596875 29.67164063 36.344375 30.08203125 36.84375 C35.05404294 43.13437306 38.55807237 49.01550066 38.15234375 57.30859375 C37.08782949 65.23997461 33.90777545 71.08435169 27.875 76.375 C19.55319796 81.74690952 11.62531008 81.61429237 1.9375 81.6875 C0.02420898 81.73100586 0.02420898 81.73100586 -1.92773438 81.77539062 C-3.15685547 81.78376953 -4.38597656 81.79214844 -5.65234375 81.80078125 C-6.77374756 81.81536377 -7.89515137 81.82994629 -9.05053711 81.8449707 C-12.82078701 81.26864012 -14.4527345 80.05089342 -17.125 77.375 C-18.25157015 73.99528956 -18.25884319 71.41891878 -18.27026367 67.85571289 C-18.27362228 67.19845718 -18.2769809 66.54120148 -18.28044128 65.86402893 C-18.28993824 63.69188547 -18.2918937 61.51981918 -18.29296875 59.34765625 C-18.29618201 57.83694934 -18.29954613 56.32624275 -18.30305481 54.8155365 C-18.30904279 51.64890827 -18.31089503 48.48230732 -18.31030273 45.31567383 C-18.31020109 41.25917247 -18.32385751 37.20284604 -18.34107494 33.14638615 C-18.3521959 30.02627255 -18.35422192 26.90620125 -18.35369301 23.78606987 C-18.35487282 22.29055617 -18.35929466 20.79504138 -18.36702538 19.2995472 C-18.3768281 17.20746746 -18.37394641 15.11576756 -18.36791992 13.02368164 C-18.37005745 11.23855919 -18.37005745 11.23855919 -18.37223816 9.41737366 C-18.13265932 6.46925134 -17.73846951 4.82037156 -16.125 2.375 C-11.4131129 -0.87693853 -5.48640476 0.00635001 0 0 Z M-2.125 16.375 C-2.125 20.995 -2.125 25.615 -2.125 30.375 C6.50632433 31.15162842 6.50632433 31.15162842 14.25 28.25 C16.12032507 25.47179133 16.12032507 25.47179133 15.9375 22.25 C14.69654864 18.89213162 13.95453255 18.11649353 10.875 16.375 C7.59783998 16.01291904 7.59783998 16.01291904 4.125 16.1875 C2.0625 16.249375 0 16.31125 -2.125 16.375 Z M-2.125 46.375 C-2.125 52.645 -2.125 58.915 -2.125 65.375 C0.411875 65.436875 2.94875 65.49875 5.5625 65.5625 C6.74718872 65.60346802 6.74718872 65.60346802 7.95581055 65.64526367 C12.49621368 65.69865316 15.28297259 65.17102878 18.875 62.375 C21.2235228 59.47848854 21.88901228 58.06160183 21.8125 54.3125 C20.74860528 50.97896321 19.55931944 49.57126136 16.875 47.375 C13.56928083 45.72214041 9.879622 46.2744882 6.25 46.3125 C2.104375 46.3434375 2.104375 46.3434375 -2.125 46.375 Z " fill="#000000" transform="translate(107.125,163.625)"/>
<path d="M0 0 C6.93322314 2.31107438 10.74620631 9.68028265 14.6875 15.5625 C15.63705218 16.96159541 16.58761059 18.36000831 17.5390625 19.7578125 C18.02922852 20.4787207 18.51939453 21.19962891 19.02441406 21.94238281 C21.6671207 25.79989554 24.36351566 29.61924314 27.0625 33.4375 C27.56668457 34.15212402 28.07086914 34.86674805 28.59033203 35.60302734 C30.87321275 38.83124193 33.18084916 42.03103262 35.5625 45.1875 C35.56660889 44.00196533 35.57071777 42.81643066 35.57495117 41.5949707 C35.59675989 37.18697928 35.65106741 32.77987828 35.71508789 28.37231445 C35.73825277 26.46647693 35.75266007 24.56051167 35.75805664 22.65454102 C35.76735741 19.91081277 35.80837071 17.16908937 35.85546875 14.42578125 C35.84956978 13.15206413 35.84956978 13.15206413 35.84355164 11.85261536 C35.95151093 7.45329477 36.15433658 5.70379056 38.97338867 2.13793945 C41.5625 0.1875 41.5625 0.1875 43.6953125 -0.2578125 C44.35273438 -0.15210938 45.01015625 -0.04640625 45.6875 0.0625 C46.35007812 0.14242187 47.01265625 0.22234375 47.6953125 0.3046875 C50.51648745 1.63854846 51.20328185 3.41198541 52.5625 6.1875 C52.9367218 9.38136292 52.9367218 9.38136292 52.93481445 13.02563477 C52.93846512 13.6929361 52.94211578 14.36023743 52.94587708 15.04776001 C52.95394787 17.24173863 52.94040372 19.43497062 52.92578125 21.62890625 C52.92526228 23.1591746 52.9257814 24.68944362 52.92729187 26.2197113 C52.92720231 29.42155961 52.9168044 32.62315529 52.89868164 35.82495117 C52.87597573 39.92627059 52.87545552 44.02722176 52.88219929 48.12858677 C52.88554239 51.28646612 52.87890307 54.44426171 52.86907005 57.60212517 C52.8652251 59.11437479 52.86406692 60.62663373 52.8656559 62.13888741 C52.86602727 64.25235853 52.85338758 66.36535939 52.8371582 68.47875977 C52.83255081 69.68057388 52.82794342 70.882388 52.82319641 72.12062073 C52.57202615 75.07543262 52.16994967 76.73159961 50.5625 79.1875 C48.07035147 81.12583775 46.42907092 81.19505259 43.25 81.375 C39.23850934 80.08316402 38.66231695 79.45506382 36.2578125 76.21875 C35.64993896 75.40494873 35.04206543 74.59114746 34.41577148 73.75268555 C31.48531247 69.69652261 28.59664344 65.61543308 25.75 61.5 C20.090918 53.34484682 14.34435266 45.25582915 8.5625 37.1875 C8.54268066 38.25186279 8.52286133 39.31622559 8.50244141 40.4128418 C8.42619208 44.37336307 8.33750486 48.3335262 8.24511719 52.29370117 C8.20690715 54.00554314 8.17204048 55.71746322 8.140625 57.42944336 C8.09480062 59.89465183 8.03683587 62.35932633 7.9765625 64.82421875 C7.95923569 65.96669319 7.95923569 65.96669319 7.94155884 67.13224792 C7.80100914 72.22783358 7.35051136 76.20082071 3.875 80.0625 C0.46105615 81.72333755 -1.82507223 81.10702707 -5.4375 80.1875 C-7.12609863 79.06895447 -7.12609863 79.06895447 -8.4375 77.1875 C-8.83190918 74.08229065 -8.83190918 74.08229065 -8.85742188 70.20922852 C-8.86589142 69.50320496 -8.87436096 68.7971814 -8.88308716 68.06976318 C-8.90649258 65.7351278 -8.90747853 63.4011501 -8.90625 61.06640625 C-8.91334957 59.44359574 -8.92104826 57.82078774 -8.92932129 56.19798279 C-8.94277426 52.79589868 -8.94433132 49.39404664 -8.93847656 45.99194336 C-8.93258007 41.63240035 -8.96316482 37.27397087 -9.00359344 32.91464329 C-9.02944534 29.56286115 -9.03235019 26.211348 -9.02870178 22.8594799 C-9.03039546 21.2523004 -9.04006192 19.6451088 -9.05784607 18.03802681 C-9.07998811 15.78964909 -9.07036175 13.54353608 -9.05273438 11.29516602 C-9.05478882 10.01625992 -9.05684326 8.73735382 -9.05895996 7.41969299 C-8.4375 4.1875 -8.4375 4.1875 -6.1138916 1.75498962 C-3.4375 0.1875 -3.4375 0.1875 0 0 Z " fill="#000000" transform="translate(300.4375,163.8125)"/>
<path d="M0 0 C1.08216797 -0.01611328 2.16433594 -0.03222656 3.27929688 -0.04882812 C13.73238711 -0.05509873 22.82763654 1.38389111 30.93359375 8.30078125 C39.9675207 17.36992819 42.39515473 27.94605922 43 40.43359375 C42.81350366 52.00802269 39.61858689 63.57481982 31.625 72.1875 C22.4319067 80.62608457 11.18847458 81.67201487 -0.8125 81.6875 C-1.82699219 81.71199219 -2.84148437 81.73648438 -3.88671875 81.76171875 C-11.27118919 81.79082967 -11.27118919 81.79082967 -15.203125 79.4140625 C-18.37551941 75.82845705 -18.19285637 73.54420033 -18.20776367 68.81494141 C-18.21112228 68.14807816 -18.2144809 67.4812149 -18.21794128 66.79414368 C-18.22745948 64.58409779 -18.22939491 62.37412762 -18.23046875 60.1640625 C-18.23368104 58.62950611 -18.23704509 57.09495003 -18.24055481 55.56039429 C-18.24654847 52.34071137 -18.2483945 49.1210553 -18.24780273 45.90136719 C-18.24770117 41.77645698 -18.26134652 37.65171912 -18.27857494 33.52684975 C-18.28969671 30.35612193 -18.29172188 27.18543573 -18.29119301 24.0146904 C-18.29237312 22.49405702 -18.29679667 20.97342257 -18.30452538 19.45280838 C-18.3143277 17.32469901 -18.31144631 15.1969631 -18.30541992 13.06884766 C-18.30684494 11.85798492 -18.30826996 10.64712219 -18.30973816 9.39956665 C-18.07170985 6.42749611 -17.69280839 4.77327991 -16.0625 2.3125 C-11.36149183 -0.93372541 -5.47195177 -0.01589759 0 0 Z M-2.0625 16.3125 C-2.0625 32.4825 -2.0625 48.6525 -2.0625 65.3125 C10.94554907 65.83609211 10.94554907 65.83609211 20.68359375 59.6171875 C26.31181322 52.94970448 27.22412495 45.8224206 26.875 37.3125 C26.15562371 30.82138368 24.25117043 24.44346179 19.37890625 19.83984375 C12.25946673 14.88641825 7.46867926 16.3125 -2.0625 16.3125 Z " fill="#000000" transform="translate(380.0625,163.6875)"/>
<path d="M0 0 C1.05574219 -0.01611328 2.11148438 -0.03222656 3.19921875 -0.04882812 C12.90220064 -0.05483989 20.49534788 1.47334657 27.64453125 8.30859375 C32.7815504 14.2573315 34.11683212 20.55747632 33.8203125 28.31640625 C32.70689655 35.8075469 29.03484969 41.64360692 23.08984375 46.26171875 C20.8980593 47.6047484 18.93575379 48.1573028 16.375 48.3125 C19.34203919 53.05401542 22.70983782 57.01929602 26.5625 61.0625 C33.82313883 68.72603142 33.82313883 68.72603142 33.71484375 75.33203125 C33.375 77.3125 33.375 77.3125 31.3125 79.875 C28.375 81.3125 28.375 81.3125 25.125 81.625 C19.46340755 79.64344264 16.30022397 75.72576247 12.375 71.3125 C11.74207031 70.60996094 11.10914063 69.90742188 10.45703125 69.18359375 C8.7389469 67.24553392 7.0530117 65.28534673 5.375 63.3125 C4.30635633 62.06478996 3.23731874 60.81741724 2.16796875 59.5703125 C1.64098389 58.95559082 1.11399902 58.34086914 0.57104492 57.70751953 C0.1763501 57.24716309 -0.21834473 56.78680664 -0.625 56.3125 C-0.63116333 57.23530762 -0.63116333 57.23530762 -0.63745117 58.17675781 C-0.67041296 60.97297231 -0.74105576 63.76701504 -0.8125 66.5625 C-0.81830078 67.53058594 -0.82410156 68.49867188 -0.83007812 69.49609375 C-1.05219047 76.65304701 -1.05219047 76.65304701 -3.94921875 79.98828125 C-7.6111678 81.80054509 -9.73686767 81.39253676 -13.625 80.3125 C-16.20955285 78.41716125 -16.58775506 77.42423483 -17.625 74.3125 C-17.72946575 72.177172 -17.7736406 70.03872425 -17.78613281 67.90087891 C-17.79109772 67.25498306 -17.79606262 66.60908722 -17.80117798 65.94361877 C-17.81577225 63.80875581 -17.82259685 61.67396714 -17.828125 59.5390625 C-17.83387854 58.05317178 -17.83963625 56.56728107 -17.84539795 55.08139038 C-17.85590003 51.96604059 -17.86174793 48.85071656 -17.86523438 45.73535156 C-17.87071867 41.74837351 -17.89474832 37.76173705 -17.92320633 33.7748661 C-17.94185283 30.7053224 -17.94703936 27.63586066 -17.94857025 24.56626511 C-17.95159258 23.09668484 -17.959607 21.62710588 -17.97275543 20.15758133 C-17.98985944 18.09909497 -17.98792575 16.04143924 -17.98144531 13.98291016 C-17.98691376 12.22776596 -17.98691376 12.22776596 -17.99249268 10.43716431 C-17.5815982 6.94346939 -16.73127141 5.10543457 -14.625 2.3125 C-10.02479025 -0.7543065 -5.41151092 -0.01616341 0 0 Z M-1.625 16.3125 C-1.625 22.2525 -1.625 28.1925 -1.625 34.3125 C7.34792864 34.83442566 7.34792864 34.83442566 15.375 31.3125 C17.72049674 27.79425489 17.95491403 26.45474306 17.375 22.3125 C15.202365 19.73964276 13.39506162 17.82253081 10.375 16.3125 C8.33444995 16.24184383 6.29165743 16.22828024 4.25 16.25 C2.31125 16.270625 0.3725 16.29125 -1.625 16.3125 Z " fill="#000000" transform="translate(171.625,163.6875)"/>
<path d="M0 0 C4.99968431 6.68810229 7.65678301 14.29711239 10.5625 22.0625 C11.33993689 24.11756969 12.11960602 26.1717833 12.89945984 28.22593689 C13.438035 29.64518659 13.97555089 31.06483868 14.51203918 32.48487854 C16.44461004 37.58693625 18.44922958 42.65685158 20.484375 47.71875 C21.32308108 49.82113084 22.16053711 51.92400491 22.99752808 54.02706909 C23.53754955 55.37579824 24.08235822 56.72262121 24.6321106 58.06741333 C25.39948443 59.94714606 26.1474246 61.83477665 26.89453125 63.72265625 C27.32612549 64.79265869 27.75771973 65.86266113 28.20239258 66.96508789 C29.10626868 70.40435443 28.88219732 72.5801429 28 76 C26.24885053 78.82129637 24.86686828 79.03944644 21.625 80 C18 80 18 80 15.3125 78.1875 C13 75 13 75 9 65 C-4.86 64.505 -4.86 64.505 -19 64 C-19.33 65.65 -19.66 67.3 -20 69 C-20.5514548 70.58187269 -21.15575055 72.14636283 -21.8125 73.6875 C-22.12832031 74.45449219 -22.44414062 75.22148437 -22.76953125 76.01171875 C-24.25765884 78.41634396 -25.34791278 79.08120574 -28 80 C-31.68060775 79.87085587 -34.0716765 79.77859391 -36.9375 77.375 C-39.02884435 72.70023028 -38.27183128 68.28609866 -36.58227539 63.60717773 C-35.93304395 61.96107529 -35.2707432 60.32008655 -34.59765625 58.68359375 C-34.24429703 57.7974086 -33.89093781 56.91122345 -33.52687073 55.9981842 C-32.38374774 53.13977511 -31.223682 50.28861492 -30.0625 47.4375 C-29.2762746 45.48473969 -28.49095629 43.53161392 -27.70654297 41.578125 C-26.17164416 37.76138326 -24.62980215 33.94757144 -23.08154297 30.13623047 C-21.35819831 25.89162974 -19.65877625 21.63842165 -17.97265625 17.37890625 C-17.19070656 15.41903038 -16.40822802 13.45936536 -15.625 11.5 C-15.28734619 10.6433374 -14.94969238 9.7866748 -14.60180664 8.90405273 C-11.49368773 1.24663819 -8.62174511 -2.48423164 0 0 Z M-5 30 C-7.8018492 35.91382675 -10.44303409 41.630594 -12 48 C-7.38 48 -2.76 48 2 48 C1.19950264 43.19701584 0.32420375 39.97893173 -1.5625 35.625 C-2.01753906 34.56539062 -2.47257812 33.50578125 -2.94140625 32.4140625 C-3.29074219 31.61742187 -3.64007813 30.82078125 -4 30 C-4.33 30 -4.66 30 -5 30 Z " fill="#000000" transform="translate(253,165)"/>
<path d="M0 0 C3 0.625 3 0.625 5.25 3.0625 C8.76936216 6.34190565 10.86768349 6.07382187 15.49609375 6.3359375 C19.56147469 6.80526385 21.72884654 8.15494534 25 10.625 C28.10853931 15.50965207 28.45524858 19.49098172 28.43359375 25.09375 C28.4388356 25.89228394 28.44407745 26.69081787 28.44947815 27.5135498 C28.45587427 29.19440554 28.45459269 30.87530618 28.44604492 32.55615234 C28.43752436 35.1176767 28.4663439 37.67697616 28.49804688 40.23828125 C28.49965896 41.8776035 28.49908121 43.51692968 28.49609375 45.15625 C28.51294472 46.29555969 28.51294472 46.29555969 28.53013611 47.45788574 C28.46318911 52.60292254 27.46009747 55.59358841 24 59.625 C19.71439652 63.22131061 15.53893253 63.09241772 10.19140625 63.09375 C9.34706528 63.10136353 8.5027243 63.10897705 7.63279724 63.11682129 C5.85182646 63.12759866 4.0707926 63.13048501 2.28979492 63.12597656 C-0.42572028 63.12500422 -3.13840802 63.16664938 -5.85351562 63.2109375 C-7.58853581 63.21614509 -9.32356576 63.21883268 -11.05859375 63.21875 C-11.86501816 63.23514526 -12.67144257 63.25154053 -13.50230408 63.26843262 C-19.36329857 63.19706681 -21.89760049 61.8221404 -26 57.625 C-28.24539713 54.41728981 -28.21690942 51.7351958 -28.125 47.875 C-28.10695313 46.89015625 -28.08890625 45.9053125 -28.0703125 44.890625 C-28.04710937 44.14296875 -28.02390625 43.3953125 -28 42.625 C-28.804375 42.33625 -29.60875 42.0475 -30.4375 41.75 C-33 40.625 -33 40.625 -34 38.625 C-34.27182819 34.95531947 -34.45275856 32.46583732 -32.6875 29.1875 C-31 27.625 -31 27.625 -28 27.625 C-28.04640625 26.91214844 -28.0928125 26.19929688 -28.140625 25.46484375 C-28.38872236 18.88140297 -28.14317731 14.85848713 -24 9.625 C-20.32321325 6.99872375 -17.32922394 6.51102371 -12.9375 6.25 C-6.87074469 5.84192229 -5.45189522 1.1358115 0 0 Z M-12 22.625 C-12 30.875 -12 39.125 -12 47.625 C-4.08 47.625 3.84 47.625 12 47.625 C12 39.375 12 31.125 12 22.625 C4.08 22.625 -3.84 22.625 -12 22.625 Z " fill="#000000" transform="translate(452,249.375)"/>
<path d="M0 0 C0.86795197 -0.00761353 1.73590393 -0.01522705 2.63015747 -0.02307129 C4.46418384 -0.03386368 6.29827162 -0.03672888 8.13232422 -0.03222656 C10.92911128 -0.03125562 13.7231412 -0.07285509 16.51953125 -0.1171875 C18.3046818 -0.12239593 20.08984185 -0.12508267 21.875 -0.125 C22.70643524 -0.14139526 23.53787048 -0.15779053 24.39450073 -0.17468262 C28.49759856 -0.12619666 31.23940772 0.16843927 34.52001953 2.75585938 C39.12676722 7.656317 39.37889506 11.1607545 39.37109375 17.77734375 C39.37537888 18.58107925 39.379664 19.38481476 39.38407898 20.21290588 C39.38981242 21.90991272 39.3903298 23.60694412 39.38598633 25.30395508 C39.38282766 27.89382044 39.40629219 30.48254151 39.43164062 33.07226562 C39.43391393 34.7239569 39.43461697 36.37565123 39.43359375 38.02734375 C39.4428035 38.79831894 39.45201324 39.56929413 39.46150208 40.3636322 C39.42243106 44.92685519 38.88291178 47.83925145 36.0703125 51.46875 C31.96213464 55.07593056 29.64904982 56.49243119 24.2578125 56.71875 C19.17813623 57.14873694 17.53175255 58.71885662 14.0703125 62.46875 C11.0703125 63.09375 11.0703125 63.09375 8.0703125 62.46875 C6.9565625 61.2621875 6.9565625 61.2621875 5.8203125 60.03125 C2.30095034 56.75184435 0.20262901 57.01992813 -4.42578125 56.7578125 C-8.49116219 56.28848615 -10.65853404 54.93880466 -13.9296875 52.46875 C-17.84557793 47.28966911 -17.22764151 41.67060761 -16.9296875 35.46875 C-17.5484375 35.365625 -18.1671875 35.2625 -18.8046875 35.15625 C-20.9296875 34.46875 -20.9296875 34.46875 -22.9296875 31.46875 C-23.37320336 27.40318799 -23.59073274 25.32810881 -21.0546875 22.03125 C-18.9296875 20.46875 -18.9296875 20.46875 -16.9296875 20.46875 C-16.97609375 19.74429688 -17.0225 19.01984375 -17.0703125 18.2734375 C-17.3003913 12.11061241 -17.24804611 8.26692623 -12.9296875 3.46875 C-9.15237173 -0.41462431 -5.09567618 0.00122845 0 0 Z M-0.9296875 15.46875 C-0.9296875 23.71875 -0.9296875 31.96875 -0.9296875 40.46875 C6.9903125 40.46875 14.9103125 40.46875 23.0703125 40.46875 C23.0703125 32.21875 23.0703125 23.96875 23.0703125 15.46875 C15.1503125 15.46875 7.2303125 15.46875 -0.9296875 15.46875 Z " fill="#000000" transform="translate(440.9296875,96.53125)"/>
<path d="M0 0 C0.86795197 -0.00761353 1.73590393 -0.01522705 2.63015747 -0.02307129 C4.46418384 -0.03386368 6.29827162 -0.03672888 8.13232422 -0.03222656 C10.92911128 -0.03125562 13.7231412 -0.07285509 16.51953125 -0.1171875 C18.3046818 -0.12239593 20.08984185 -0.12508267 21.875 -0.125 C22.70643524 -0.14139526 23.53787048 -0.15779053 24.39450073 -0.17468262 C28.58692455 -0.1251411 31.24903322 0.18699246 34.55957031 2.88378906 C37.69959283 6.11663216 38.95196656 7.77403611 39.265625 12.265625 C39.24242187 13.24015625 39.21921875 14.2146875 39.1953125 15.21875 C39.17726562 16.20359375 39.15921875 17.1884375 39.140625 18.203125 C39.11742187 18.95078125 39.09421875 19.6984375 39.0703125 20.46875 C40.276875 20.901875 40.276875 20.901875 41.5078125 21.34375 C44.0703125 22.46875 44.0703125 22.46875 45.0703125 24.46875 C45.34214069 28.13843053 45.52307106 30.62791268 43.7578125 33.90625 C42.0703125 35.46875 42.0703125 35.46875 39.0703125 35.46875 C39.12251953 36.55542969 39.12251953 36.55542969 39.17578125 37.6640625 C39.46461386 47.97951272 39.46461386 47.97951272 36.0703125 52.46875 C31.90155742 55.61658547 29.13265983 56.6124807 23.9453125 56.90625 C18.97783649 57.19139213 17.44944836 58.80801949 14.0703125 62.46875 C11.0703125 63.09375 11.0703125 63.09375 8.0703125 62.46875 C6.9565625 61.2621875 6.9565625 61.2621875 5.8203125 60.03125 C2.29284946 56.7442958 0.15067246 57.01134687 -4.4921875 56.76953125 C-9.18259467 56.19074703 -12.97513721 53.04531088 -15.9296875 49.46875 C-17.17818803 45.72324841 -17.13075382 42.19749234 -17.16796875 38.29296875 C-17.1760405 37.49018997 -17.18411224 36.68741119 -17.19242859 35.86030579 C-17.206252 34.16153105 -17.21698195 32.46272875 -17.22485352 30.76391602 C-17.24205585 28.17605492 -17.28595442 25.58947541 -17.33007812 23.00195312 C-17.34020672 21.3489677 -17.34872231 19.69597144 -17.35546875 18.04296875 C-17.37297684 17.27401779 -17.39048492 16.50506683 -17.40852356 15.71281433 C-17.38384028 9.54840884 -15.43094263 6.19739197 -11.23779297 1.62304688 C-7.5944571 -0.19900643 -4.01988912 0.0009691 0 0 Z M-0.9296875 15.46875 C-0.9296875 23.71875 -0.9296875 31.96875 -0.9296875 40.46875 C6.9903125 40.46875 14.9103125 40.46875 23.0703125 40.46875 C23.0703125 32.21875 23.0703125 23.96875 23.0703125 15.46875 C15.1503125 15.46875 7.2303125 15.46875 -0.9296875 15.46875 Z " fill="#000000" transform="translate(48.9296875,96.53125)"/>
<path d="M0 0 C3 0.625 3 0.625 5.0625 3 C8.5009913 6.07269436 10.0158149 6.11050407 14.5 6.625 C20.64583333 7.36111111 20.64583333 7.36111111 24.1875 10 C27.20105105 14.36445325 28.25297207 17.00017316 28.125 22.375 C28.10695312 23.35984375 28.08890625 24.3446875 28.0703125 25.359375 C28.04710937 26.10703125 28.02390625 26.8546875 28 27.625 C28.61875 27.728125 29.2375 27.83125 29.875 27.9375 C32 28.625 32 28.625 34 31.625 C34.44351586 35.69056201 34.66104524 37.76564119 32.125 41.0625 C30 42.625 30 42.625 28 42.625 C28.04640625 43.34945312 28.0928125 44.07390625 28.140625 44.8203125 C28.3707038 50.98313759 28.31835861 54.82682377 24 59.625 C20.88729786 62.80197482 18.1095365 62.99491511 13.75454712 63.06748962 C12.94093719 63.06455399 12.12732727 63.06161835 11.2890625 63.05859375 C10.44330658 63.0638356 9.59755066 63.06907745 8.72616577 63.07447815 C6.93919979 63.08089319 5.15219155 63.07956803 3.36523438 63.07104492 C0.64115489 63.06255038 -2.08081593 63.09127658 -4.8046875 63.12304688 C-6.54427021 63.12465951 -8.28385661 63.12408016 -10.0234375 63.12109375 C-10.83299896 63.13232773 -11.64256042 63.14356171 -12.47665405 63.15513611 C-17.76363829 63.09051009 -20.86753701 62.21468829 -25 58.625 C-28.43329965 54.49262654 -28.43945181 50.41861397 -28.3984375 45.25390625 C-28.40130768 44.45395737 -28.40417786 43.65400848 -28.40713501 42.82981873 C-28.40917059 41.14296763 -28.40367614 39.45609265 -28.39111328 37.76928711 C-28.3750728 35.19916486 -28.39096742 32.63062005 -28.41015625 30.06054688 C-28.40817331 28.41666322 -28.4043286 26.77278054 -28.3984375 25.12890625 C-28.40451019 24.3662294 -28.41058289 23.60355255 -28.4168396 22.81776428 C-28.35451013 18.04458127 -27.6346263 14.75602919 -25 10.625 C-20.83124492 7.47716453 -18.06234733 6.4812693 -12.875 6.1875 C-6.81062779 5.83939404 -5.45045099 1.13551062 0 0 Z M-12 22.625 C-12 30.875 -12 39.125 -12 47.625 C-4.08 47.625 3.84 47.625 12 47.625 C12 39.375 12 31.125 12 22.625 C4.08 22.625 -3.84 22.625 -12 22.625 Z " fill="#000000" transform="translate(60,249.375)"/>
<path d="M0 0 C0.71220703 -0.020625 1.42441406 -0.04125 2.15820312 -0.0625 C6.69956543 -0.0961086 9.59114881 0.42772059 13.1875 3.25 C14.61412219 6.10324437 14.49783868 8.08454549 14.1875 11.25 C12.79296875 13.91015625 12.79296875 13.91015625 10.1875 16.25 C6.84290781 17.00151227 3.60228108 16.94817388 0.1875 16.875 C-1.16601562 16.90400391 -1.16601562 16.90400391 -2.546875 16.93359375 C-9.11088804 16.88504336 -9.11088804 16.88504336 -12.40625 13.90234375 C-14.12541819 10.65980152 -14.42843433 8.86861418 -13.8125 5.25 C-9.70155205 0.17983086 -6.21656128 0.04428539 0 0 Z " fill="#000000" transform="translate(211.8125,275.75)"/>
<path d="M0 0 C0.71607422 -0.01224609 1.43214844 -0.02449219 2.16992188 -0.03710938 C5.94807981 -0.04761398 8.90124385 -0.00346961 12.0625 2.1875 C14.15929403 4.88337803 14.05760821 6.280444 13.875 9.75 C13.05367051 13.22485554 12.7934761 14.11857871 10.0625 16.1875 C6.78049479 16.81508159 3.46033075 16.65096507 0.125 16.625 C-0.78185547 16.64498047 -1.68871094 16.66496094 -2.62304688 16.68554688 C-9.22807815 16.68068666 -9.22807815 16.68068666 -12.5390625 14.37890625 C-14.58437648 11.17381927 -14.4025487 8.90788961 -13.9375 5.1875 C-10.75552235 -0.57036431 -5.96130312 0.00533689 0 0 Z " fill="#000000" transform="translate(343.9375,275.8125)"/>
<path d="M0 0 C1.06154297 -0.0309375 1.06154297 -0.0309375 2.14453125 -0.0625 C6.64452205 -0.09601948 9.63600046 0.32374232 13.125 3.25 C13.97265625 5.1171875 13.97265625 5.1171875 14.1875 7.125 C14.28160156 7.78242188 14.37570312 8.43984375 14.47265625 9.1171875 C13.9061856 12.59238945 12.78336994 13.93630693 10.125 16.25 C6.77875843 16.99581453 3.54039457 16.94818703 0.125 16.875 C-1.22851562 16.90400391 -1.22851562 16.90400391 -2.609375 16.93359375 C-9.17232267 16.88505124 -9.17232267 16.88505124 -12.47265625 13.90234375 C-14.17610355 10.68050331 -14.41072102 8.84698402 -13.875 5.25 C-10.64413391 -0.44247836 -5.9664272 0.04300128 0 0 Z " fill="#000000" transform="translate(299.875,275.75)"/>
<path d="M0 0 C0.71220703 -0.020625 1.42441406 -0.04125 2.15820312 -0.0625 C6.69956543 -0.0961086 9.59114881 0.42772059 13.1875 3.25 C14.61412219 6.10324437 14.49783868 8.08454549 14.1875 11.25 C12.79296875 13.91015625 12.79296875 13.91015625 10.1875 16.25 C6.84290781 17.00151227 3.60228108 16.94817388 0.1875 16.875 C-1.16601562 16.90400391 -1.16601562 16.90400391 -2.546875 16.93359375 C-9.11088804 16.88504336 -9.11088804 16.88504336 -12.40625 13.90234375 C-14.12541819 10.65980152 -14.42843433 8.86861418 -13.8125 5.25 C-9.70155205 0.17983086 -6.21656128 0.04428539 0 0 Z " fill="#000000" transform="translate(255.8125,275.75)"/>
<path d="M0 0 C0.71220703 -0.020625 1.42441406 -0.04125 2.15820312 -0.0625 C6.69956543 -0.0961086 9.59114881 0.42772059 13.1875 3.25 C14.73336876 6.34173752 14.48109521 8.84429552 14.1875 12.25 C12.79296875 14.44140625 12.79296875 14.44140625 10.1875 16.25 C6.84550614 16.86935388 3.57815226 16.85367221 0.1875 16.8125 C-0.71484375 16.83634766 -1.6171875 16.86019531 -2.546875 16.88476562 C-9.10623623 16.87021083 -9.10623623 16.87021083 -12.44140625 13.94140625 C-14.31187227 10.26975074 -13.90123351 8.16944064 -12.8125 4.25 C-9.34829369 -0.26852997 -5.32214402 0.03791376 0 0 Z " fill="#000000" transform="translate(167.8125,275.75)"/>
<path d="M0 0 C1.35351562 -0.03577148 1.35351562 -0.03577148 2.734375 -0.07226562 C9.29373623 -0.05771083 9.29373623 -0.05771083 12.62890625 2.87109375 C14.49937227 6.54274926 14.08873351 8.64305936 13 12.5625 C11.42114034 14.62188216 10.30857577 15.40821211 8 16.5625 C5.38139265 16.71362939 2.80709118 16.79383862 0.1875 16.8125 C-0.88081055 16.8434375 -0.88081055 16.8434375 -1.97070312 16.875 C-6.51206543 16.9086086 -9.40364881 16.38477941 -13 13.5625 C-14.54586876 10.47076248 -14.29359521 7.96820448 -14 4.5625 C-10.61388918 -0.75853129 -5.69243809 -0.06912246 0 0 Z " fill="#000000" transform="translate(388,116.4375)"/>
<path d="M0 0 C1.35351562 -0.03577148 1.35351562 -0.03577148 2.734375 -0.07226562 C9.29373623 -0.05771083 9.29373623 -0.05771083 12.62890625 2.87109375 C14.49937227 6.54274926 14.08873351 8.64305936 13 12.5625 C11.42114034 14.62188216 10.30857577 15.40821211 8 16.5625 C5.38139265 16.71362939 2.80709118 16.79383862 0.1875 16.8125 C-0.88081055 16.8434375 -0.88081055 16.8434375 -1.97070312 16.875 C-6.51206543 16.9086086 -9.40364881 16.38477941 -13 13.5625 C-14.54586876 10.47076248 -14.29359521 7.96820448 -14 4.5625 C-10.61388918 -0.75853129 -5.69243809 -0.06912246 0 0 Z " fill="#000000" transform="translate(344,116.4375)"/>
<path d="M0 0 C0.90234375 -0.01933594 1.8046875 -0.03867188 2.734375 -0.05859375 C9.29838804 -0.01004336 9.29838804 -0.01004336 12.59375 2.97265625 C14.31291819 6.21519848 14.61593433 8.00638582 14 11.625 C12.1329009 13.92775556 10.64352259 15.30323871 8 16.625 C5.38139265 16.77612939 2.80709118 16.85633862 0.1875 16.875 C-0.88081055 16.9059375 -0.88081055 16.9059375 -1.97070312 16.9375 C-6.51206543 16.9711086 -9.40364881 16.44727941 -13 13.625 C-14.42662219 10.77175563 -14.31033868 8.79045451 -14 5.625 C-10.72082504 -0.63023291 -6.35663921 -0.1362137 0 0 Z " fill="#000000" transform="translate(256,116.375)"/>
<path d="M0 0 C1.3602832 -0.0299707 1.3602832 -0.0299707 2.74804688 -0.06054688 C9.35307815 -0.05568666 9.35307815 -0.05568666 12.6640625 2.24609375 C14.70937648 5.45118073 14.5275487 7.71711039 14.0625 11.4375 C12.30234869 14.6225357 11.56359084 15.27046972 8.0625 16.4375 C5.40402131 16.55976159 2.78326362 16.62262018 0.125 16.625 C-0.59107422 16.63724609 -1.30714844 16.64949219 -2.04492188 16.66210938 C-5.82307981 16.67261398 -8.77624385 16.62846961 -11.9375 14.4375 C-14.03429403 11.74162197 -13.93260821 10.344556 -13.75 6.875 C-11.90324042 -0.93821362 -6.93233937 -0.05396726 0 0 Z " fill="#000000" transform="translate(167.9375,116.5625)"/>
<path d="M0 0 C1.3602832 -0.0299707 1.3602832 -0.0299707 2.74804688 -0.06054688 C9.35307815 -0.05568666 9.35307815 -0.05568666 12.6640625 2.24609375 C14.70937648 5.45118073 14.5275487 7.71711039 14.0625 11.4375 C12.30234869 14.6225357 11.56359084 15.27046972 8.0625 16.4375 C5.40402131 16.55976159 2.78326362 16.62262018 0.125 16.625 C-0.59107422 16.63724609 -1.30714844 16.64949219 -2.04492188 16.66210938 C-5.82307981 16.67261398 -8.77624385 16.62846961 -11.9375 14.4375 C-14.03429403 11.74162197 -13.93260821 10.344556 -13.75 6.875 C-11.90324042 -0.93821362 -6.93233937 -0.05396726 0 0 Z " fill="#000000" transform="translate(123.9375,116.5625)"/>
<path d="M0 0 C0.71607422 -0.01224609 1.43214844 -0.02449219 2.16992188 -0.03710938 C5.94807981 -0.04761398 8.90124385 -0.00346961 12.0625 2.1875 C14.1440902 4.86383026 14.05837591 6.30503668 13.9375 9.75 C13.0625 13.1875 13.0625 13.1875 11.6015625 14.875 C7.68068502 16.90179205 3.9111315 16.66107462 -0.4375 16.625 C-1.29214844 16.64498047 -2.14679688 16.66496094 -3.02734375 16.68554688 C-9.23764225 16.68070265 -9.23764225 16.68070265 -12.50390625 14.37890625 C-14.59710108 11.17922696 -14.4048924 8.92663923 -13.9375 5.1875 C-10.75552235 -0.57036431 -5.96130312 0.00533689 0 0 Z " fill="#000000" transform="translate(387.9375,275.8125)"/>
<path d="M0 0 C0.71220703 -0.020625 1.42441406 -0.04125 2.15820312 -0.0625 C6.69956543 -0.0961086 9.59114881 0.42772059 13.1875 3.25 C14.73336876 6.34173752 14.48109521 8.84429552 14.1875 12.25 C12.7578125 14.44140625 12.7578125 14.44140625 10.1875 16.25 C7.03183711 16.86647979 3.95678173 16.85383077 0.75 16.8125 C-0.5194043 16.84827148 -0.5194043 16.84827148 -1.81445312 16.88476562 C-6.2628812 16.87431513 -8.24782333 16.67083721 -11.91015625 13.94140625 C-13.8125 11.25 -13.8125 11.25 -13.8125 7.625 C-12.86706241 4.43414813 -12.44878553 3.14812558 -9.8125 1.25 C-6.69863918 -0.30693041 -3.41505068 0.02432805 0 0 Z " fill="#000000" transform="translate(123.8125,275.75)"/>
<path d="M0 0 C1.35351562 -0.03577148 1.35351562 -0.03577148 2.734375 -0.07226562 C9.29373623 -0.05771083 9.29373623 -0.05771083 12.62890625 2.87109375 C14.49937227 6.54274926 14.08873351 8.64305936 13 12.5625 C11.42114034 14.62188216 10.30857577 15.40821211 8 16.5625 C5.38139265 16.71362939 2.80709118 16.79383862 0.1875 16.8125 C-0.88081055 16.8434375 -0.88081055 16.8434375 -1.97070312 16.875 C-6.51206543 16.9086086 -9.40364881 16.38477941 -13 13.5625 C-14.54586876 10.47076248 -14.29359521 7.96820448 -14 4.5625 C-10.61388918 -0.75853129 -5.69243809 -0.06912246 0 0 Z " fill="#000000" transform="translate(300,116.4375)"/>
<path d="M0 0 C0.90685547 -0.02835937 1.81371094 -0.05671875 2.74804688 -0.0859375 C9.39029723 -0.10548791 9.39029723 -0.10548791 12.66015625 2.83984375 C14.37170191 6.08653622 14.6785022 7.8809871 14.0625 11.5 C12.1954009 13.80275556 10.70602259 15.17823871 8.0625 16.5 C5.42489848 16.62463392 2.8252283 16.68516573 0.1875 16.6875 C-0.53308594 16.69974609 -1.25367188 16.71199219 -1.99609375 16.72460938 C-5.78792577 16.73508405 -8.76581369 16.70365302 -11.9375 14.5 C-14.03429403 11.80412197 -13.93260821 10.407056 -13.75 6.9375 C-11.90753641 -0.85753826 -6.9274799 -0.0196107 0 0 Z " fill="#000000" transform="translate(211.9375,116.5)"/>
<path d="M0 0 C0.66 -0.01289063 1.32 -0.02578125 2 -0.0390625 C5.23089302 1.03369495 6.26675661 2.74386296 8 5.625 C8.39483767 8.4585409 8.56233548 10.80951429 8.5 13.625 C8.51546875 14.32367188 8.5309375 15.02234375 8.546875 15.7421875 C8.51979845 19.32983036 8.07513531 21.49993925 6.21875 24.58984375 C3.88031969 26.73477719 3.10433321 27.29057356 0 27.1875 C-0.66 27.18878906 -1.32 27.19007813 -2 27.19140625 C-5.04579139 26.32882861 -6.15594991 25.20505254 -8 22.625 C-8.40091196 19.65648279 -8.56058386 17.14348772 -8.5 14.1875 C-8.51546875 13.43662109 -8.5309375 12.68574219 -8.546875 11.91210938 C-8.51974974 8.05693138 -8.22954256 6.01109461 -6.21875 2.62890625 C-3.89403958 0.52929983 -3.07219676 -0.06000384 0 0 Z " fill="#000000" transform="translate(452,210.375)"/>
<path d="M0 0 C0.66 -0.01289063 1.32 -0.02578125 2 -0.0390625 C5.25197046 1.04069332 6.26752582 2.71094804 8 5.625 C8.56132352 8.49816627 8.5601433 11.26804387 8.5 14.1875 C8.51546875 14.94224609 8.5309375 15.69699219 8.546875 16.47460938 C8.52191663 20.01557784 8.29991999 22.2053751 6.21875 25.1171875 C3.89794924 26.6943514 2.77294668 27.19291591 0 27.1875 C-0.66 27.20941406 -1.32 27.23132813 -2 27.25390625 C-5.25168054 26.23140514 -6.26926857 24.50575693 -8 21.625 C-8.39483767 18.7914591 -8.56233548 16.44048571 -8.5 13.625 C-8.52320313 12.57699219 -8.52320313 12.57699219 -8.546875 11.5078125 C-8.51980607 7.92117872 -8.07643623 5.75205848 -6.21875 2.6640625 C-3.89402706 0.52760938 -3.09340599 -0.06041809 0 0 Z " fill="#000000" transform="translate(60,210.375)"/>
<path d="M0 0 C2.17476401 1.54338091 2.81832637 2.63665273 4 5 C4.2037399 7.62242356 4.32356725 10.18709203 4.375 12.8125 C4.41238281 13.52470703 4.44976562 14.23691406 4.48828125 14.97070312 C4.55488954 18.970901 4.17249686 20.77713054 1.69921875 23.97265625 C-1 26 -1 26 -4.5625 26.625 C-8 26 -8 26 -10.18359375 23.99609375 C-12.59723504 20.01488328 -12.59402203 17.00148607 -12.5 12.4375 C-12.51546875 11.68275391 -12.5309375 10.92800781 -12.546875 10.15039062 C-12.52191919 6.60978459 -12.29591031 4.41622549 -10.22265625 1.5 C-6.56759404 -0.96668522 -4.3460309 -0.48289232 0 0 Z " fill="#000000" transform="translate(456,172)"/>
<path d="M0 0 C2.2265625 1.4921875 2.2265625 1.4921875 4 4 C4.40091196 6.96851721 4.56058386 9.48151228 4.5 12.4375 C4.51546875 13.18837891 4.5309375 13.93925781 4.546875 14.71289062 C4.51958325 18.59173086 4.23807315 20.6073073 2.18359375 23.99609375 C0 26 0 26 -3.4375 26.625 C-7.96692571 25.83036391 -9.19702603 24.60585974 -12 21 C-12.42407126 18.07894968 -12.5724474 15.82431604 -12.4375 12.9375 C-12.43169922 12.23044922 -12.42589844 11.52339844 -12.41992188 10.79492188 C-12.33327431 7.10373571 -12.15303161 4.07247571 -10 1 C-6.87057535 -0.56471233 -3.38917777 -0.69701958 0 0 Z " fill="#000000" transform="translate(64,172)"/>
<path d="M0 0 C3 2 3 2 5 5 C5.37468449 7.91799741 5.06531397 10.25977573 4 13 C1.875 15.0625 1.875 15.0625 -1 16 C-4.74042509 15.93550991 -7.03326481 15.81081016 -9.9375 13.375 C-11.43699866 10.02317947 -11.45377473 7.63019782 -11 4 C-8.115552 -0.49973888 -5.11460998 -0.80757 0 0 Z " fill="#000000" transform="translate(47,32)"/>
<path d="M0 0 C2.4375 1.5625 2.4375 1.5625 4 4 C4.72468526 8.42863214 4.49454049 10.28066838 1.9375 14 C-1 16 -1 16 -4.625 16 C-9.45945946 14.56756757 -9.45945946 14.56756757 -11 12 C-12 8.625 -12 8.625 -12 5 C-8.6643553 0.10077185 -5.80969012 -0.95067657 0 0 Z " fill="#000000" transform="translate(82,32)"/>
<path d="M0 0 C2.71604883 1.92982417 3.74692606 3.34200775 4.9375 6.4375 C5.01997067 9.81879751 4.0198841 11.33086744 2 14 C-1 16 -1 16 -4.5 15.8125 C-8 15 -8 15 -9.9375 13.9375 C-11.69366901 10.73507415 -11.62026592 7.50309274 -11 4 C-8.16250305 -0.53999512 -5.10870514 -0.72981502 0 0 Z " fill="#000000" transform="translate(116,32)"/>
</svg>
